<svg id="cu-txt" xmlns="http://www.w3.org/2000/svg" viewBox="0 0 392.4 72">
  <title>cu-txt</title>
  <g>
    <path d="M383.3,97.5c-.8-3-2.7-5.1-6.4-5.1-5.5,0-7.8,4.9-7.8,9.8s2.3,9.8,7.8,9.8c4,0,6.2-3,6.6-6.8h4.4c-.4,6.2-4.7,10.4-11,10.4s-12.4-6.1-12.4-13.5,4.6-13.5,12.4-13.5c5.8,0,10.4,3.3,10.9,8.8Z" transform="translate(-363.6 -50.5)" fill="#fff"/>
    <path d="M390.3,105.8c0-5.7,3.4-9.8,9.4-9.8s9.4,4.1,9.4,9.8-3.4,9.9-9.4,9.9S390.3,111.5,390.3,105.8Zm14.7,0c0-3.2-1.6-6.6-5.3-6.6s-5.3,3.4-5.3,6.6,1.6,6.6,5.3,6.6S405.1,109,405.1,105.8Z" transform="translate(-363.6 -50.5)" fill="#fff"/>
    <path d="M412.6,89.3h4.1v25.8h-4.1Z" transform="translate(-363.6 -50.5)" fill="#fff"/>
    <path d="M420.9,89.3h4.1v25.8h-4.1Z" transform="translate(-363.6 -50.5)" fill="#fff"/>
    <path d="M432.5,106.8c0,2.9,1.6,5.5,5,5.5a4.3,4.3,0,0,0,4.6-3.1H446c-.9,4.1-4.4,6.4-8.5,6.4-5.9,0-9.1-4.1-9.1-9.8s3.5-9.9,9-9.9,9.5,5.3,8.8,10.9Zm9.6-2.7c-.1-2.6-1.9-4.9-4.7-4.9a4.9,4.9,0,0,0-4.9,4.9Z" transform="translate(-363.6 -50.5)" fill="#fff"/>
    <path d="M466.8,114.1c0,5.6-3.3,8.4-9.2,8.4-3.8,0-8-1.4-8.3-5.8h4.1c.5,2.3,2.4,2.7,4.5,2.7s4.8-1.7,4.8-4.8v-2.9h-.1a6.4,6.4,0,0,1-5.6,3.3c-5.9,0-8.4-4.5-8.4-9.8s3.1-9.4,8.5-9.4a5.9,5.9,0,0,1,5.5,3.1h.1V96.4h4.1Zm-4.1-8.8c0-3.2-1.4-6.2-5-6.2s-4.9,3.4-4.9,6.5,1.5,6.2,4.9,6.2S462.6,108.5,462.6,105.4Z" transform="translate(-363.6 -50.5)" fill="#fff"/>
    <path d="M474.1,106.8c0,2.9,1.6,5.5,5,5.5a4.3,4.3,0,0,0,4.6-3.1h3.9c-.9,4.1-4.4,6.4-8.5,6.4-5.9,0-9.1-4.1-9.1-9.8s3.5-9.9,9-9.9,9.5,5.3,8.8,10.9Zm9.6-2.7c-.1-2.6-1.9-4.9-4.7-4.9a4.9,4.9,0,0,0-4.9,4.9Z" transform="translate(-363.6 -50.5)" fill="#fff"/>
    <path d="M500.1,105.8c0-5.7,3.4-9.8,9.4-9.8s9.4,4.1,9.4,9.8-3.4,9.9-9.4,9.9S500.1,111.5,500.1,105.8Zm14.7,0c0-3.2-1.6-6.6-5.3-6.6s-5.3,3.4-5.3,6.6,1.6,6.6,5.3,6.6S514.8,109,514.8,105.8Z" transform="translate(-363.6 -50.5)" fill="#fff"/>
    <path d="M520.2,96.4h3.1V94.9c0-4.8,2.5-5.6,5.2-5.6a11.6,11.6,0,0,1,2.9.3v3.2l-1.9-.2c-1.1,0-2,.4-2,2v1.9h3.5v3.1h-3.5v15.6h-4.1V99.5h-3.1Z" transform="translate(-363.6 -50.5)" fill="#fff"/>
    <path d="M550.9,89.3h4.8l9.9,25.8h-4.8l-2.4-6.8H548.1l-2.4,6.8H541Zm-1.6,15.5h7.9l-3.9-11.1h-.1Z" transform="translate(-363.6 -50.5)" fill="#fff"/>
    <path d="M567.8,96.4h3.9V100h.1a6,6,0,0,1,5.5-4.1h1.6v4l-1.8-.2c-2.8,0-5.1,2.3-5.1,6.4v8.9h-4.1Z" transform="translate(-363.6 -50.5)" fill="#fff"/>
    <path d="M579.8,96.4h3.1V90.8h4.1v5.6h3.7v3.1h-3.7v10c0,1.7.1,2.6,2,2.6h1.7v3.2l-2.7.2c-4.3,0-5.1-1.7-5.2-4.8v-11h-3.1Z" transform="translate(-363.6 -50.5)" fill="#fff"/>
    <path d="M596.8,109.1c.2,2.4,2,3.3,4.2,3.3s4.3-.3,4.2-2.5-3.1-2.4-6.1-3.1-6-1.7-6-5.5,4.4-5.3,7.8-5.3,7.3,1.6,7.8,5.7h-4.3c-.4-2-2-2.5-3.8-2.5s-3.4.3-3.4,1.9,3,2.3,6.1,3,6,1.8,6,5.5-4.5,6.1-8.3,6.1-8.2-2.1-8.3-6.5Z" transform="translate(-363.6 -50.5)" fill="#fff"/>
    <path d="M636.8,112.2a8.7,8.7,0,0,1-7.2,3.4c-4.7,0-8.1-2.8-8.1-7.7s3-6,5.9-7.5c-1.3-1.7-2.6-3.4-2.6-5.6a6,6,0,0,1,6.3-6.1c3.3,0,6.4,2.1,6.4,6.2s-2.2,5.2-4.7,6.5l4,4.8a13.7,13.7,0,0,0,.8-3.5h3.6a15,15,0,0,1-2,6.3l4.9,6h-5.1Zm-7.3-9c-1.5.9-4,1.8-4,4.8a4,4,0,0,0,4.2,4.3c3,0,4.1-1.8,4.9-2.9Zm-1.1-8.6c0,1.7,1.4,3,2.3,4.3,1.6-1,3-2.1,3-4.2a2.7,2.7,0,1,0-5.4-.1Z" transform="translate(-363.6 -50.5)" fill="#fff"/>
    <path d="M656.4,89.3h6.4l7.1,20.2h.1l6.9-20.2h6.3v25.8h-4.3V95.2h-.1l-7.2,19.9h-3.7l-7.2-19.9h-.1v19.9h-4.3Z" transform="translate(-363.6 -50.5)" fill="#fff"/>
    <path d="M691.1,106.8c0,2.9,1.6,5.5,5,5.5a4.3,4.3,0,0,0,4.6-3.1h3.9c-.9,4.1-4.4,6.4-8.5,6.4-5.9,0-9.1-4.1-9.1-9.8s3.5-9.9,9-9.9,9.5,5.3,8.8,10.9Zm9.6-2.7c-.1-2.6-1.9-4.9-4.7-4.9a4.9,4.9,0,0,0-4.9,4.9Z" transform="translate(-363.6 -50.5)" fill="#fff"/>
    <path d="M725.6,115.1h-3.9v-2.5h-.1c-1.1,2.1-3.4,3-5.8,3-5.9,0-8.7-4.4-8.7-10s4-9.7,8.1-9.7c2.3,0,4.9.9,6.2,2.9h.1V89.3h4.1Zm-9.2-2.7c3.7,0,5.2-3.4,5.2-6.6s-2-6.6-5.2-6.6-5.2,3.4-5.2,6.8S712.9,112.4,716.4,112.4Z" transform="translate(-363.6 -50.5)" fill="#fff"/>
    <path d="M729.9,89.3h4.1v3.9h-4.1Zm0,7.1h4.1v18.7h-4.1Z" transform="translate(-363.6 -50.5)" fill="#fff"/>
    <path d="M754,111c0,1,.2,1.4,1,1.4h1v2.9a10.3,10.3,0,0,1-2.6.5c-1.7,0-2.9-.6-3.2-2.3a9.6,9.6,0,0,1-6.5,2.3c-3.4,0-6.4-1.8-6.4-5.5s3.7-5.4,7.2-5.8,5.6-.2,5.6-2.6-2.2-2.5-3.9-2.5-3.9.9-4.1,3H738c.3-4.8,4.4-6.2,8.5-6.2s7.5,1.5,7.5,5.4Zm-4.1-5.2c-1.3.8-3.3.8-5.1,1.1s-3.4.9-3.4,3.1,2.3,2.4,3.8,2.4,4.6-.9,4.6-3.5Z" transform="translate(-363.6 -50.5)" fill="#fff"/>
  </g>
  <text transform="translate(0 25.3)" font-size="29.56" fill="#fff" font-family="HelveticaNeue-Light, Helvetica Neue">University of Colorad<tspan x="263.4" y="0" letter-spacing="0.08em">o</tspan><tspan x="282.2" y="0" letter-spacing="0em"> </tspan><tspan x="290.4" y="0" font-family="HelveticaNeue-Bold, Helvetica Neue" font-weight="700" letter-spacing="0em">Denver</tspan></text>
</svg>
