<svg id="logo" xmlns="http://www.w3.org/2000/svg" viewBox="0 0 82.5 79.6">
  <title>cu</title>
  <polygon points="59.6 20.1 59.6 10.9 48.7 0 10.9 0 0 10.9 0 48.6 10.9 59.5 22.9 59.5 22.9 68.7 33.9 79.6 65.8 79.6 76.9 68.7 76.9 39.5 82.5 39.5 82.5 20.1 59.6 20.1" fill="#cfb87c"/>
  <polygon points="48.2 1.1 58.5 11.4 58.5 21.2 81.4 21.2 81.4 38.4 75.7 38.4 75.7 68.2 65.4 78.5 34.4 78.5 24.1 68.2 24.1 58.4 11.4 58.4 1.1 48.1 1.1 11.4 11.4 1.1 48.2 1.1" fill="#231f20"/>
  <polyline points="12.6 55.6 26.9 55.6 26.9 67.1 35.6 75.7 64.2 75.7 72.9 67.1 72.9 35.5 78.5 35.5 78.5 24 61.3 24 61.3 64.2 38.4 64.2 38.4 55.6 47.1 55.6 55.6 47 55.6 35.5 44.1 35.5 44.1 44.1 38.4 44.1 38.4 24 21.2 24 21.2 35.5 26.9 35.5 26.9 44.1 15.4 44.1 15.4 15.4 44.1 15.4 44.1 24 55.6 24 55.6 12.6 47.1 4 12.6 4 4 12.6 4 47 12.6 55.6" fill="#fff"/>
  <polygon points="37 54.2 46.5 54.2 54.2 46.4 54.2 37 45.5 37 45.5 45.5 37 45.5 37 25.5 22.6 25.5 22.6 34.1 28.3 34.1 28.3 45.5 14 45.5 14 14 45.5 14 45.5 22.6 54.2 22.6 54.2 13.2 46.5 5.4 13.2 5.4 5.4 13.2 5.4 46.4 13.2 54.2 28.3 54.2 28.3 66.5 36.2 74.3 63.6 74.3 71.5 66.5 71.5 34.1 77.1 34.1 77.1 25.5 62.7 25.5 62.7 65.6 37 65.6 37 54.2" fill="#cfb87c"/>
</svg>
