<svg id="l1" xmlns="http://www.w3.org/2000/svg" viewBox="0 0 542 466.3">
  <title>l1</title>
  <g>
    <g>
      <path d="M42,344.8s35.2,19.7,60.6,2.4,55.2-58.8,90-55.5,75,10.3,75,10.3,43.4,2.3,55.7,6.2S426.6,359,438,375.6c42.8,62.2,62.1,37.5,88.9,316.2,0,0-155.7,42.6-266.6-2.9S104.8,513.1,87.4,460.4,42,344.8,42,344.8Z" transform="translate(-42 -291.5)" fill="#3bbe48"/>
      <path d="M140.7,320.8s9.4-8.4,18.5-2c0,0-1.5-8.1-7.8-7.7,0,0,13.1.8,16.2,4.3,0,0-7.3-8.8-10-8.8,0,0,17.6-4.5,26.6,9.2s.1-7.4-13.9-12c0,0,29.1-3.1,38.8,40.6s14,121.3,32.4,138c0,0-27-37-32.7-116,0,0,.9,80.7,23.9,109.1,0,0-25.4-26.2-33.5-102.9s.2-1.9.2-1.9,17.9,98.8,19.3,98.8-17.9-73.2-19-71,14.8,67,14.8,67-19.6-75.4-21.4-71.5,19.2,70.5,19.2,70.5-28-98.9-29.9-96.4,21.8,89.2,21.8,89.2l-22.1-63,16,60.2-20.4-48.1,15.5,47.1-15.8-39.2,10.9,36.8-16.8-32.9,8.5,26.3s-14.1-33-14.8-31.3,7.1,24.9,7.1,24.9l-15.2-33.5,9.4,31.4s-34.7-91.9-50.4-88.6c0,0,9.8-.8,15.6,2.7l-17.6-7,18.6,2.1L116.5,339l20.6,6.4-12.8-10.1,14.8,5.7-10.6-9,12.2,7.1-7.6-11,13.3,10.3-10.9-12.6,12.2,9.8-10.3-12.3,15.7,8.1S155.6,317.7,140.7,320.8Z" transform="translate(-42 -291.5)" fill="#2d993b"/>
      <path d="M134.3,352.8l27.3,52-10.7-28.7,21.6,41.2L163,384.6l14.6,21.8-8.5-26.3L181.9,403,174,377s14.1,24.2,12.5,23.4-13.4-51.5-21.6-68.2l9,36.6s-16.6-37.5-15.7-35.1L170.6,370l-19-36.7L163.6,362l-17.1-23.6,5.1,10.5-8.6-6.1,4.7,14.3L139,345.6l7,20.8Z" transform="translate(-42 -291.5)" fill="#24732e"/>
      <path d="M200.7,293.6s22.6,5,25.4,53.8,14.2,133.8,26.4,142.3c0,0-14.5-39.2-14.3-56.7s10.6,51.6,23.1,65.9c0,0-19.1-54.2-20.2-85.4,0,0,13.2,67.6,24.8,87.9,0,0-31.7-68.9-16.1-173.8,0,0,8.1-27.2-22.2-32.8,0,0,13,4.5,14.7,11.7a58,58,0,0,0-22.1-13.2l-.6-.2c-13.6-4.1,13.6,4.1,16.3,14.1,0,0-14.9-14.8-29.9-15.2,0,0,22.5,5.2,27.2,17.9C233.1,309.9,220.4,294.1,200.7,293.6Z" transform="translate(-42 -291.5)" fill="#2d993b"/>
      <path d="M221.5,308.8a504.9,504.9,0,0,1,13.6,105.9s.3-70.3.9-71.7,1.7,81.7,2.3,80.6,1.7-53.5,1.7-53.5l1.9,30.2s4.4-60.6,3.4-72.6l-2.7,25s.7-28.6-5.3-39.3l2.5,14.7-7.4-14.3,1.9,11.7s-4.4-13.5-6.9-17.4-.4-.5-.4-.5a72.7,72.7,0,0,1,4.6,22.4S227.4,317,221.5,308.8Z" transform="translate(-42 -291.5)" fill="#24732e"/>
      <path d="M166.7,301.3s31.8-14.8,43.5,28.7,17.8,136.4,38.8,159.4c0,0-37-48.9-45-144.2C204.1,345.2,202.9,298.6,166.7,301.3Z" transform="translate(-42 -291.5)" fill="#83d98c"/>
      <path d="M164.1,303.6a20.8,20.8,0,0,1,5.8,1.1l2.8,1.1,2.6,1.4a35.4,35.4,0,0,1,8.9,7.7c5,6.2,8.2,13.6,10.4,21.1.5,1.9,1.1,3.8,1.4,5.7l1.1,5.8c.6,3.9,1.2,7.8,1.7,11.7l3.4,23.3c2.2,15.6,4.5,31.1,7.5,46.5,1.5,7.7,3.1,15.4,5.2,23,1,3.8,2.2,7.5,3.6,11.2a58.4,58.4,0,0,0,5.1,10.6,58.5,58.5,0,0,1-5.3-10.5c-1.5-3.7-2.7-7.4-3.8-11.2-2.2-7.6-3.9-15.2-5.5-22.9-3.1-15.4-5.4-31-7.7-46.5L198,359.2c-.6-3.9-1.1-7.8-1.7-11.7a115.1,115.1,0,0,0-2.4-11.5c-2-7.5-5.1-14.9-10-21a35,35,0,0,0-8.7-7.8l-2.6-1.4-2.7-1.1A20.7,20.7,0,0,0,164.1,303.6Z" transform="translate(-42 -291.5)" fill="#83d98c"/>
      <path d="M193.4,297.2a17.5,17.5,0,0,1,6.2,1.9,24.8,24.8,0,0,1,5.4,3.7,35.2,35.2,0,0,1,7.8,10.5c3.9,7.9,5.7,16.6,6.6,25.2l.3,3.3.2,3.3c.1,2.2.2,4.3.3,6.5.2,4.3.3,8.7.4,13,.2,8.7.4,17.4.6,26.1.5,17.4,1.5,34.8,4.6,51.9a137.3,137.3,0,0,0,6.8,25.1,91.7,91.7,0,0,0,5.6,11.8,69.3,69.3,0,0,0,7.6,10.6,69.4,69.4,0,0,1-7.8-10.5,92,92,0,0,1-5.8-11.7,137.3,137.3,0,0,1-7.1-25.1,241.4,241.4,0,0,1-3.4-25.9c-.7-8.7-1.1-17.4-1.4-26.1s-.4-17.4-.5-26.1c-.1-4.3-.2-8.7-.4-13l-.3-6.5-.2-3.3-.3-3.2c-.8-8.6-2.5-17.2-6.2-25.1a34.8,34.8,0,0,0-7.5-10.5,24.7,24.7,0,0,0-5.3-3.7A17.4,17.4,0,0,0,193.4,297.2Z" transform="translate(-42 -291.5)" fill="#83d98c"/>
      <path d="M91.5,354.8s22.4-16.7,33.9-1.1,33.8,70.3,38.6,83.7c0,0-27.2-53-39.1-74.1C124.9,363.2,118,343.7,91.5,354.8Z" transform="translate(-42 -291.5)" fill="#83d98c"/>
      <path d="M49.9,348.6s22.3,12.6,57.4,14.7c0,0,11.9-1.8,18.2,22.1s14.7,35.9,21.5,43.6c0,0-19.1-9.4-32.2-52.3,0,0-1.9-7.3-13.8-9.9S67.3,359.5,49.9,348.6Z" transform="translate(-42 -291.5)" fill="#83d98c"/>
      <path d="M87.1,357.1l13.1,1.7a75.6,75.6,0,0,0,13.2.7,11.9,11.9,0,0,1,6,2.9,19.2,19.2,0,0,1,4.2,5.1,24.9,24.9,0,0,1,2.5,6.2c.5,2.2.9,4.3,1.5,6.4a252.6,252.6,0,0,0,8.2,25.1c1.6,4.1,3.2,8.2,5,12.2l1.4,3,1.5,3,.8,1.5.8,1.4a25.8,25.8,0,0,0,1.9,2.7,25.8,25.8,0,0,1-1.9-2.7l-.9-1.4-.8-1.4-1.5-2.9-1.4-3c-1.9-4-3.5-8.1-5.1-12.2s-3.1-8.3-4.5-12.4-2.7-8.4-3.9-12.7c-.6-2.1-1-4.3-1.4-6.5a24.4,24.4,0,0,0-2.4-6.1,18.8,18.8,0,0,0-4.1-5,11.6,11.6,0,0,0-5.8-2.8,74.8,74.8,0,0,1-13.2-.8Z" transform="translate(-42 -291.5)" fill="#83d98c"/>
      <path d="M44.5,348.7l25.9,11.5,13,5.7c4.3,1.8,8.7,3.7,13.1,5.3l1.6.6,1.8.7a12.6,12.6,0,0,1,3.2,2.1,23.6,23.6,0,0,1,4.6,5.8,132.8,132.8,0,0,1,6.2,12.8c3.8,8.6,8,17.1,13.7,24.7a82.7,82.7,0,0,1-8.4-11.5c-2.5-4.1-4.6-8.3-6.7-12.5s-4-8.6-6.4-12.5a22.5,22.5,0,0,0-4.2-5.3,10.6,10.6,0,0,0-2.7-1.7L95.8,373c-4.5-1.6-8.8-3.5-13.2-5.4l-12.9-6Q57,355.4,44.5,348.7Z" transform="translate(-42 -291.5)" fill="#83d98c"/>
      <path d="M95.3,355.9c4.1-.1,8.2,0,12.3.2a60.8,60.8,0,0,1,6.1.6l3,.7a5.8,5.8,0,0,1,1.4.7l1.1,1.1a41.2,41.2,0,0,1,3.6,5c1.1,1.7,2.1,3.5,3.1,5.3,2,3.6,3.9,7.2,5.6,10.9,3.5,7.4,6.7,14.9,9.8,22.5q2.3,5.7,4.4,11.5t4,11.6q-2-5.8-4.2-11.5t-4.4-11.4c-3.1-7.6-6.3-15.1-9.9-22.5-1.8-3.7-3.6-7.3-5.6-10.9-1-1.8-2-3.6-3.1-5.3a40.9,40.9,0,0,0-3.5-5c-1.2-1.7-3.4-2.1-5.3-2.5s-4-.5-6.1-.7C103.5,356.1,99.4,355.9,95.3,355.9Z" transform="translate(-42 -291.5)" fill="#83d98c"/>
      <path d="M329.5,313.1s21.7,10.8-2.9,84.1-19,134.1-12.3,141.3c0,0-8.6-57.7,3.6-89.8,0,0-12.7,116.9,2.5,98.3,1.2-1.5-8.4-37.8-.7-81.7s1.4.2,1.4.2-5.7,67.6,3.4,83.5c0,0-5.1-68.2,2.1-82.4,0,0-2.7,75.1,3.2,85,0,0-3.7-69,6.7-80.3,0,0-8.4,66.8,2,85.4,0,0-6.5-45,6.4-64.7,0,0-9,48.8,1.5,71.5,0,0-5.3-36.9,3.4-62.6s19.8-50.3,43.8-75.3,32-51.6,21.3-64.2c0,0,5.1,19.1-5.6,35.3,0,0,9.4-30.5-1.1-40.5,0,0,5.3,11.1-11,48.9,0,0,16.9-40,1.3-54,0,0,18.2,17.2-19.2,75.8,0,0,35.7-52.9,11.6-80,0,0,15.8,10.5-6.5,60.6,0,0,19.6-49.9-.8-66.6,0,0,18.4,27.4-16,85,0,0,32.9-66.3,5.2-91.1,0,0,18.5,16.4-5.1,66.3,0,0,19.6-49.9-3.1-70.2,0,0,11.6,6.5,3,42.9,0,0,7.7-33.3-7.1-44.8,0,0,18.1,16.2-10.5,82,0,0,23-60.4,4.3-87,0,0,15.3,26.5-14.9,96.6,0,0,29-75.2,8.5-100.1,0,0,13.4,25.1-6.2,80.5,0,0,16.5-71.1-.6-84.2,0,0,13.2,22.4-1,68.3C340,384.8,350.8,316.1,329.5,313.1Z" transform="translate(-42 -291.5)" fill="#2d993b"/>
      <g>
        <path d="M44.6,352.1s56,58.9,94.5,80.1S293.9,538.9,317.9,554.4s176,141,200.9,139.6c0,0-151.3-116.1-178.7-135.2S233.3,476.9,168.3,439,44.6,352.1,44.6,352.1Z" transform="translate(-42 -291.5)" fill="#83d98c"/>
        <path d="M44.6,352.1q12.8,13.2,26.1,25.7c8.9,8.4,18,16.5,27.3,24.4a348.1,348.1,0,0,0,29.1,22.2l3.8,2.5c1.3.9,2.6,1.6,3.9,2.4l7.9,4.6,4,2.3,3.9,2.4,7.8,4.8c20.6,13.2,40.7,27.1,60.8,41s40,28.1,60,42.1c10,7,20,14.1,30,21l7.6,5.1c2.5,1.7,5.1,3.4,7.6,5.2,5,3.6,9.8,7.3,14.7,11l58.1,44.7c19.4,14.8,38.9,29.5,58.9,43.6,10,7.1,20,14,30.3,20.5,5.2,3.3,10.4,6.4,15.7,9.2,2.7,1.4,5.4,2.8,8.2,3.9s5.7,2.2,8.4,2.1l-.6,1.8Q460.2,650.2,402,606l-29.2-22c-9.7-7.3-19.5-14.6-29.4-21.7s-19.8-14.3-29.5-21.6l-29.3-21.8c-19.6-14.5-39.3-28.8-59.4-42.6l-7.5-5.2-7.6-5.1c-5-3.4-10.2-6.7-15.3-10l-15.5-9.7-15.7-9.4-7.8-4.7-7.7-4.9-3.9-2.4-3.8-2.5-7.7-5c-10.1-6.8-20.2-13.6-30.1-20.8C82.8,382.4,63.4,367.6,44.6,352.1Zm0,0c18.9,15.4,38.4,30,58.3,44.1,9.9,7,20.1,13.8,30.2,20.5l7.7,4.9,3.8,2.5,3.9,2.4,7.8,4.8,7.9,4.7,15.7,9.3,15.5,9.7c5.1,3.3,10.3,6.6,15.3,10l7.6,5.1,7.6,5.1c20.1,13.7,39.9,28,59.6,42.4l29.4,21.7,14.7,10.9c4.9,3.6,9.9,7.1,14.8,10.6,9.9,7.1,19.7,14.4,29.4,21.7l29.2,22q58.3,44.1,116.3,88.6l2.3,1.8h-2.9c-3.4,0-6.4-1.2-9.3-2.3s-5.6-2.6-8.3-4c-5.4-2.9-10.7-6.1-15.8-9.3C475,672.8,465,665.8,455,658.8c-19.9-14.2-39.4-28.9-58.9-43.8l-58-44.8c-4.9-3.7-9.7-7.4-14.6-11-2.5-1.8-4.9-3.5-7.5-5.2l-3.8-2.5-3.8-2.6c-10.1-6.9-20-14-30-21.1-19.9-14.1-39.8-28.3-59.8-42.3s-40.1-27.9-60.6-41.2l-7.7-4.9-3.9-2.4-3.9-2.3-7.9-4.7c-1.3-.8-2.7-1.5-3.9-2.4l-3.8-2.6a348.7,348.7,0,0,1-29-22.4c-9.3-7.9-18.4-16.2-27.2-24.6S53,360.9,44.6,352.1Z" transform="translate(-42 -291.5)" fill="#24732e"/>
      </g>
      <path d="M336.4,387.2s-16.8,45.1-18.7,54.4c0,0,7.7-20.6,12.3-27s-3.1,27.9-5.4,41.4c0,0,5.4-29.7,8.8-36.3a3.6,3.6,0,0,1,.8-1.1c3.2-2.5-7.3,39-7.9,42.3,0,0,10.1-33.1,12.7-36.5,0,0-7.9,40.2-8.9,50.9,0,0,4-25.4,12.1-37.3s22.6-43.4,23.8-51.4c0,0-22.8,42.8-23.8,44.9s-.7-1.8-.7-1.8l10-30.7c1.2-3.5-1.4.8-1.4.8l-10.8,20.7s8.6-28.8,7.8-27.1-11.1,26.6-10.5,25.4,6.8-36.7,6-35.1-7.6,25.7-7.6,25.7Z" transform="translate(-42 -291.5)" fill="#24732e"/>
      <path d="M342.3,462.3a132.4,132.4,0,0,1,27.5-32.5l-15.4,27.1s2.3-8,24.9-30.2c0,0-19.2,30.9-27.9,60.1,0,0,5.3-27.3,12.3-35.6l-17.8,37.6s5-24.4,12.2-33.2c0,0-14.9,27.3-20.8,42.8,0,0,10.1-34.1,15.8-46.1,0,0-10.1,14.9-14,31.8C339.1,484,336.7,477.3,342.3,462.3Z" transform="translate(-42 -291.5)" fill="#24732e"/>
      <path d="M259.8,301.3" transform="translate(-42 -291.5)" fill="#54ed74"/>
      <path d="M258.3,301.1s15.7-1.2,4.8,42.2S261.3,486.1,282.9,514c0,0-30.5-106.5-10.9-148.8s11.1-46.8,7.8-53.9S263.1,303.9,258.3,301.1Z" transform="translate(-42 -291.5)" fill="#2d993b"/>
      <path d="M280.9,306.8s15.5-2.8-5.4,80.9,9.3,110.6,11.4,122.2c0,0-26-60.4-9.8-113.9S296.8,314.8,280.9,306.8Z" transform="translate(-42 -291.5)" fill="#2d993b"/>
      <path d="M443.6,390.4s10.3,21-32.7,57.3-54.2,55.7-49.5,120.6c0,0-1.7-62.5,21.2-80s90.4-56.3,73.5-82.5S443.6,390.4,443.6,390.4Z" transform="translate(-42 -291.5)" fill="#2d993b"/>
      <path d="M448.8,404s7.4,19.7-57.1,71.5c0,0,41.7-30.3,54.3-50.6a66.6,66.6,0,0,1-26.1,30.6s37.7-24.1,35.9-41.7Z" transform="translate(-42 -291.5)" fill="#24732e"/>
      <path d="M379.4,581.5V580c-.5-7.8-2.1-46.3,10.2-63.6,13.7-19.3,31.2-32.8,70.7-40.4s24.2-15.8,24.4-17.3l.2-1.4s18.8,39.3,17.5,64.4c0,0,6.2,4-12.3-.8s-66.5-10.2-79.3,31.7-9.8,48.5-9.8,48.5-5.5-35.5,3.9-56.3c0,0-12.9,37.9-9.9,52.9,0,0-5.1-29.7,6-53.3,0,0-13.3,18.5-9.4,49.7,0,0-5-6.4.8-41.1a79.7,79.7,0,0,0-5.1,38.5s-8.3-43.4,6.8-64.5C394,527.2,381.7,518.9,379.4,581.5Z" transform="translate(-42 -291.5)" fill="#2d993b"/>
      <path d="M391.2,520.3s23.4-34.4,66.7-36.2c0,0,22.3-.1,28.5-7.8,0,0-6.9,11.4-33.5,13,0,0,30.1,4.7,35.7-4.9l2.5-6.4s3.7,10.3-1.6,12.9-29,.4-37.5,3.5c0,0-46.7,14.3-56.4,47.6,0,0,.5-17,21.5-34.8,0,0-17.7,14.9-20.8,21.5,0,0,6.7-21.6,32.7-30.5,0,0-18.7,3.3-34.6,24,0,0,17-25.3,42.3-29.5C436.6,492.7,418,492.5,391.2,520.3Z" transform="translate(-42 -291.5)" fill="#24732e"/>
      <path d="M417.9,614.5s-1.2-60.9,28.4-62.1A21.3,21.3,0,0,0,433,564.7s15.8-14.1,39.9-8.1c0,0-21.4-5.4-35.4,7.2,0,0,8.9-6.6,16.5-5.7,0,0-11.3,1.7-17.8,10.5,0,0,35.5-15.2,54.9-2,0,0-15.9-9.2-41.7.5,0,0,20.3-4.5,30.9-.5,0,0-11-3.9-30.3,3.5,0,0,35.3-4.8,44.4,6.5,0,0-23.2-16.4-44.8.7,0,0,14.2-7.1,21.2-4.8,0,0-10.8-2.1-19.4,10.4,0,0,25.8-11.7,35.1-5,0,0-28.3-8.7-43.1,29.1s.3.8.3.8,20.2-38.3,47.9-24.9c0,0-23.4-11.1-40.9,18.7,0,0,19.1-23.3,39.8-14.2,0,0-19.3-5.4-29.6,10.6,0,0-13.9,16.6-7.4,44.7,0,0-5-15.8-3.2-30.2,0,0-3.9,20.4-.9,26.9,0,0-3.5-11.8-3.8-19,0,0-6,6.3-3.9,13.3,0,0-1.5-7.5,3.2-22.4,0,0-5.6,13.9-6.5,20.2,0,0-3.7-5.1-.2-23l-3.1,20.1-1.2-6-.2,4.6-3.2-8.2.5,6-3.4-11.4,1.1,12,1.4-21.6-5.8,15.8s3.5-23,3.1-22.1-5,21.2-5,21.2,1.2-19,.7-17.9-3,17.1-3,17.1V605.6Z" transform="translate(-42 -291.5)" fill="#2d993b"/>
      <path d="M458.6,645.9s-9.9-68.7,57-50.5l10.6,98.7-9-.9s-2.8-28.3-3.8-26.1.2,23.7.2,23.7-2.8-28.3-3.8-24.7-.1,22.9-.1,22.9l-6.6-28.8-.7,19.9-5.2-13.2-.4,7.9-3.8-10.6-.9,7.7-4.3-8.1-2.3,7.7L484,660.7l-1.5,4.7-4-11.4-2.9,6.1-4.9-11.1-.4,5.2-3.4-5.7v5.5s-3.6-13.8-4.3-12.2-.1,8.7-.1,8.7Z" transform="translate(-42 -291.5)" fill="#2d993b"/>
      <path d="M267.6,521.1s-34.9,13.8-52.1,60.3-25.6,38.4-31.9,37.5S157.9,606,157.9,606s8.9,21.1,33.4,20.5c0,0-3.7,3.6-11.4,1.3,0,0,11.7,9.6,22.7,3.3,0,0-7.7,9.2-14.9,5.8,0,0,14.6,7.6,21,1.2a13.3,13.3,0,0,1-14.6,3.9s21.1,18.1,32.2-9.7c0,0-2.6,19.7-14,19.6,0,0,11,5.2,22.7-20.9,0,0-1.8,32.2-24.5,24.8,0,0,18,11.9,27-14.2s24.7-82,54.6-95.5c0,0-19.7,8.9-32.4,25.8,0,0,18.2-29.8,33.6-32.6,0,0-16.3,3.1-21.3,9.4l18.8-14-19.9,12.1,15.5-15.6-23.1,17.4,18.4-18.9L261,543.6l18.5-14.8-19.9,12.1,18.5-14.8-23.2,13.3,19.3-16.5s-15.4,8.2-25.7,22.9C248.5,545.8,254,534.2,267.6,521.1Z" transform="translate(-42 -291.5)" fill="#2d993b"/>
      <path d="M239.2,554s-15.2,15-29,57-.6,1.2-.6,1.2-4.9,12.4-9.5,13.7c0,0,10.5-4.1,14.8-10.2l.9-1.6c3.3-7-7.5,20.2-12.2,22.5,0,0,12.8-11.1,17.7-24.5,0,0,.2,18.8-9.2,28,0,0,9.8-10,12.6-23.4a43.2,43.2,0,0,1-6.2,23.8s6.5-10.6,15.8-37.5,19.1-35,28.5-44.2c0,0-26.7,23.3-32.8,44.7,0,0,0-19.2,15.3-38.8,0,0-15,15.6-20.3,35.4,0,0,5.8-35.7,30.5-54.8,0,0-13.5,7.2-27.3,34.1Z" transform="translate(-42 -291.5)" fill="#24732e"/>
      <path d="M320,557.4s-53.1,28.9-49.7,84.7,3.5,40.6-.9,42.5-.6,1.2-.6,1.2l-6.5,1s78.5,27.6,115.1,19.6c0,0-48.9-22.7-45.7-70.2s21.8-52.4,21.8-52.4-19.4,2.6-29.4,49.2l-.4,1.9s5.6-36.3,21.7-55.5c0,0-26,24.7-28.3,68.9v1.6s-1-49,24.8-73.7c0,0-18.7,13.9-26.7,40.4,0,0,9.7-35.4,21.1-45.6,0,0-18.9,23.9-23.7,38.3,0,0,14.3-36.7,21.4-43,0,0-11.4,14-18.2,25.8l-.7,1.2c-6.7,12,6.8-26.1,15.9-30.4,0,0-38.2,42.1-28.4,30,1.2-1.5,22.4-31.3,23.4-33.4,0,0-18.7,15.9-27.9,32.3C298.1,592,300.8,574.6,320,557.4Z" transform="translate(-42 -291.5)" fill="#2d993b"/>
      <path d="M298.4,590.2a58.1,58.1,0,0,0-8.1,10.3,72.6,72.6,0,0,0-5.9,11.6,78.1,78.1,0,0,0-5.6,25.2,83.3,83.3,0,0,0,.2,13c.1,2.2.5,4.3.8,6.5s.4,2.1.6,3.2.4,2.1.6,3.2c.8,4.3,2.1,8.4,3.3,12.7a39.4,39.4,0,0,1,1.1,6.5,16.6,16.6,0,0,1-.1,3.3,5.8,5.8,0,0,1-1.3,3,5.7,5.7,0,0,0,1-3.1,16.5,16.5,0,0,0-.1-3.2,38.6,38.6,0,0,0-1.5-6.3,128.4,128.4,0,0,1-3.9-12.6,90.9,90.9,0,0,1-2.3-13,82.3,82.3,0,0,1-.4-13.3,78.4,78.4,0,0,1,1.9-13.1,70.6,70.6,0,0,1,4.2-12.6,62.6,62.6,0,0,1,10.7-16.6A39.7,39.7,0,0,1,298.4,590.2Z" transform="translate(-42 -291.5)" fill="#24732e"/>
      <path d="M300.4,595.6a47.3,47.3,0,0,0-7.4,11,61.2,61.2,0,0,0-4.6,12.4,73.3,73.3,0,0,0-1.7,26.2,106.4,106.4,0,0,0,6.3,25.7,68,68,0,0,1,3.1,13,23.1,23.1,0,0,1-.1,6.7,7.8,7.8,0,0,1-1.2,3.1,4.5,4.5,0,0,1-2.7,1.8,4.4,4.4,0,0,0,2.6-1.9,7.6,7.6,0,0,0,1.1-3.1,22.7,22.7,0,0,0-.2-6.6,67.9,67.9,0,0,0-3.4-12.8c-.8-2.1-1.5-4.2-2.2-6.3s-1.3-4.2-1.9-6.4a90.4,90.4,0,0,1-2.5-13.1,72.4,72.4,0,0,1,1.9-26.5C290.1,610.2,294.1,601.9,300.4,595.6Z" transform="translate(-42 -291.5)" fill="#24732e"/>
      <path d="M318.8,578.1s-42,41.8-20.6,87.3c0,0,13.5,28.1,9.3,33.7a21.7,21.7,0,0,0,4-14.8s11.4,16.5,10.8,17.8-21.4-37-20.8-55.4S303.1,609.1,318.8,578.1Z" transform="translate(-42 -291.5)" fill="#24732e"/>
      <path d="M314,599s-25,44.3,13.8,100.1C327.8,699.1,300,654.1,314,599Z" transform="translate(-42 -291.5)" fill="#24732e"/>
      <path d="M315.3,623.9s-14.8,42,35.9,81.2C351.2,705.1,313.2,678.5,315.3,623.9Z" transform="translate(-42 -291.5)" fill="#24732e"/>
      <path d="M321.4,638.9s.1.6.2,1.8c1.4,9.2,9.3,51.3,43,62.7C364.6,703.4,333.9,688.3,321.4,638.9Z" transform="translate(-42 -291.5)" fill="#24732e"/>
      <path d="M116,529.5l.7.8c3.2,3.3,17.8,15.2,46.8-10,33.2-28.8,48.7-40.3,48.7-40.3s-16.8,19.7-16.7,23.8l27.7-17.2s-22.7,23.7-25.8,27.5c0,0,27.7-18.6,32.8-19.5,0,0-65.4,76.9-73.9,74.9s-11,9-28.3-12.8" transform="translate(-42 -291.5)" fill="#2d993b"/>
      <path d="M128.2,540.7s18.5,9.4,51.6-23.5l-25.4,25.1,36.9-31-24.2,28.3,26-20.7L163,551.1l48-35.9s-43.8,52.7-58.1,48.7-20.1-10.2-25.5-21.5" transform="translate(-42 -291.5)" fill="#24732e"/>
      <path d="M54.7,368.4S67.9,396.2,82.1,413s5.1,34.8,10.8,46.9c0,0,25,8.5,43.6-2.3,0,0-19.6,15.7-42.7,6.1,0,0,4.9,12.4,56.4.4,0,0-35.4,14.9-52.7,10.1s-.5,1.1-.5,1.1,30.7,7.8,45.6,3.4c0,0-35.2,8.9-40.2,5.2,0,0,12.8,12.8,66.2-14.5l15.1-7.8c30-15.6,0-1.3,0-1.3l-19,5.9,15.9-8-21.9,7.8,19.4-11-15.5,2.8,10.5-3.8-16.3,3.1,13.8-4.9-28.9,9.9,25.9-12s-40.5,5.8-47.3,5.9l41.8-9.9-12-1.6,4.3-3.4-7.3,1.2s4.8-5.8,2.6-5.5-13.9-.5-13.9-.5l7.3-2.6-21.2.7,17.9-3.7-17.2.6,12.5-2.2-17.7-1,15.2-2.2-15-1,6.5-2.3" transform="translate(-42 -291.5)" fill="#2d993b"/>
      <path d="M97.7,440s32.6,6.7,41,4.6l-39.3,9,11.1-4.9Z" transform="translate(-42 -291.5)" fill="#24732e"/>
      <path d="M411.1,628.1s-47.6,3.8-42.9,32.3,32.6,43.7,35.8,43.9c0,0-24.7-10.4-24.3-29.7,0,0,26.2,28.6,30.6,29.3s-.8,1.7-.8,1.7-25-21.3-19.6-35.6c0,0,6.3,15.1,15.7,22.3,0,0-10.1-11.5-6.9-18.1,0,0,17.2,25,29.2,29.4,0,0-15.6-13.7-13.1-23.3l.3-.9c3.9-9.6-1.8,6.6,9.8,13.4,0,0-11-22.4.8-25.2l1.1-.2c13.6-1.7-16.5,6.3,13.4,27.2,0,0-20-18.9-.7-21.2a221.1,221.1,0,0,1,35.7-1.3s-35.9-8.2-40.4-2.9l28.8-5.2H446.7l12.7-4.1L442,658.3l11.1-3.5H437.5l11.6-4.6-17.9,3.7s15.9-6.6,13.8-6.3l-20.7,2.3,11.9-5.2-20.6,6.4,19.2-9.1-20.8,7,15.9-9.3s-32.4.2-27,10.1c0,0-10.1-33,23.7-13,22.6,13.4-19.6-1.2-19.6-1.2l16.5-3.6-27.6,7.1Z" transform="translate(-42 -291.5)" fill="#2d993b"/>
      <path d="M395.3,615.9a81.7,81.7,0,0,0-11.5,8,70,70,0,0,0-9.9,9.8,49.7,49.7,0,0,0-7.3,11.8,35.5,35.5,0,0,0-3,13.4,38.4,38.4,0,0,0,2.3,13.6,53.4,53.4,0,0,0,2.9,6.3l.8,1.5.4.8.5.7,1.9,2.9a33.8,33.8,0,0,0,2.1,2.8l2.1,2.8,4.7,5.2,5,4.9,5.3,4.7c-7.3-5.8-14.3-12.2-19.8-19.9l-2-2.9-.5-.7-.4-.8-.9-1.6a54.2,54.2,0,0,1-3-6.4,39.2,39.2,0,0,1-2.4-13.9,36.4,36.4,0,0,1,3.1-13.8,47.8,47.8,0,0,1,7.6-11.9A74.4,74.4,0,0,1,395.3,615.9Z" transform="translate(-42 -291.5)" fill="#24732e"/>
      <path d="M374,603.9a77.5,77.5,0,0,0-8.4,12.5,81.3,81.3,0,0,0-6.1,13.7,70.3,70.3,0,0,0-3.2,14.6,61.3,61.3,0,0,0,.3,14.9,59.5,59.5,0,0,0,3.8,14.5l.7,1.7.8,1.7c.5,1.1,1,2.3,1.6,3.4s2.4,4.4,3.8,6.5a109.2,109.2,0,0,0,20,22.5l-5.7-4.9c-1.8-1.8-3.7-3.5-5.4-5.3a92.9,92.9,0,0,1-9.5-11.8c-.7-1.1-1.5-2.1-2.1-3.2l-1.9-3.3c-.6-1.1-1.1-2.3-1.7-3.4l-.8-1.7-.7-1.8a60.3,60.3,0,0,1-3.9-14.7,64.2,64.2,0,0,1,3.2-30A78.6,78.6,0,0,1,374,603.9Z" transform="translate(-42 -291.5)" fill="#24732e"/>
      <path d="M359.3,592.2a87.8,87.8,0,0,0-7.5,14.3,94.9,94.9,0,0,0-5.1,15.3,77.4,77.4,0,0,0-1.1,31.9c.3,1.3.5,2.6.8,3.9l1,3.9a75.2,75.2,0,0,0,2.8,7.5c1,2.5,2.3,4.8,3.5,7.2l2.1,3.4,1,1.7,1.2,1.7A112.4,112.4,0,0,0,380,706.5l-6.3-5.1-3-2.7c-1-.9-2-1.8-2.9-2.8s-3.8-3.8-5.5-6l-2.6-3.1-2.4-3.3-1.2-1.6-1.1-1.7-2.1-3.5c-1.2-2.4-2.6-4.8-3.6-7.3a76.1,76.1,0,0,1-2.8-7.6l-1.1-3.9c-.4-1.3-.5-2.7-.8-4a76.9,76.9,0,0,1,1.4-32.3A90.3,90.3,0,0,1,359.3,592.2Z" transform="translate(-42 -291.5)" fill="#24732e"/>
      <path d="M356.8,587.6s-41.8,44.2-10.9,88.5c0,0-19.1-50.8,10.3-80.1,0,0-12.2,40.1-5.6,54.6,0,0,1.7-46.4,22.6-53.4,0,0-9,.5-13.5,5.7l3.5-14.5Z" transform="translate(-42 -291.5)" fill="#83d98c"/>
      <path d="M312.7,552.6s-47.5,22-50.5,75.2-2.6,56.7-21.6,47.1l-18.8-10.2s21.6,17,28.2,5.9-4.7-54.1,13.9-76.3S284.6,566.2,312.7,552.6Z" transform="translate(-42 -291.5)" fill="#83d98c"/>
      <path d="M308.8,550.7a138.3,138.3,0,0,0-20.6,11.6,130.8,130.8,0,0,0-18.4,14.8,104.2,104.2,0,0,0-8,8.7,85.7,85.7,0,0,0-6.9,9.5c-1,1.7-2,3.4-2.9,5.1l-1.3,2.6-1.2,2.7a28.7,28.7,0,0,0-1.1,2.7l-1,2.8-.8,2.8a26.7,26.7,0,0,0-.7,2.8l-.6,2.9c-.2,1-.3,1.9-.4,2.9s-.3,1.9-.3,2.9v2.9a101.9,101.9,0,0,0,.5,11.8c.6,7.9,1.3,15.7,2.1,23.5l.6,5.9c.1,1,.2,2,.2,3a2.4,2.4,0,0,1-.1.9.5.5,0,0,1-.5.3l-.3-.2-.3-.3-.9-1.2a13.8,13.8,0,0,0-4.1-4,9.2,9.2,0,0,0-2.7-1l-2.9-.8c-3.8-1.1-7.5-2.5-11.2-3.9s-7.3-3-10.8-4.7q5.4,2.4,10.9,4.5c3.7,1.4,7.4,2.7,11.2,3.7l2.9.7a9.8,9.8,0,0,1,2.8,1,14.4,14.4,0,0,1,4.4,4.1l.9,1.2.2.2s.1,0,0,0a.2.2,0,0,0-.2.1,2.6,2.6,0,0,0,0-.6c0-1-.2-1.9-.3-2.9l-.7-5.9c-.9-7.8-1.6-15.7-2.2-23.6a102.8,102.8,0,0,1-.5-11.9v-3c.1-1,.2-2,.3-3s.2-2,.4-2.9l.6-2.9a27.3,27.3,0,0,1,.7-2.9l.8-2.9,1-2.8a29.3,29.3,0,0,1,1.1-2.8l1.2-2.7,1.3-2.7c.9-1.8,1.9-3.5,2.9-5.2a86.6,86.6,0,0,1,7-9.6,95.1,95.1,0,0,1,8.1-8.7A130.5,130.5,0,0,1,288,561.9,138.6,138.6,0,0,1,308.8,550.7Z" transform="translate(-42 -291.5)" fill="#83d98c"/>
      <path d="M306.4,309.6s20.2,38.5-1.3,91.1-12.4,81.8-4.7,122.5,0,1.4,0,1.4-15.6-78.2,4-106.7S349,314.9,306.4,309.6Z" transform="translate(-42 -291.5)" fill="#83d98c"/>
      <path d="M297.6,308.1a41.3,41.3,0,0,1,6.9,12,63.4,63.4,0,0,1,3.5,13.5,90.7,90.7,0,0,1-.5,27.8,119.7,119.7,0,0,1-3,13.6c-1.2,4.5-2.7,8.9-4.1,13.3-2.8,8.9-5.4,17.8-7.5,26.9-4.3,18-7.1,36.7-5.7,55.2a126.9,126.9,0,0,0,1.9,13.8c.8,4.6,2.1,9,3.3,13.5s2.3,9,3.4,13.5q.8,3.4,1.4,6.8c.2,1.1.4,2.3.6,3.4s.2,1.2.2,1.7a8.3,8.3,0,0,1,.1,1.8v.8l-.3-.7c-4.1-9.8-7.8-19.8-11-30a257.1,257.1,0,0,1-7.8-31,165.4,165.4,0,0,1-2.9-31.8,104.2,104.2,0,0,1,1.4-15.9,69.7,69.7,0,0,1,1.8-7.8,37.9,37.9,0,0,1,2.9-7.4h0c5.4-15.7,10.4-31.5,13.5-47.8.7-4.1,1.4-8.2,1.8-12.3a89.8,89.8,0,0,0,.5-12.4,43.1,43.1,0,0,0-2-12.2,19.6,19.6,0,0,0-2.9-5.5,9.2,9.2,0,0,0-5-3.5,9.2,9.2,0,0,1,5,3.5,19.6,19.6,0,0,1,2.9,5.5,43.1,43.1,0,0,1,2,12.2,89.9,89.9,0,0,1-.5,12.4c-.4,4.1-1.1,8.2-1.8,12.3-3.1,16.3-8,32.2-13.4,47.9h0a37.7,37.7,0,0,0-2.9,7.4,69.5,69.5,0,0,0-1.7,7.8,104,104,0,0,0-1.3,15.9,165.1,165.1,0,0,0,3,31.7,256.7,256.7,0,0,0,7.8,30.9c3.2,10.1,6.9,20.1,11,29.9h-.4a9.4,9.4,0,0,0-.1-1.7c-.1-.6-.1-1.1-.2-1.7s-.4-2.3-.6-3.4-.9-4.5-1.4-6.8c-1-4.5-2.1-9-3.3-13.6s-2.4-9-3.2-13.6a127.2,127.2,0,0,1-1.8-13.8,146.4,146.4,0,0,1,.7-27.9,232.5,232.5,0,0,1,5.1-27.4c2.2-9,4.8-18,7.6-26.9,1.4-4.4,2.9-8.8,4.1-13.3a119.6,119.6,0,0,0,3-13.6,90.7,90.7,0,0,0,.5-27.8,63.4,63.4,0,0,0-3.5-13.5A41.3,41.3,0,0,0,297.6,308.1Z" transform="translate(-42 -291.5)" fill="#2d993b"/>
      <path d="M304.1,328.7s-4.3,41.8-23.4,90.7c0,0-4.8,3.1,2.3,43.6" transform="translate(-42 -291.5)" fill="none" stroke="#83d98c" stroke-miterlimit="10"/>
      <path d="M426.3,369.7a31.2,31.2,0,0,1,1,13.9,45.1,45.1,0,0,1-4.2,13.4l-1.7,3.1-1.9,3-1,1.5-1.1,1.4-2.2,2.7-1.2,1.3-1.2,1.3-2.4,2.5-5.3,4.6,5-4.9,2.3-2.6,1.2-1.3,1.1-1.3,2.1-2.8,1-1.4.9-1.5,1.8-2.9,1.6-3.1a46.9,46.9,0,0,0,4.3-13.1,30.7,30.7,0,0,0,.4-3.4c0-.6.1-1.2.1-1.7v-1.7A29,29,0,0,0,426.3,369.7Z" transform="translate(-42 -291.5)" fill="#24732e"/>
      <path d="M433.8,378a6.7,6.7,0,0,1,2.1,3.7,19.2,19.2,0,0,1,.2,2.2c0,.7,0,1.5-.1,2.2a25.7,25.7,0,0,1-1,4.3l-.7,2.1-.9,2-.9,2-1,1.9c-.7,1.3-1.3,2.6-2.2,3.8l-2.4,3.7c-.8,1.2-1.7,2.4-2.5,3.6L422,413l-2.8,3.4-2.8,3.4-2.9,3.2c-3.9,4.3-8.1,8.4-12.2,12.4l5.9-6.4c2-2.1,3.9-4.3,5.8-6.5l2.9-3.3,2.7-3.4,2.7-3.4,2.6-3.5a83.5,83.5,0,0,0,9.1-14.7l.9-2,.7-2a25.9,25.9,0,0,0,1.1-4.2c.1-.7.1-1.4.2-2.1a19,19,0,0,0-.1-2.1A6.8,6.8,0,0,0,433.8,378Z" transform="translate(-42 -291.5)" fill="#24732e"/>
      <path d="M439.9,382.2a7.7,7.7,0,0,1,1.3,2.4,12.6,12.6,0,0,1,.4,1.3l.2,1.4a6.6,6.6,0,0,1,.1,1.4V390a26.9,26.9,0,0,1-.2,2.7,15.9,15.9,0,0,1-.5,2.7l-.3,1.3a7.8,7.8,0,0,1-.4,1.3l-.9,2.6-.5,1.3-.6,1.2-1.2,2.5a20.5,20.5,0,0,1-1.3,2.4l-2.8,4.7-3.2,4.5-1.6,2.2-1.7,2.1-3.5,4.2c-1.2,1.4-2.4,2.7-3.7,4.1l-3.7,4c-1.2,1.3-2.6,2.6-3.9,3.8s-5.2,5.1-7.9,7.5l-8.2,7.2c5.2-5.1,10.6-10,15.6-15.2l3.8-3.9,3.7-4c1.2-1.4,2.5-2.7,3.6-4.1l3.4-4.2,1.7-2.1,1.6-2.2,3.2-4.4,2.8-4.6.7-1.2.6-1.2,1.2-2.4.6-1.2.5-1.3,1-2.5a7.6,7.6,0,0,0,.4-1.3l.4-1.3a16.3,16.3,0,0,0,.6-2.6,26.6,26.6,0,0,0,.3-2.7v-1.3a6.4,6.4,0,0,0-.1-1.3l-.2-1.3a13,13,0,0,0-.3-1.3A7.6,7.6,0,0,0,439.9,382.2Z" transform="translate(-42 -291.5)" fill="#24732e"/>
      <path d="M462.9,413.4s18.1,18.7-40,53.2-51.5,39-57.9,95.3" transform="translate(-42 -291.5)" fill="none" stroke="#83d98c" stroke-miterlimit="10"/>
      <path d="M473.9,430s13.9,24.8-57.8,49.5c0,0-51.9,7.1-47.6,94.8" transform="translate(-42 -291.5)" fill="none" stroke="#83d98c" stroke-miterlimit="10"/>
      <path d="M425.7,415.3c-5.4,5.1-10.8,10.2-16.1,15.4s-10.6,10.4-15.7,15.8S383.7,457.3,379,463c-2.4,2.8-4.7,5.7-6.8,8.8a48.2,48.2,0,0,0-5.4,9.5,7.8,7.8,0,0,0-.4,1.2c-.1.4-.3.8-.3,1.3l-.2,1.2c-.1.4-.1.9-.2,1.4a28.1,28.1,0,0,1-1.1,5.7,99.4,99.4,0,0,1-4.2,10.5,82.6,82.6,0,0,0-6.2,21.1l-.4,2.7-.3,2.8c-.2,1.8-.4,3.7-.4,5.5l-.2,5.5v5.6c0,.9,0,1.9.1,2.8l.2,2.8.4,5.6,1.2,11.1c-.6-3.7-1.2-7.3-1.7-11l-.6-5.6-.3-2.8c-.1-.9-.1-1.9-.2-2.8l-.3-5.6v-5.6c0-1.9.2-3.7.3-5.6l.2-2.8.4-2.8a78.6,78.6,0,0,1,6.1-21.6,98.2,98.2,0,0,0,4-10.3,26.2,26.2,0,0,0,1-5.3v-1.4l.2-1.5c.1-.5.3-1,.4-1.4a8.5,8.5,0,0,1,.5-1.4,49.9,49.9,0,0,1,5.7-9.8c2.2-3.1,4.5-6,6.9-8.8s4.9-5.6,7.4-8.4,5.1-5.4,7.8-8q7.9-7.9,16.1-15.4C414.4,425,420,420,425.7,415.3Z" transform="translate(-42 -291.5)" fill="#24732e"/>
      <path d="M404.4,604.4a127.8,127.8,0,0,1,4.3-37.8,81.9,81.9,0,0,1,7.1-17.8,54.9,54.9,0,0,1,11.8-15,44.4,44.4,0,0,1,16.8-9.2,54.2,54.2,0,0,1,9.4-1.8,66.1,66.1,0,0,1,9.6-.2,92.4,92.4,0,0,1,18.8,3.3,142.3,142.3,0,0,1,17.9,6.5,142,142,0,0,0-18.1-6.1,92.3,92.3,0,0,0-18.7-3,73,73,0,0,0-9.5.3,53.3,53.3,0,0,0-9.3,1.8,43.5,43.5,0,0,0-16.4,9,54,54,0,0,0-11.7,14.7,85.4,85.4,0,0,0-7.1,17.5,123.2,123.2,0,0,0-3.8,18.6A132.3,132.3,0,0,0,404.4,604.4Z" transform="translate(-42 -291.5)" fill="#24732e"/>
      <path d="M408.1,606.2a130.3,130.3,0,0,1,3.2-37.1,79.2,79.2,0,0,1,6.4-17.6,49.1,49.1,0,0,1,11.4-14.9,38.5,38.5,0,0,1,16.7-8.4,52,52,0,0,1,18.7-.5,91,91,0,0,1,18.1,4.7,144.6,144.6,0,0,1,17,7.7,156.1,156.1,0,0,0-17.1-7.2,90.8,90.8,0,0,0-18-4.4,52.9,52.9,0,0,0-18.4.6,37.6,37.6,0,0,0-16.3,8.2A48.1,48.1,0,0,0,418.6,552a82.6,82.6,0,0,0-6.4,17.3,123.3,123.3,0,0,0-3.2,18.3A141.5,141.5,0,0,0,408.1,606.2Z" transform="translate(-42 -291.5)" fill="#24732e"/>
      <path d="M411.7,609.4a149.6,149.6,0,0,1,4-37.1,86.4,86.4,0,0,1,6.2-17.7A47.1,47.1,0,0,1,433,539.5a32.1,32.1,0,0,1,8-5,31.5,31.5,0,0,1,9.1-2.4,45.2,45.2,0,0,1,18.6,2.2c12,3.8,22.7,10.6,32.6,18.1a166.2,166.2,0,0,0-15.8-10,88.3,88.3,0,0,0-17.1-7.4,45.7,45.7,0,0,0-18.3-2,30.4,30.4,0,0,0-16.6,7.3,46.2,46.2,0,0,0-11,14.7,90.6,90.6,0,0,0-6.3,17.5,142.8,142.8,0,0,0-3.4,18.3A165.9,165.9,0,0,0,411.7,609.4Z" transform="translate(-42 -291.5)" fill="#24732e"/>
      <path d="M414,614a132.1,132.1,0,0,1,5-34.4,76.9,76.9,0,0,1,6.7-16.2A43.8,43.8,0,0,1,437,550a31.1,31.1,0,0,1,16.3-6.3,44.6,44.6,0,0,1,17.3,2.2c11.2,3.6,21.2,9.8,30.5,16.8a153.9,153.9,0,0,0-14.8-9.2,83.5,83.5,0,0,0-15.9-6.8,45.3,45.3,0,0,0-17-2,30.1,30.1,0,0,0-15.8,6.2,42.8,42.8,0,0,0-11,13.1,80.6,80.6,0,0,0-6.7,15.9,125.8,125.8,0,0,0-3.9,16.9A146,146,0,0,0,414,614Z" transform="translate(-42 -291.5)" fill="#24732e"/>
      <path d="M460.9,662.5s-65.2,8.2-4.8,41.5l66.6-8.2Z" transform="translate(-42 -291.5)" fill="#2d993b"/>
      <path d="M302.5,561.2l-1.6,1.1c-8.4,6.2-47.6,37.8-42.7,81,5.4,48.4-2.1,31.4-2.1,31.4l3.9,4.6S249.8,608.4,302.5,561.2Z" transform="translate(-42 -291.5)" fill="#24732e"/>
      <path d="M239.1,501.5s-38.6,31.6-69.4,68.3c0,0-12.2,15.8-28.7,9.3,0,0,27.1,19.6,54.9-17.8S239.1,501.5,239.1,501.5Z" transform="translate(-42 -291.5)" fill="#83d98c"/>
      <path d="M253.8,511.9s-27.3,12-64.1,72.8c0,0-12.3,23.1-33.8,13,0,0,20.3,19.7,35.4.6s30.8-63.6,73.2-80.6c0,0-12.4-7.9-56.8,45.9S253.8,511.9,253.8,511.9Z" transform="translate(-42 -291.5)" fill="#83d98c"/>
      <path d="M143.3,585.6a15.4,15.4,0,0,0,6.6,6.5,13.7,13.7,0,0,0,4.4,1.4l2.3.2,2.3-.2a28.6,28.6,0,0,0,8.8-2.8,56.4,56.4,0,0,0,7.9-5,111.7,111.7,0,0,0,13.8-12.6c4.3-4.6,8.3-9.4,12.2-14.3s7.6-10,11.4-15,7.6-10,11.5-15,7.8-9.8,11.9-14.6c2.1-2.4,4.2-4.7,6.5-6.9l1.8-1.5a5.5,5.5,0,0,1,2.1-1.1,1.4,1.4,0,0,1,1.1.3,5.3,5.3,0,0,1,.8.9,3.4,3.4,0,0,0,.8.8,2,2,0,0,0,1.1.3,2,2,0,0,1-1.1-.3,3.5,3.5,0,0,1-.8-.8l-.8-.9a1.3,1.3,0,0,0-1.1-.2,5.3,5.3,0,0,0-2,1.1l-1.7,1.6c-2.2,2.2-4.2,4.6-6.2,7-4,4.8-7.9,9.8-11.7,14.8l-11.4,15c-3.8,5-7.5,10.1-11.3,15.1-7.8,9.8-16.1,19.4-26.3,27a57.1,57.1,0,0,1-8.1,4.9A28.9,28.9,0,0,1,159,594h-2.4l-2.4-.2a14,14,0,0,1-4.5-1.5A15.5,15.5,0,0,1,143.3,585.6Z" transform="translate(-42 -291.5)" fill="#83d98c"/>
      <path d="M98.2,488.7s3.5,31,87.3-19.9C185.5,468.9,123,529.3,98.2,488.7Z" transform="translate(-42 -291.5)" fill="#83d98c"/>
      <path d="M196.6,472.1s-58.6,58.7-92.4,30.6C104.2,502.7,115.6,547,196.6,472.1Z" transform="translate(-42 -291.5)" fill="#83d98c"/>
      <path d="M109.6,514.9s10.3,32.7,51.9-2.7S207.9,478,207.9,478" transform="translate(-42 -291.5)" fill="none" stroke="#83d98c" stroke-miterlimit="10"/>
    </g>
    <path d="M501.3,687.5s50.8,60.2,70.4,69.2c0,0,9.2,5.8,12.2-8.4s-35.2-25-81.4-68.1S501.3,687.5,501.3,687.5Z" transform="translate(-42 -291.5)" fill="#24732e"/>
  </g>
</svg>
