<svg id="l3" xmlns="http://www.w3.org/2000/svg" viewBox="0 0 739.4 368.7">
  <title>l3</title>
  <g>
    <path d="M479.5,570.5l5.7,10.8,16.8-30,7.6,7.8,18.3-19.2,6,8.2,16.8-34.3,7.3,6.2,12.9-28.4,6.6,2.9,15.8-35,13.8-3.7s24.5-54.7,27.4-69.9,22.1-70.5,32.2-83.7S780.5,245,780.5,245l-19.2-14-83.4,51.6S557.5,263.2,549.6,258s1.7,8.2,1.7,8.2L486,240.5l6,12.4-47.4-9.8v12.8l-40.2-12.2,3.4,7.9-25.7-4.1,2.7,8.8h-24l-1.3,6.3-32.8,6.8-.6,9.5-30.6,1.2,6.3,5.5-24.9,12,3.7,9.5-27.5,7.4,9.6,9.1-21.4.2,6.3,9.8-28.5,11.1,7.6,3.6-20.6,12,2.7,8.8-19.9,19.6L201,388l-18.6,13.3,6.3,9.8-25.8,24.2,9.2,3.2-18.6,21.8,6.3,1.3-24.1,28.1,10.8-1.4-39.9,22,.4,5.9L41.1,532.6l72.7,8,7.3,10.5,35.5,2-1.8,15.8,42-7.9,1.7,8.2,29.9,4v8.5L264.2,564l-6.4,22.7,32.5-4.2,1.4,6.6,29.2-7.8,2.4,15.8,25.9-11.4,2.1,14.1L378.7,588l5.7,10.8,27.5-16,10.6,14,22.9-17.6,15.2,7.1Z" transform="translate(-41.1 -231)" fill="#4bc562"/>
    <path d="M291.9,580,341,557.3l49.2-22.6h-.1l31.7-35.6,31.8-35.5h0l35.1-49.3L506.2,390l17.6-24.6-17.3,24.8L489.1,415l-34.9,49.4h0L422.5,500l-31.8,35.4h-.1l-49.3,22.4Z" transform="translate(-41.1 -231)" fill="#29953f"/>
    <path d="M277.3,577.9c4.6-1.7,9-3.8,13.4-5.8l13.3-6L330.8,554,384,529.6h-.1c11.6-14,23.2-28,34.9-42l35-41.9h0l25.5-38,25.7-37.9-25.2,38.2-25.4,38.1h0l-34.8,42c-11.6,14-23.3,27.9-35,41.9h-.1L331,554.5l-26.7,11.9-13.4,5.9C286.4,574.2,281.9,576.3,277.3,577.9Z" transform="translate(-41.1 -231)" fill="#80d68f"/>
    <path d="M341.1,542.2a9.8,9.8,0,0,0,3.5-.1,23.9,23.9,0,0,0,3.4-.9,43.7,43.7,0,0,0,6.5-2.8,90.6,90.6,0,0,0,11.9-7.5,203.2,203.2,0,0,0,21.3-18.4,504.3,504.3,0,0,0,37.7-41.9c11.9-14.5,23.3-29.5,34.3-44.7,2.8-3.8,5.5-7.6,8.2-11.4l8.1-11.5c5.5-7.7,10.7-15.4,16.1-23.2-5.2,7.8-10.3,15.7-15.7,23.5l-8,11.6c-2.7,3.8-5.4,7.7-8.1,11.5q-16.4,22.9-34.2,44.9c-11.9,14.5-24.4,28.7-37.9,41.8a202.4,202.4,0,0,1-21.6,18.2,90.9,90.9,0,0,1-12,7.4,43.8,43.8,0,0,1-6.5,2.7,24,24,0,0,1-3.4.8A9.9,9.9,0,0,1,341.1,542.2Z" transform="translate(-41.1 -231)" fill="#29953f"/>
    <path d="M307.2,551.8a60.6,60.6,0,0,0,7.3-2.1l3.6-1.3,3.5-1.4a148.9,148.9,0,0,0,13.6-6.5,207.5,207.5,0,0,0,25.4-16.2,293.9,293.9,0,0,0,23.3-19.2c7.4-6.8,14.5-14,21.3-21.3a479.2,479.2,0,0,0,37.8-47l8.6-12.4,8.2-12.7,8-12.8,7.7-13L468,399l-7.8,13-8.1,12.8-8.5,12.5a465.3,465.3,0,0,1-37.7,47.3c-6.9,7.4-14,14.5-21.5,21.3A274.8,274.8,0,0,1,361,524.9a206.8,206.8,0,0,1-25.6,16,149.2,149.2,0,0,1-13.7,6.3l-3.5,1.3-3.6,1.2A60.7,60.7,0,0,1,307.2,551.8Z" transform="translate(-41.1 -231)" fill="#80d68f"/>
    <path d="M381.5,498.5a10.5,10.5,0,0,0,3.3-2l1.5-1.2,1.4-1.3c.9-.9,1.8-1.8,2.7-2.8l1.3-1.4,1.2-1.5,2.5-2.9,2.4-3c1.6-2,3.1-4.1,4.7-6.1q9.1-12.4,17.5-25.4l4.2-6.4,4.1-6.5,4.1-6.5,4-6.6c5.5-8.7,10.7-17.6,16.1-26.3l-7.6,13.4c-2.5,4.5-5.2,8.9-7.8,13.3l-4,6.6-4.1,6.6-4.1,6.5-4.2,6.5c-5.6,8.6-11.5,17.1-17.7,25.3-1.6,2-3.1,4.1-4.8,6.1l-2.4,3-2.6,2.9-1.3,1.4-1.3,1.4c-.9.9-1.8,1.9-2.8,2.7l-1.4,1.3-1.5,1.2A10.6,10.6,0,0,1,381.5,498.5Z" transform="translate(-41.1 -231)" fill="#80d68f"/>
    <path d="M426.5,491.3s71.8-85.2,91.8-123.1S458.3,455.8,426.5,491.3Z" transform="translate(-41.1 -231)" fill="#29953f" stroke="#29953f" stroke-miterlimit="10"/>
    <path d="M472.9,379.9a245,245,0,0,0-28.4-13,255.8,255.8,0,0,0-29.7-9.7c-20.1-5.3-41-8-61.7-6.5a131.2,131.2,0,0,0-30.5,5.8l-3.7,1.2-3.7,1.3-7.4,2.6-14.8,5.1c-9.9,3.3-19.8,6.6-29.7,9.8l-15,4.5c-5,1.4-10,2.9-15.2,3.9,2.5-.6,5-1.3,7.5-2.1l7.5-2.3,14.8-5q14.8-5,29.5-10.3l14.7-5.3,7.4-2.7,3.7-1.3,3.7-1.2a132.7,132.7,0,0,1,30.9-6,170.1,170.1,0,0,1,31.4.9,200.1,200.1,0,0,1,30.8,6.1A243.9,243.9,0,0,1,472.9,379.9Z" transform="translate(-41.1 -231)" fill="#29953f"/>
    <path d="M341,359.9s52.7-10.7,133.7,19.6" transform="translate(-41.1 -231)" fill="none" stroke="#29953f" stroke-miterlimit="10"/>
    <path d="M226.3,388.3s121.5-94.6,263.6-16.4" transform="translate(-41.1 -231)" fill="none" stroke="#29953f" stroke-miterlimit="10"/>
    <path d="M256.6,361.5c2.2-1.7,94.3-74.2,260.5,2.8" transform="translate(-41.1 -231)" fill="none" stroke="#29953f" stroke-miterlimit="10"/>
    <path d="M290.4,335.8s127.8-42.7,257.4,12.5" transform="translate(-41.1 -231)" fill="none" stroke="#29953f" stroke-miterlimit="10"/>
    <path d="M524.5,356.3s-70.2-25.8-89.9-28.1c0,0,62.9,6.2,109.6,20.8l-51.1-8Z" transform="translate(-41.1 -231)" fill="#29953f"/>
    <path d="M483.3,377.1,481,376c-14.3-7-92.8-44.2-136.8-31.5C344.2,344.5,443.3,339.3,483.3,377.1Z" transform="translate(-41.1 -231)" fill="#80d68f"/>
    <path d="M296.5,349.3a14.2,14.2,0,0,1,2.7-1.7l2.9-1.4,3-1.3,3-1.2c4.1-1.5,8.2-2.8,12.4-3.9a172.6,172.6,0,0,1,25.5-4.6,193.1,193.1,0,0,1,25.9-1l6.5.3,6.5.5,6.5.7,6.4.9a218.8,218.8,0,0,1,25.4,5.4l3.1.8,3.1.9,6.2,1.9,6.1,2.2,3.1,1.1,3,1.2,6,2.4,5.9,2.6c4,1.7,7.8,3.7,11.7,5.6l2.9,1.5,2.8,1.6,5.7,3.1,11.1,6.7-11.2-6.4-5.7-3-2.9-1.5-2.9-1.4c-3.9-1.9-7.8-3.8-11.7-5.5l-5.9-2.6-6-2.4-3-1.2-3.1-1.1-6.1-2.1-6.2-1.9-3.1-.9-3.1-.8a218.6,218.6,0,0,0-25.3-5.3l-6.4-.9-6.4-.7-6.5-.5-6.5-.3a205.6,205.6,0,0,0-25.8.8,173.2,173.2,0,0,0-25.5,4.3c-4.2,1-8.3,2.2-12.4,3.7l-3,1.1-3,1.2-2.9,1.4A14.1,14.1,0,0,0,296.5,349.3Z" transform="translate(-41.1 -231)" fill="#80d68f"/>
    <g>
      <path d="M213.6,373.6c12-8.6,25-15.6,38.2-22a353.5,353.5,0,0,1,41.1-16.1,369.4,369.4,0,0,1,42.7-11,360.9,360.9,0,0,1,43.7-5.9,374.2,374.2,0,0,1,44.1-.7l5.5.2,5.5.4,11,.8,11,1.3,5.5.6,5.5.8,10.9,1.7,5.4,1,5.4,1.1,5.4,1.1,2.7.5,2.7.6,10.7,2.6,5.3,1.4,5.3,1.6,10.6,3.1,5.2,1.7,5.2,1.8,10.4,3.6-10.5-3.4-5.2-1.7-5.3-1.6-10.6-3-5.3-1.5-5.4-1.3-10.7-2.6-2.7-.6-2.7-.5-5.4-1.1-5.4-1.1-5.4-1-10.9-1.7-5.4-.8-5.5-.6-10.9-1.2-11-.8-5.5-.4-5.5-.2a374.7,374.7,0,0,0-44,.8,360,360,0,0,0-43.7,5.7,368.6,368.6,0,0,0-42.7,10.8A355.7,355.7,0,0,0,252,352.1C238.7,358.3,225.6,365.2,213.6,373.6Z" transform="translate(-41.1 -231)" fill="#80d68f"/>
      <path d="M547.1,351a325,325,0,0,0-33.9-12.1c-11.5-3.4-23.1-6.5-34.9-8.8l-4.4-.9-4.4-.8-8.9-1.6-8.9-1.3-4.5-.6-4.5-.5c-11.9-1.5-23.9-2.1-35.9-2.5h9c3,0,6,.1,9,.3l9,.6,4.5.4,4.5.5c6,.5,11.9,1.5,17.9,2.3l8.9,1.5,4.4.8,4.4.9a358.5,358.5,0,0,1,34.9,9.1c5.7,1.8,11.4,3.8,17.1,5.8S541.7,348.4,547.1,351Z" transform="translate(-41.1 -231)" fill="#80d68f"/>
      <path d="M537.8,352.3c-6.1-2.3-12.3-4.3-18.5-6.3s-12.5-3.8-18.8-5.5-12.6-3.3-18.9-4.8-12.7-2.8-19.1-3.9a335,335,0,0,0-38.7-4.9,228.1,228.1,0,0,0-39,.6q9.7-1.3,19.5-1.6c6.5-.1,13.1-.1,19.6.3a318.9,318.9,0,0,1,38.9,4.7q19.3,3.6,38.1,9,9.4,2.7,18.7,5.8C525.6,347.6,531.7,349.8,537.8,352.3Z" transform="translate(-41.1 -231)" fill="#80d68f"/>
      <path d="M520.8,358.7l-25.6-8.3q-12.8-4.1-25.7-7.9c-8.6-2.5-17.2-5-25.9-7.2-4.3-1.1-8.7-2.1-13.1-3a74,74,0,0,0-13.2-1.7v-1c8.2,1.8,16.3,3.9,24.4,6s16.2,4.4,24.2,7,15.9,5.2,23.7,8.3a167.8,167.8,0,0,1,22.7,10.7,167.6,167.6,0,0,0-22.9-10.3c-7.8-3-15.8-5.6-23.8-8s-16.1-4.7-24.2-6.8-16.2-4.1-24.4-5.9l-4.6-1h4.6a71.7,71.7,0,0,1,13.4,1.7c4.4.9,8.8,1.9,13.1,3,8.7,2.2,17.3,4.7,25.9,7.3s17.1,5.4,25.6,8.2Z" transform="translate(-41.1 -231)" fill="#80d68f"/>
    </g>
    <path d="M344.8,431.2s-107.9-33.2-174.5,18.8" transform="translate(-41.1 -231)" fill="none" stroke="#80d68f" stroke-miterlimit="10"/>
    <path d="M204.1,425.5s121.2-46.7,223.4-28.6" transform="translate(-41.1 -231)" fill="none" stroke="#80d68f" stroke-miterlimit="10"/>
    <path d="M362.1,424.2s-64.4-13.1-83.5-8.7c0,0,38.9-6.4,71.8,1.7,0,0-42-10.5-60.2-9.7,0,0,86.3-12.9,128.1-7.4l-68,4.3s56.7,3.2,54.1,2.9-75.9,1.3-75.9,1.3,60.4,8.4,57.4,8.6-27.6-1.1-27.6-1.1l12.9,6.3-18.4-2.1,8.4,5.5" transform="translate(-41.1 -231)" fill="#29953f"/>
    <path d="M445,392.8s-81.4-31.4-162-13.3" transform="translate(-41.1 -231)" fill="none" stroke="#80d68f" stroke-miterlimit="10"/>
    <path d="M390.6,386.2s-124.9-22.3-213.4,45.8" transform="translate(-41.1 -231)" fill="none" stroke="#80d68f" stroke-miterlimit="10"/>
    <path d="M181.6,437c18.4-11.7,38.2-21,58.5-28.7a379.8,379.8,0,0,1,62.7-17.9q16.1-2.9,32.3-4.5l8.1-.6,4.1-.3h4.1l8.2-.3h8.2c2.7,0,5.4.1,8.2.2l4.1.2,4.1.2c5.4.4,10.9.8,16.3,1.5a314.7,314.7,0,0,1,32.1,5.6,314.4,314.4,0,0,0-32.2-5.1c-5.4-.7-10.8-1-16.2-1.4l-4.1-.2H376c-2.7-.1-5.4-.2-8.1-.2h-8.1l-8.1.3-4.1.2-4.1.3-8.1.6q-16.2,1.6-32.2,4.6a379,379,0,0,0-62.7,17.5q-15.3,5.7-30,12.7A280.8,280.8,0,0,0,181.6,437Z" transform="translate(-41.1 -231)" fill="#29953f"/>
    <path d="M215.5,432.9s63.1-15.3,128.4,4.1" transform="translate(-41.1 -231)" fill="none" stroke="#29953f" stroke-miterlimit="10"/>
    <path d="M167.9,469.8l2.7-1.2,2.8-.9,2.9-.8,2.9-.7a98.1,98.1,0,0,1,11.9-1.6c4-.4,8-.4,12-.4l6,.2,6,.4c4,.3,7.9.9,11.9,1.4l5.9,1,5.9,1.1,11.7,2.7,11.5,3.3-11.7-2.3-11.7-2.1L226.9,468c-3.9-.4-7.9-1-11.8-1.3a179.7,179.7,0,0,0-23.7-.7c-4,.1-7.9.5-11.8,1A55.8,55.8,0,0,0,167.9,469.8Z" transform="translate(-41.1 -231)" fill="#29953f"/>
    <path d="M179,461.5a59.9,59.9,0,0,1,7.1-4.1q3.7-1.8,7.5-3.4a119.9,119.9,0,0,1,15.6-5,139.5,139.5,0,0,1,16.1-3.1c5.4-.7,10.9-1.1,16.4-1.2s11,.1,16.4.5,10.9,1.1,16.3,2.1a188.6,188.6,0,0,1,31.7,8.3,258,258,0,0,0-31.9-6.8,195.2,195.2,0,0,0-32.4-2.1,165,165,0,0,0-32.2,3.8A136.9,136.9,0,0,0,194,455,92,92,0,0,0,179,461.5Z" transform="translate(-41.1 -231)" fill="#29953f"/>
    <path d="M283.8,469.2a62.7,62.7,0,0,0-7.5-3.9c-2.6-1.2-5.2-2.2-7.8-3.2a139.1,139.1,0,0,0-16.2-4.7l-4.1-.9-4.2-.8c-2.8-.6-5.6-.9-8.4-1.3l-4.2-.5-4.2-.4-8.4-.7,8.5.2,4.2.3,4.2.4c2.8.3,5.6.6,8.4,1.2l4.2.7,4.2.9a125.2,125.2,0,0,1,16.3,5A71.3,71.3,0,0,1,283.8,469.2Z" transform="translate(-41.1 -231)" fill="#29953f"/>
    <path d="M110.7,517.7c9.2-4.7,18.6-8.8,28.1-12.7s19.3-7.3,29.1-10.3c4.9-1.5,9.9-2.8,14.9-4s10.1-2.2,15.2-3c10.2-1.6,20.6-2.3,30.8-1a97.1,97.1,0,0,0-15.4-.1,135.7,135.7,0,0,0-15.3,1.8,243.4,243.4,0,0,0-29.9,7.2c-9.8,2.9-19.5,6.4-29.1,10.1l-14.3,5.8Q117.7,514.4,110.7,517.7Z" transform="translate(-41.1 -231)" fill="#80d68f"/>
    <path d="M158.1,489.2a256.5,256.5,0,0,1,27.8-11,267.1,267.1,0,0,1,28.9-7.9q7.3-1.6,14.7-2.6c4.9-.7,9.9-1.2,14.9-1.5s10-.4,15-.3,10,.6,14.9,1.2l-.2,1a129.5,129.5,0,0,0-14.5-3.6c-4.9-.9-9.9-1.7-14.9-2.2s-10-.8-15-1-10,0-15,.3-10,.8-14.9,1.5-9.9,1.7-14.8,2.8a165.8,165.8,0,0,0-28.5,9.5,166.1,166.1,0,0,1,28.4-10c4.9-1.2,9.8-2.2,14.8-3s10-1.3,15-1.6a178.7,178.7,0,0,1,30.1.6c5,.5,10,1.2,14.9,2.2a128.6,128.6,0,0,1,14.7,3.6l-.2,1c-4.9-.6-9.9-1.1-14.8-1.2s-9.9-.1-14.9.2a214.5,214.5,0,0,0-29.5,4,269,269,0,0,0-28.9,7.6A256.3,256.3,0,0,0,158.1,489.2Z" transform="translate(-41.1 -231)" fill="#80d68f"/>
    <path d="M287,461l-26.6-5.3-26.6-5.6-3.9-.8,4-.2c5.1-.2,10.1-.1,15.2-.1s10.1.3,15.2.7,10.1.9,15.1,1.8a100.2,100.2,0,0,1,14.8,3.5,110.1,110.1,0,0,0-14.8-3c-5-.7-10-1.1-15.1-1.5-10.1-.6-20.2-.8-30.3-.5v-1l26.5,5.8Z" transform="translate(-41.1 -231)" fill="#80d68f"/>
    <path d="M242.3,566.6c8.7-3.9,17.2-8.3,25.6-12.7s16.7-9.1,24.9-14a449.1,449.1,0,0,0,47.2-32c15-11.7,29.1-24.6,41.1-39.4a137.9,137.9,0,0,0,15.6-23.8,90.7,90.7,0,0,0,9-27,90.9,90.9,0,0,1-8.6,27.2,138,138,0,0,1-15.5,24A203.7,203.7,0,0,1,362.2,490c-6.9,6.6-14.2,12.8-21.7,18.7a435.4,435.4,0,0,1-47.4,31.9A495.1,495.1,0,0,1,242.3,566.6Z" transform="translate(-41.1 -231)" fill="#80d68f"/>
    <path d="M357.4,481.7a110.4,110.4,0,0,0,21.2-25,74.4,74.4,0,0,0,6.9-14.8,57.5,57.5,0,0,0,2-7.9,52,52,0,0,0,.7-8.1l.9.3q-6.5,9.7-13.2,19.3c-4.5,6.3-9.1,12.7-13.8,18.9s-9.5,12.4-14.5,18.4-10.1,11.8-15.6,17.4c5.4-5.7,10.3-11.7,15.2-17.7s9.6-12.3,14.2-18.5,9.2-12.6,13.7-18.9,8.9-12.8,13.2-19.2l.9-1.3v1.6a52.9,52.9,0,0,1-.8,8.3,58.4,58.4,0,0,1-2.1,8.1,71.9,71.9,0,0,1-7.2,14.9,97.9,97.9,0,0,1-9.9,13.2A105.5,105.5,0,0,1,357.4,481.7Z" transform="translate(-41.1 -231)" fill="#80d68f"/>
    <path d="M321.8,492.3a55.6,55.6,0,0,0,2.9-4.9l1.3-2.5,1.2-2.6a94.7,94.7,0,0,0,4.1-10.6,101.8,101.8,0,0,0,2.9-11c.8-3.7,1.3-7.5,1.9-11.2-.1,1.9-.2,3.8-.3,5.7s-.4,3.8-.8,5.7l-.5,2.8-.7,2.8-.3,1.4-.4,1.4-.8,2.8a81.3,81.3,0,0,1-4.3,10.6A51.2,51.2,0,0,1,321.8,492.3Z" transform="translate(-41.1 -231)" fill="#80d68f"/>
    <path d="M208,562.2a274.1,274.1,0,0,0,34-15.8,209.7,209.7,0,0,0,31.3-20.6c9.7-7.9,18.6-16.9,25-27.6a61.9,61.9,0,0,0,7.2-17.1,51.8,51.8,0,0,0,1.3-18.5h.9a92.2,92.2,0,0,1-4.6,13.1,117.7,117.7,0,0,1-22.6,34.5,110.8,110.8,0,0,1-10.1,9.4,107.2,107.2,0,0,1-11.3,8,114.5,114.5,0,0,1-25.1,11.2,114.3,114.3,0,0,0,24.9-11.6,120.5,120.5,0,0,0,11.1-8,110.2,110.2,0,0,0,10-9.4,117,117,0,0,0,22.3-34.4,91.5,91.5,0,0,0,4.5-12.9l.6-2.4.3,2.5a52.7,52.7,0,0,1-1.2,18.8,62.5,62.5,0,0,1-7.4,17.3c-6.6,10.8-15.6,19.8-25.4,27.6a210.3,210.3,0,0,1-31.5,20.5c-5.5,3-11.2,5.7-16.9,8.3S213.9,560.1,208,562.2Z" transform="translate(-41.1 -231)" fill="#80d68f"/>
    <path d="M161.3,554a79.7,79.7,0,0,0,10.3-.8c3.4-.5,6.8-1.1,10.2-1.9a145.4,145.4,0,0,0,19.8-5.9,170.6,170.6,0,0,0,36.5-19,204.1,204.1,0,0,0,16.4-12.5c5.2-4.5,10.2-9.2,15-14.2l3.6-3.7,3.4-3.9,1.7-1.9,1.6-2,3.3-4c2.2-2.7,4.2-5.4,6.4-8.2l6-8.4-5.8,8.6c-2.1,2.8-4,5.6-6.2,8.3l-3.2,4-1.6,2-1.7,2-3.4,3.9-3.5,3.8a196,196,0,0,1-15,14.3,204,204,0,0,1-16.4,12.7,167.5,167.5,0,0,1-36.8,18.9,144.6,144.6,0,0,1-19.9,5.6c-3.4.7-6.8,1.2-10.2,1.6A79.9,79.9,0,0,1,161.3,554Z" transform="translate(-41.1 -231)" fill="#80d68f"/>
    <path d="M348.8,569.5a88.6,88.6,0,0,0,22.1.5,118.7,118.7,0,0,0,21.7-4,138.3,138.3,0,0,0,39.9-18.6l4.5-3.1,4.4-3.3,4.3-3.5c1.4-1.1,2.8-2.4,4.2-3.6s2.8-2.4,4.1-3.7l4-3.8c1.3-1.3,2.6-2.6,3.8-4s2.6-2.6,3.8-4,4.9-5.5,7.2-8.4l3.5-4.3,3.4-4.4,6.7-8.8,6.6-8.9q26.7-35.3,51.9-71.7,12.7-18.1,25.1-36.5t24.6-36.8q-11.9,18.7-24.2,37.1t-24.9,36.6q-25.2,36.4-51.7,72L487,493l-6.8,8.8-3.4,4.4-3.5,4.3c-2.3,2.9-4.8,5.6-7.2,8.4s-2.5,2.7-3.8,4-2.5,2.7-3.9,4l-4,3.8c-1.3,1.3-2.8,2.5-4.1,3.7s-2.8,2.5-4.2,3.6l-4.3,3.5-4.5,3.3-4.6,3.1a138.5,138.5,0,0,1-40.1,18.5,119.1,119.1,0,0,1-21.8,3.8A88.7,88.7,0,0,1,348.8,569.5Z" transform="translate(-41.1 -231)" fill="#80d68f"/>
    <path d="M362.3,563.5l25.4-15.1,25.4-15,50.8-30h-.1l25.8-38.9q12.9-19.4,25.7-38.9c8.5-13,17-26,25.3-39.2l6.2-9.9,6.2-9.9,3.1-5,3-5c2-3.3,3.9-6.7,5.7-10.1-1.8,3.4-3.6,6.9-5.6,10.2l-2.9,5-3,5-6.1,10-6.2,9.9c-8.3,13.2-16.7,26.2-25.2,39.3s-17,26.1-25.5,39.1S473.1,491,464.4,504h-.1l-51,29.8-25.5,14.8Z" transform="translate(-41.1 -231)" fill="#80d68f"/>
    <path d="M450.2,502.1c4.8-5.2,9.4-10.6,14-16.1s9-10.9,13.4-16.5c8.7-11.2,17.1-22.6,24.9-34.5,3.9-5.9,7.7-11.9,11.3-18s7-12.3,10.1-18.7a210,210,0,0,0,8.6-19.4,155.7,155.7,0,0,0,6.4-20.3,155.9,155.9,0,0,1-5.9,20.5,208.5,208.5,0,0,1-8.4,19.6c-3.1,6.4-6.5,12.6-10,18.8s-7.3,12.2-11.2,18.1-8,11.7-12.2,17.5-8.5,11.4-12.9,16.9C469.3,481.1,460.1,491.9,450.2,502.1Z" transform="translate(-41.1 -231)" fill="#80d68f"/>
    <path d="M518.6,512.9c2.9-3.3,5.6-6.9,8.2-10.5l3.9-5.4,3.7-5.5c4.9-7.4,9.6-15,14-22.6s8.8-15.4,13-23.2l6.2-11.8c1-2,2-3.9,3-5.9l3-6c4-7.9,7.7-16,11.5-24,1.9-4,3.7-8.1,5.5-12.1l5.5-12.1,10.4-24.5,10-24.7,1.7.8q-16.9,33.3-35.3,65.7c-12.2,21.7-24.8,43.1-38,64.2s-27.1,41.7-42.2,61.6a354.9,354.9,0,0,1-24,28.6,183,183,0,0,1-13.4,12.9,85.5,85.5,0,0,1-15.2,10.7A85.4,85.4,0,0,0,465.1,558a182.6,182.6,0,0,0,13.2-13.1c8.4-9.1,16.1-18.9,23.6-28.8,14.9-19.9,28.5-40.7,41.6-61.8s25.7-42.6,37.8-64.2q9.1-16.3,17.9-32.7c5.9-10.9,11.7-21.9,17.4-33l1.7.8-10.1,24.7-10.5,24.5c-3.7,8.1-7.3,16.2-11.1,24.2s-7.6,16.1-11.7,24c-8,15.9-16.5,31.5-25.7,46.7-4.6,7.6-9.4,15.1-14.4,22.4l-3.8,5.5-3.9,5.4C524.3,506.1,521.6,509.6,518.6,512.9Z" transform="translate(-41.1 -231)" fill="#80d68f"/>
    <path d="M578.5,332.2c-7.4-3.8-15-7.2-22.6-10.5s-15.4-6.3-23.2-9.2a395.1,395.1,0,0,0-47.8-14.2c-8.1-1.8-16.3-3.4-24.5-4.6s-16.5-1.9-24.8-2.3a194.3,194.3,0,0,0-24.9.6,155.6,155.6,0,0,0-24.5,4.4,155.9,155.9,0,0,1,24.5-4.9,193.6,193.6,0,0,1,25-.9,262.6,262.6,0,0,1,49.5,6.6c8.1,1.8,16.2,4.1,24.1,6.5s15.9,5.1,23.7,8A386.3,386.3,0,0,1,578.5,332.2Z" transform="translate(-41.1 -231)" fill="#80d68f"/>
    <path d="M590.5,325.2c-6.1-2.9-12.3-5.4-18.5-7.9s-12.6-4.7-18.9-6.9q-19.1-6.4-38.6-11.3t-39.4-8.1c-6.6-1.1-13.3-2-19.9-2.8l-10-1-5-.4-5-.4a379.6,379.6,0,0,0-40.2-.8l-5,.2-5,.3-5,.3-5,.4-10,1-2.5.3-2.5.4-5,.7c-6.7.8-13.2,2.3-19.8,3.5l-9.8,2.3-4.9,1.2-4.8,1.4-9.7,2.8-9.5,3.2-4.8,1.6-4.7,1.8-9.3,3.7-3.8,1.5,3.3-2.3a84.1,84.1,0,0,1,9.3-5.6c3.2-1.7,6.5-3.2,9.8-4.7a199.7,199.7,0,0,1,20.3-7.5c6.9-2.2,13.9-3.9,20.9-5.5l10.6-2.1,5.3-.9,5.3-.8a347.6,347.6,0,0,1,43.1-3.2c14.4-.2,28.8.4,43.2,1.6a587.5,587.5,0,0,1,85.2,14.2,789.5,789.5,0,0,1,82.6,25.3A790.9,790.9,0,0,0,530,295.8a586.9,586.9,0,0,0-85.1-14c-14.3-1.1-28.7-1.7-43.1-1.5a346.8,346.8,0,0,0-43,3.3l-5.3.8-5.3.9-10.6,2.1c-7,1.6-14,3.3-20.8,5.5a198.7,198.7,0,0,0-20.2,7.5c-3.3,1.5-6.5,3-9.7,4.7a83.5,83.5,0,0,0-9.2,5.5l-.5-.8,9.4-3.7,4.7-1.8,4.8-1.6,9.6-3.2,9.7-2.8,4.9-1.4,4.9-1.1,9.8-2.3c6.6-1.2,13.2-2.6,19.9-3.4l5-.7,2.5-.4,2.5-.3,10-1,5-.4,5-.3,5-.3h5a380.3,380.3,0,0,1,40.3.8l5,.4,5,.4,10,1.1c6.7.9,13.3,1.7,19.9,2.9q19.9,3.3,39.4,8.2t38.6,11.5q9.5,3.3,18.9,7C578.3,319.8,584.5,322.3,590.5,325.2Z" transform="translate(-41.1 -231)" fill="#80d68f"/>
    <path d="M87.1,531.6s123.7-22.4,156.8-40.4,3.9-5.9,1.9-3-23.6,51.1-76.1,57.8c0,0,36.6,11.2,82.7-54.9l64.1-33.1s17.5,51.1-76.8,99.9c0,0,92-38.9,85.6-102.6L420,412.6s-26.6,86-138.8,147c0,0,125.4-59.5,149.3-150.1l97.2-46.8L445.6,486l-52.8,54.6-95.3,39.5,100.3-36.3s44-39.1,54.1-56.6,87-128.5,87-128.5l63.6-23.5s-89.2,142.7-100,152.6-25.5,58.4-96.2,88.5c0,0,48.6-.7,94.4-72.7S610,334.4,613.9,328.5s18.7-9,18.7-9S542,500.9,527.7,514.2s-39.5,32.2-39.5,32.2,47.8-25.4,76.3-77.5,68.2-145.1,80.9-158.1S677,286.3,677,286.3s-69.7-1.7-162.5-24.3-96.7-8.1-96.7-8.1,82,19.7,238.5,35.9l-30.1,20s-113.3-30.3-193.8-34.9-110.7,11.1-110.7,11.1,83.3-19.1,181.1,2.5,112.6,31.3,112.6,31.3l-43.9,15.1s-134.4-41.3-241.8-26.6S244.6,343,244.6,343s-16.3-24.9,160.8-33.5c0,0,97.3,7.1,156.3,31.6l-99.9,42.2s-158.5-58.5-262.1,23.8c0,0,95.4-63.5,253.5-19.5l-125.5,51s-104-22.8-149.4,14c0,0,19.8-32.4,139.9-6.1l-84.5,38.1s-56.3-15.7-67.8-9c0,0,38.1-1.9,61.9,13.6Z" transform="translate(-41.1 -231)" fill="#29953f"/>
    <path d="M604.5,441.7c3.3-12.8,6.9-25.5,10.7-38.2s7.9-25.2,12.4-37.7,9.2-24.8,14.7-36.9c2.7-6,5.7-12,9-17.7A85.3,85.3,0,0,1,662.9,295l2.7-2.8-2,3.3c-4.5,7.6-8.8,15.4-13.1,23.1S642,334.2,637.8,342q-12.6,23.4-24.6,47.2t-23.6,47.7c-3.9,8-7.7,16-11.5,24l-11.3,24.1,11.1-24.2,5.6-12.1q2.8-6,5.7-12,11.5-24,23.4-47.8T637,341.6c8.3-15.7,16.9-31.2,25.9-46.5l.7.5a84.5,84.5,0,0,0-11.5,16c-3.3,5.7-6.3,11.6-9,17.6-5.5,12-10.3,24.3-14.8,36.8s-8.6,25-12.5,37.6S608,428.9,604.5,441.7Z" transform="translate(-41.1 -231)" fill="#80d68f"/>
    <path d="M649.2,295.7h-1.7c-12.1.2-88.7,0-230.4-26.7C417.1,269,605.9,279,649.2,295.7Z" transform="translate(-41.1 -231)" fill="none" stroke="#80d68f" stroke-miterlimit="10"/>
    <path d="M404.8,553a11.8,11.8,0,0,0,4.2-.4,28.9,28.9,0,0,0,4.1-1.3l2-.8,1.9-.9,1.9-1,1.8-1.1a109.1,109.1,0,0,0,13.8-10,246.6,246.6,0,0,0,24.4-23.8c15.2-16.9,29.1-35,42.3-53.5s25.9-37.4,38.1-56.6c3.1-4.8,6-9.6,9.1-14.5s6-9.7,8.9-14.5c6-9.7,11.8-19.5,17.6-29.2-5.7,9.8-11.4,19.7-17.2,29.5-2.9,4.9-5.8,9.8-8.9,14.6s-5.9,9.7-9,14.5c-12.1,19.3-24.6,38.3-37.9,56.8s-27.3,36.5-42.6,53.3a245,245,0,0,1-24.6,23.7,109.5,109.5,0,0,1-14,9.8l-1.9,1.1-1.9,1-1.9.9-2,.8a29,29,0,0,1-4.1,1.2A11.8,11.8,0,0,1,404.8,553Z" transform="translate(-41.1 -231)" fill="#29953f"/>
  </g>
</svg>
