<svg id="l2" xmlns="http://www.w3.org/2000/svg" viewBox="0 0 684.6 375.6">
  <title>l2</title>
  <g>
    <g>
      <path d="M80.8,433.8s41.2.3,55.3-27.7,20.3-79.8,53.1-94,72.2-27.8,72.2-27.8,40-19.3,52.9-22,117.5-5.5,135.8,3.8c69,34.5,74.1,2.9,235.5,238.9,0,0-118.2,114.9-239.9,128.9S220,553.3,178.4,514.8,80.8,433.8,80.8,433.8Z" transform="translate(-80.8 -259.7)" fill="#fff"/>
      <path d="M157.2,363.6s4.2-12.1,15.5-10.9c0,0-5.4-6.5-10.8-3.1,0,0,12.1-5.7,16.6-4.1,0,0-10.9-4.3-13.3-2.9,0,0,13.6-12.7,28.4-4.9s-3.5-6.6-18.3-3.9c0,0,24.5-17.1,54.7,17.2S302.3,452.5,327,458.5c0,0-42.4-19.8-86.5-87.6,0,0,40.6,71.7,75.1,85.8,0,0-35.6-10.9-80.7-75.4s-.7-1.8-.7-1.8,64.8,79.5,66,78.8-52.1-56.6-52-54.1,46.3,52.6,46.3,52.6-54.7-57.7-54.4-53.4S292,456.9,292,456.9s-73.8-74.6-74.3-71.5,63.5,69,63.5,69L230.4,409l44,45.9L232.5,422l37.1,34.5-33.5-27.2L264,456.8l-31.2-21.1L253.2,455s-28.8-22.5-28.7-20.7,18.6,18.8,18.6,18.8l-30.1-22.5L237,454.1s-76.4-65.1-88.8-54.4c0,0,8.4-5.5,15.3-5.3l-19.2,2.4,17.6-7.3-17.3,2.3,21.5-4.4-16.4-2.7,16.1-2.2-13.9-2.9,14.4.4-12.2-6.1,17,2.7-16-5.9,15.8,2.8-15.3-5.9,18-.5S169,353.6,157.2,363.6Z" transform="translate(-80.8 -259.7)" fill="#2e983b"/>
      <path d="M167.3,395.4l50.1,33.1-23.7-20.4,39.7,26.2-24.6-24.7L232.5,422,212,402.6l22.7,14.2-19.9-19.3s24.6,14.7,22.7,14.8-37.4-39.5-53-50.3l26.1,28.3s-33.4-25.4-31.4-23.6l29.1,26.3-35.1-23.4L198,389.2l-27-12.7,9.8,6.9-10.7-1.2,11.3,10.5-13.5-6,16.5,15.2Z" transform="translate(-80.8 -259.7)" fill="#24732e"/>
      <path d="M197.5,309.7s22.7-6.7,49.3,35.6S325.4,458,340.5,459.5c0,0-32.3-27.9-40.7-43.6s35,40.9,53.1,47.5c0,0-43.9-39.1-60.2-66.4,0,0,45.1,53.9,65.5,66.4,0,0-62.4-46-100.2-147.5,0,0-6.1-28.3-36-18.3,0,0,13.9-2.4,18.9,3.2a59.2,59.2,0,0,0-26.3-1H214c-14.1,3.1,14.2-3.1,21.5,4.6,0,0-20.6-5.9-34.2,1.2,0,0,22.7-6.4,33.2,2.6C234.5,308.3,215.3,300.5,197.5,309.7Z" transform="translate(-80.8 -259.7)" fill="#2e983b"/>
      <path d="M223.6,313.1s34.7,36.5,64.4,88c0,0-34.5-63-34.5-64.6s41.9,72.2,41.8,71-24.8-48.7-24.8-48.7l16.6,26.1s-25.9-56.4-32.8-66.6l9.9,23.7s-13.5-26-24.1-32.5l9.5,11.9-13.7-9.1,7.4,9.5s-10.6-9.9-14.8-12.2-.6-.3-.6-.3a74.2,74.2,0,0,1,15.1,17.8S232.9,317.5,223.6,313.1Z" transform="translate(-80.8 -259.7)" fill="#24732e"/>
      <path d="M170.9,333.3s21.1-28.9,53.1,4.2S307.2,450.7,337.3,461c0,0-57.2-25.5-111.3-106.7C226,354.2,201.9,313.2,170.9,333.3Z" transform="translate(-80.8 -259.7)" fill="#83d98c"/>
      <path d="M169.7,336.7a21.2,21.2,0,0,1,5.7-1.9l3-.4h3a36.1,36.1,0,0,1,11.8,2.5c7.5,3,14,8.1,19.7,13.8,1.4,1.5,2.9,2.8,4.1,4.4l3.9,4.7,7.3,9.6,14.5,19.2c9.7,12.8,19.4,25.6,29.7,37.9,5.1,6.2,10.4,12.2,16,18,2.8,2.9,5.7,5.7,8.7,8.3a59.6,59.6,0,0,0,9.8,7,59.7,59.7,0,0,1-9.9-6.8c-3.1-2.6-6.1-5.3-8.9-8.1-5.7-5.7-11-11.7-16.3-17.8-10.4-12.3-20.1-25-29.9-37.8l-14.4-19.3-7.3-9.6a117.5,117.5,0,0,0-7.8-9.1c-5.5-5.7-11.9-10.8-19.3-13.9a35.7,35.7,0,0,0-11.6-2.7h-3l-3,.4A21.2,21.2,0,0,0,169.7,336.7Z" transform="translate(-80.8 -259.7)" fill="#83d98c"/>
      <path d="M192.8,316.5a17.9,17.9,0,0,1,6.5-1.4,25.4,25.4,0,0,1,6.6.6,35.9,35.9,0,0,1,12.1,5.5c7.3,5.1,13.2,12,18.3,19.3l1.9,2.7,1.8,2.8,3.5,5.7c2.3,3.8,4.6,7.6,6.8,11.5,4.5,7.7,8.9,15.4,13.4,23,9,15.3,18.5,30.4,29.7,44.1a140.2,140.2,0,0,0,18.5,19.1,93.6,93.6,0,0,0,10.8,7.8,70.7,70.7,0,0,0,12,5.7,70.8,70.8,0,0,1-12.1-5.5,94,94,0,0,1-11-7.6,140.3,140.3,0,0,1-18.7-19A246.8,246.8,0,0,1,277,409.4c-4.9-7.4-9.6-15-14.1-22.6s-8.9-15.4-13.4-23.1c-2.2-3.8-4.5-7.7-6.8-11.5l-3.5-5.7-1.8-2.8-1.9-2.7c-4.9-7.3-10.7-14.2-17.9-19.4a35.6,35.6,0,0,0-11.9-5.7,25.2,25.2,0,0,0-6.6-.7A17.8,17.8,0,0,0,192.8,316.5Z" transform="translate(-80.8 -259.7)" fill="#83d98c"/>
      <path d="M130,418.3s11.8-26,29.8-17.7,64.9,46.2,75.8,55.8c0,0-50.4-34-71.5-47C164.1,409.3,148.2,395.4,130,418.3Z" transform="translate(-80.8 -259.7)" fill="#83d98c"/>
      <path d="M89.8,433.3s26.2.2,58.6-15.2c0,0,9.8-7.5,27.2,10.8s30.8,24.9,40.7,28.3c0,0-21.8,1-54.6-30.9,0,0-5.3-5.6-17.3-2.1S110.7,434.5,89.8,433.3Z" transform="translate(-80.8 -259.7)" fill="#83d98c"/>
      <path d="M127.2,422.5l12.6-4.9a77.4,77.4,0,0,0,12.1-5.8,12.2,12.2,0,0,1,6.7-.4,19.6,19.6,0,0,1,6.3,2.5,25.4,25.4,0,0,1,5.2,4.3c1.5,1.7,2.9,3.4,4.5,5,3.1,3.3,6.3,6.4,9.6,9.4s6.7,6,10.1,8.9,6.9,5.7,10.5,8.4l2.7,2,2.8,1.9,1.4.9,1.5.8a26.3,26.3,0,0,0,3,1.5,26.4,26.4,0,0,1-3-1.4l-1.5-.8-1.4-.9-2.8-1.9-2.8-2c-3.6-2.7-7.2-5.5-10.6-8.4s-6.9-5.8-10.2-8.9-6.6-6.1-9.7-9.4c-1.6-1.6-3-3.4-4.5-5.1a24.9,24.9,0,0,0-5.1-4.3,19.2,19.2,0,0,0-6.2-2.5,11.8,11.8,0,0,0-6.5.3,76.6,76.6,0,0,1-12.2,5.8Z" transform="translate(-80.8 -259.7)" fill="#83d98c"/>
      <path d="M85,436.1l28.8-2.5,14.4-1.3c4.8-.5,9.6-.9,14.3-1.7l1.7-.3,1.9-.3a12.8,12.8,0,0,1,3.9.3,24.1,24.1,0,0,1,6.9,2.9,135.9,135.9,0,0,1,11.9,8.4c7.7,5.8,15.6,11.3,24.4,15.3a84.5,84.5,0,0,1-13.1-6.1c-4.2-2.4-8.2-5.1-12.2-7.9s-7.8-5.7-11.9-8a23,23,0,0,0-6.4-2.6,10.9,10.9,0,0,0-3.3-.2l-3.5.6c-4.8.8-9.6,1.2-14.4,1.6l-14.4,1Q99.5,435.9,85,436.1Z" transform="translate(-80.8 -259.7)" fill="#83d98c"/>
      <path d="M134,417.4c3.6-2.1,7.3-4.1,11.1-5.9a62.1,62.1,0,0,1,5.8-2.4l3-.8a6,6,0,0,1,1.6,0l1.5.4a42.1,42.1,0,0,1,5.7,2.7l5.4,3.2c3.6,2.2,7,4.6,10.4,7,6.8,4.9,13.4,10,19.8,15.4L208,445l9.3,8.4-9.5-8.2-9.6-8c-6.5-5.3-13.1-10.4-19.9-15.2-3.4-2.4-6.8-4.8-10.4-7l-5.4-3.2A41.8,41.8,0,0,0,157,409c-1.9-1-4-.2-6,.4s-3.9,1.5-5.8,2.4C141.4,413.5,137.7,415.4,134,417.4Z" transform="translate(-80.8 -259.7)" fill="#83d98c"/>
      <path d="M322.3,263.6s24.7-1.1,38.9,76.6,49.1,129.3,58.7,132.4c0,0-36.1-47.3-41.1-82.1,0,0,46.2,110.8,50.7,86.6.3-1.9-26.2-29.7-41-72.8s1.4-.6,1.4-.6,28.2,63.2,44.3,73c0,0-38.2-58.4-38.8-74.8,0,0,34.6,68.5,44.8,74.4,0,0-37.4-59.9-33.6-75.1,0,0,25.5,63.9,43.9,75.4,0,0-28-37.1-26.2-61,0,0,16.1,48.1,36.6,63.2,0,0-22.9-30.4-27.9-57.7s-7.1-54.7,2-89,3.2-61.9-12.6-68c0,0,14,14.6,12.4,34.3,0,0-6.6-31.9-20.9-35.7,0,0,10.3,7.3,14.3,49.2,0,0-4.6-44.1-25.5-48.9,0,0,24.7,6.4,20.2,77.3,0,0,5.8-64.9-29.1-77.2,0,0,19.3,1.6,24.1,57.4,0,0-7.1-54.3-33.6-59.2,0,0,29.9,15.4,27.6,83.9,0,0-3.3-75.6-40.3-84,0,0,24.7,5.5,28.1,61.9,0,0-7.1-54.3-37.5-61.3,0,0,13.6.1,23.8,36.9,0,0-9.6-33.5-28.5-36.6,0,0,24.2,5.5,31,78.5,0,0-9.2-65.4-39.1-79.9,0,0,26.7,16.1,34.3,93.7,0,0-11.1-81.6-41.8-93.7,0,0,24.4,15.8,34.1,75,0,0-20.3-71.7-42.1-75,0,0,22.8,13.6,32.8,61.6C367.1,322.6,342.9,255.8,322.3,263.6Z" transform="translate(-80.8 -259.7)" fill="#2e983b"/>
      <g>
        <path d="M86.7,439.1s79.2,25,124.1,25.1,191,19,220.1,21,226.9,39.3,248.5,25.8c0,0-192.6-29.2-226.5-32.8S317,457.6,240.2,455.8,86.7,439.1,86.7,439.1Z" transform="translate(-80.8 -259.7)" fill="#83d98c"/>
        <path d="M86.7,439.1c11.9,3.6,24,7,36,10.1s24.2,5.9,36.5,8.3a355.6,355.6,0,0,0,37,5.5l4.7.4,4.7.2,9.3.2h4.7l4.7.2,9.4.5c24.9,1.7,49.8,4.1,74.6,6.7s49.6,5.4,74.4,8.1c12.4,1.4,24.8,2.7,37.2,3.9l9.3.8,9.4.9,18.6,2.6,74,11.3c24.7,3.7,49.4,7.2,74.2,10,12.4,1.4,24.8,2.6,37.2,3.4,6.2.4,12.4.6,18.6.5,3.1-.1,6.2-.2,9.2-.5s6.2-.9,8.6-2.2l.4,1.8q-73.8-11.2-147.7-22.1l-37-5.3c-12.3-1.7-24.7-3.5-37-5s-24.7-3-37.1-4.7l-37-5.1c-24.7-3.3-49.4-6.4-74.1-8.8l-9.3-.9-9.3-.8c-6.2-.6-12.4-1-18.6-1.4l-9.3-.6-9.3-.5-18.6-.7-9.3-.3-9.3-.5-4.7-.3-4.7-.3-9.3-.7c-12.4-1.1-24.8-2.2-37.2-3.7C135.8,447.3,111.2,443.7,86.7,439.1Zm0,0c24.5,4.5,49.2,7.9,73.9,10.7,12.4,1.4,24.8,2.5,37.2,3.5l9.3.6,4.7.3,4.7.2,9.3.5,9.3.3,18.7.6,9.3.5,9.3.5c6.2.4,12.4.8,18.6,1.4l9.3.8,9.3.9c24.8,2.4,49.5,5.3,74.2,8.6l37,4.9,18.5,2.5,18.5,2.2c12.4,1.5,24.7,3.2,37,4.9l37,5.3q73.9,10.7,147.7,21.9l2.9.4-2.5,1.4c-3.1,1.7-6.3,2.1-9.4,2.5s-6.3.5-9.4.5c-6.3.1-12.5-.2-18.8-.5-12.5-.8-24.9-2-37.3-3.4-24.8-2.9-49.5-6.4-74.2-10.1l-74-11.4-18.5-2.6-9.3-.9-4.7-.4-4.7-.5c-12.4-1.3-24.8-2.7-37.2-4.1-24.8-2.8-49.6-5.7-74.4-8.4s-49.6-5.2-74.5-7l-9.3-.6-4.7-.2h-4.7l-9.4-.3-4.7-.2-4.7-.4a356.1,356.1,0,0,1-37-5.8c-12.2-2.5-24.4-5.4-36.4-8.6S98.6,442.8,86.7,439.1Z" transform="translate(-80.8 -259.7)" fill="#24732e"/>
      </g>
      <path d="M365,326.5s7.2,48.7,10.1,57.8c0,0-3.2-22.2-2.3-30.2s11,26.4,15.6,39.7c0,0-9.8-29.2-10-36.8a3.6,3.6,0,0,1,.2-1.4c1.6-3.8,12.7,38.5,13.8,41.7,0,0-7.3-34.6-6.6-38.9,0,0,12.8,39.9,17.1,49.9,0,0-9-24.7-7.6-39.3s-1.2-50-4-57.7c0,0,.7,49.5.9,51.9s-1.5-1.3-1.5-1.3l-6.2-32.3c-.7-3.7-.8,1.4-.8,1.4l.5,23.8s-6.5-30-6.4-28.1,3.2,29.3,3.1,27.9-12.1-36.2-11.9-34.3,5.9,26.8,5.9,26.8Z" transform="translate(-80.8 -259.7)" fill="#24732e"/>
      <path d="M407.3,390.7a135.1,135.1,0,0,1,8.6-42.6l-.4,31.8s-1.9-8.3,7.4-39.3c0,0-1.9,37.1,4.6,67.5,0,0-8.7-27.1-6.6-37.9,0,0,1.9,30.7,2.6,42.4,0,0-7.6-24.3-5.5-35.7,0,0,.1,31.8,2.5,48.5,0,0-7.8-35.5-8.6-49,0,0-1.7,18.3,3.1,35.3C415.2,411.7,409.7,406.9,407.3,390.7Z" transform="translate(-80.8 -259.7)" fill="#24732e"/>
      <path d="M254.1,287.5" transform="translate(-80.8 -259.7)" fill="#54ed74"/>
      <path d="M252.7,288s13.5-8.8,25.1,35.4S346.6,452,379.7,466.3c0,0-79.8-80.2-83.2-127.7s-13.2-47.3-19.6-52.1S258.4,288.2,252.7,288Z" transform="translate(-80.8 -259.7)" fill="#2e983b"/>
      <path d="M275.7,281.9s12.5-10.1,35,75,62.9,94.3,70.5,103.7c0,0-53-41.1-64.9-97S293.9,281.3,275.7,281.9Z" transform="translate(-80.8 -259.7)" fill="#2e983b"/>
      <path d="M462.4,276.5s19.6,13.7-1,67.4-21,76.6,15.2,132.3c0,0-32.4-55-20.5-82s53-94.9,25-110S462.4,276.5,462.4,276.5Z" transform="translate(-80.8 -259.7)" fill="#2e983b"/>
      <path d="M473.8,286.1s16.3,14-15.8,92.2c0,0,22.3-47.7,23.6-72.1a68,68,0,0,1-8.3,40.3s21.8-40.2,11.6-55Z" transform="translate(-80.8 -259.7)" fill="#24732e"/>
      <path d="M499.3,479l-.8-1.2c-4.3-6.8-24.7-40.4-22.3-61.9,2.7-24,11.7-44.7,43.3-70.9s13.8-26.1,13.3-27.5l-.6-1.4s36.2,25.8,47.5,49c0,0,7.5.5-11.4,5.4s-64.5,23.6-55.2,67.5,15.1,48.2,15.1,48.2-22.4-29-24.3-52.3c0,0,7.2,40.2,17.3,52.2,0,0-19.3-24.1-20.9-50.6,0,0-2.8,23.1,16.1,49,0,0-7.7-3.3-19.6-37.1a81.4,81.4,0,0,0,14.4,37s-28.8-34.7-25.8-61.1C485.6,423.3,470.5,421.9,499.3,479Z" transform="translate(-80.8 -259.7)" fill="#2e983b"/>
      <path d="M479.6,418.5s3.9-42.3,41.8-65.2c0,0,19.9-11.1,21.6-21,0,0-.6,13.6-23.5,28.1,0,0,29.3-10.7,29.5-21.9l-.9-7s8.4,7.4,5,12.3-25.7,14.7-31.9,21.6c0,0-34.7,35.8-27,70.4,0,0-8-15.4,2.1-41.8,0,0-8.5,22-8,29.5,0,0-4.7-22.6,14.1-43.4,0,0-15.2,12.2-19.1,38.6,0,0,2.8-31,23.3-47.3C506.7,371.5,489.9,380.5,479.6,418.5Z" transform="translate(-80.8 -259.7)" fill="#24732e"/>
      <path d="M550,489.6s-31.1-53.9-5.2-69.5a21.7,21.7,0,0,0-5.8,17.5s7.2-20.4,31.7-26.9c0,0-21.8,5.7-28.1,23.9,0,0,4.7-10.3,12-13.2,0,0-9.2,7.1-10.7,18.1,0,0,24.3-31.1,48.1-28.8,0,0-18.7-.4-37,21,0,0,16-14.1,27.4-15.7,0,0-11.7,2-25.4,18.1,0,0,29.2-21.8,43-16.1,0,0-28.9-3.2-39.7,22.7,0,0,9.2-13.4,16.5-14.7,0,0-10.7,3.5-12.2,18.8,0,0,17.3-23.2,28.9-21.7,0,0-29.5,6.2-24.2,47.3s.7.6.7.6-.9-44.2,30.5-45.8c0,0-26.4,1.6-27.3,36.9,0,0,5.6-30.3,28.6-32.3,0,0-20,4.7-21.3,24.1,0,0-4.3,21.8,15.5,43.6,0,0-12.3-11.7-17.8-25.4,0,0,6.5,20.2,12.4,24.5,0,0-9-8.8-12.8-15.1,0,0-2.3,8.6,3,13.8,0,0-5-5.9-8.2-21.6,0,0,1.9,15.2,4.1,21.3,0,0-5.8-2.8-11.6-20.5l7.1,19.5-4-4.7,2.1,4.2-6.9-5.8,3.4,5.1-8.6-8.5,6.9,10.2-9.3-20,2.6,17S550,469,550,470s6,21.5,6,21.5-8.3-17.6-8.2-16.3,5.7,16.8,5.7,16.8l-6.3-11.1Z" transform="translate(-80.8 -259.7)" fill="#2e983b"/>
      <path d="M601.9,497.6s-42.8-56.6,26-73.3l58.1,83.1-8.5,3.6s-16.4-23.9-16.3-21.4,11.9,21.1,11.9,21.1-16.4-23.9-15.6-20.2,11.2,20.5,11.2,20.5l-20.1-22.4,9.2,18.1-11.2-9.3,3.6,7.3-8.6-7.6,3,7.3-7.8-5.1,1.7,8-6.8-8.9.9,4.9-9.2-8.2.4,6.8-9.8-7.5,2.2,4.9-5.8-3.4,2.8,4.8s-10-10.6-9.9-8.7,4.2,7.8,4.2,7.8Z" transform="translate(-80.8 -259.7)" fill="#2e983b"/>
      <path d="M369.5,480.2s-24.4,29.6-16.9,79.6-4,47-10,49.3-29.2,1.2-29.2,1.2,18.4,14.5,40,1.9c0,0-1.6,5.1-9.6,6.8,0,0,15.1,2.8,21.9-8.2,0,0-2.4,12-10.4,12.5,0,0,16.8-.4,19.4-9.3a13.6,13.6,0,0,1-11.2,10.7s27.8,5.8,24-24.6c0,0,7.4,18.9-2.9,24.5,0,0,12.4-.8,10-29.9,0,0,14.3,29.7-9.7,34.3,0,0,21.9,1.8,17.1-26s-18.4-85.5,1.8-112.3c0,0-13.2,17.6-16.3,39,0,0,1.5-35.6,14-45.8,0,0-13,10.8-14.4,19L397,481l-11.8,20.7,6.1-21.6L379.3,507l7.1-26-11.7,22.5,9.2-22.4-11.8,20.7,9.2-22.4-14.1,23.3,9.1-24.3s-9.7,14.9-11.7,33.1C364.6,511.7,363.8,498.6,369.5,480.2Z" transform="translate(-80.8 -259.7)" fill="#2e983b"/>
      <path d="M360.4,523.6s-6.2,21,2.2,65.3.1,1.4.1,1.4,1.8,13.5-1.8,16.9c0,0,7.4-8.8,8.2-16.4a12,12,0,0,0,0-1.9c-.5-7.9,3.2,21.8.2,26.2,0,0,6-16.3,3.7-30.6,0,0,9.5,16.7,5.6,29.6,0,0,3.8-13.8-.3-27.1a44.1,44.1,0,0,1,6.2,24.4s.6-12.7-4.4-41.3-.2-40.7,3.7-53.5c0,0-12.4,34-7.3,56.1,0,0-9.5-17.2-5.4-42.2,0,0-5.7,21.4-.7,41.7,0,0-12.4-34.8.2-64.1,0,0-8.5,13.2-7.6,44C363,552,363,551.5,360.4,523.6Z" transform="translate(-80.8 -259.7)" fill="#24732e"/>
      <path d="M434.3,486.8S401,538.9,431.6,587s23.2,34.6,20.2,38.5.1,1.4.1,1.4l-5.4,4.1s83.8-14.1,112.6-39.2c0,0-54.9,3.9-75.4-40.2s-6.4-57.6-6.4-57.6-16.1,11.9-2,58.5l.6,1.9S463,519.1,468,494c0,0-11.1,34.9,8.7,75.6l.7,1.5s-25.1-43.3-14.2-78.1c0,0-9.9,21.6-4,49.3,0,0-8.8-36.4-3.6-51.2,0,0-5.1,30.7-2.3,46,0,0-5.3-39.9-2.1-49,0,0-3.2,18.1-3.5,32,0,.5,0,1,0,1.4-.1,14-6.8-26.7-.8-35,0,0-13.5,56.5-10.6,40.9.4-1.9,4.6-39.1,4.5-41.4,0,0-8.8,23.5-9.1,42.6C431.7,528.6,425.6,511.6,434.3,486.8Z" transform="translate(-80.8 -259.7)" fill="#2e983b"/>
      <path d="M431.2,526.7a59.3,59.3,0,0,0-2.1,13.2,74.1,74.1,0,0,0,.4,13.3,79.7,79.7,0,0,0,7.5,25.3,85.1,85.1,0,0,0,6.6,11.5c1.2,1.9,2.5,3.6,3.9,5.4l2.1,2.6,2.1,2.6c2.9,3.4,6,6.4,9.2,9.7a40.2,40.2,0,0,1,4.2,5.3,17,17,0,0,1,1.6,3,5.9,5.9,0,0,1,.4,3.3,5.8,5.8,0,0,0-.6-3.2,16.9,16.9,0,0,0-1.7-2.8,39.5,39.5,0,0,0-4.5-4.9,131.4,131.4,0,0,1-9.7-9.3,92.9,92.9,0,0,1-8.5-10.5,84.1,84.1,0,0,1-6.9-11.7,80.1,80.1,0,0,1-4.8-12.7,72.2,72.2,0,0,1-2.4-13.3c-.2-2.3-.3-4.5-.3-6.8s.2-4.5.4-6.7a67.1,67.1,0,0,1,1.2-6.6A40.6,40.6,0,0,1,431.2,526.7Z" transform="translate(-80.8 -259.7)" fill="#24732e"/>
      <path d="M435.6,530.7a48.3,48.3,0,0,0-1.2,13.4,62.5,62.5,0,0,0,2,13.3,74.9,74.9,0,0,0,11.5,24.3,108.7,108.7,0,0,0,18.3,19.8,69.5,69.5,0,0,1,9.2,10,23.6,23.6,0,0,1,3.2,6,8,8,0,0,1,.4,3.4,4.6,4.6,0,0,1-1.6,3,4.5,4.5,0,0,0,1.4-3,7.8,7.8,0,0,0-.5-3.3,23.2,23.2,0,0,0-3.4-5.8,69.3,69.3,0,0,0-9.3-9.8l-5.1-4.5c-1.6-1.6-3.3-3.1-4.8-4.8a92.3,92.3,0,0,1-8.7-10.5,74,74,0,0,1-11.4-24.7C433.6,548.8,433.1,539.4,435.6,530.7Z" transform="translate(-80.8 -259.7)" fill="#24732e"/>
      <path d="M443.4,505.9s-17,58.1,24.6,88.3c0,0,25.9,18.5,25,25.6a22.2,22.2,0,0,0-3.7-15.2s18.3,9.2,18.4,10.6-37.4-22.5-45.9-39.2S444.7,541.3,443.4,505.9Z" transform="translate(-80.8 -259.7)" fill="#24732e"/>
      <path d="M449.4,527s-.5,51.9,61.7,82.7C511.1,609.7,464.1,583.1,449.4,527Z" transform="translate(-80.8 -259.7)" fill="#24732e"/>
      <path d="M462.9,548.6s7.5,44.9,72.1,54.9C535.1,603.5,488,598.5,462.9,548.6Z" transform="translate(-80.8 -259.7)" fill="#24732e"/>
      <path d="M475.7,559l1.1,1.5c5.7,7.5,33.6,41.2,69.4,34.9C546.2,595.4,511.3,597.1,475.7,559Z" transform="translate(-80.8 -259.7)" fill="#24732e"/>
      <path d="M238.1,562.5l1,.4c4.5,1.4,23.4,4.9,37-32,15.5-42.1,23.7-60.1,23.7-60.1s-5.3,25.9-3.2,29.5l16.3-29.1s-8.6,32.3-9.5,37.4c0,0,15.6-30.3,19.7-33.6,0,0-20.6,101-29.1,103.4s-5.4,13.4-31.6,2.6" transform="translate(-80.8 -259.7)" fill="#2e983b"/>
      <path d="M254.5,566.5s21.2-.7,34.5-46.4L278.8,555l17.7-46-7.7,37.3,13-31.4-11,43.7,25.2-55.8s-13.2,68.8-28,72.2-23,.8-33.5-6.7" transform="translate(-80.8 -259.7)" fill="#24732e"/>
      <path d="M103.8,448.6S129.3,467,150.4,475s21.7,28.6,32.8,36.6c0,0,26.5-4.8,37.8-23.5,0,0-9.8,23.7-35.1,26.5,0,0,10.5,8.7,50.7-27.4,0,0-24.3,30.8-42.1,35s.1,1.2.1,1.2,31.3-8.2,42.4-19.5c0,0-27.1,25.4-33.4,24.5,0,0,17.8,5.1,52-45.6l9.6-14.4c19.1-28.7-.6-1.2-.6-1.2l-14.1,14.6,10.3-15-15.7,17.8L257,465.3l-12.5,10.1,7.6-8.6-13,10.8,9.9-11.2-21,23.1,17.2-23.5s-33.4,25.1-39.4,28.6l32.5-29.4-11.6,4.5,2.2-5.1-5.9,4.7s1.4-7.6-.4-6.2-12.7,6.4-12.7,6.4l5.2-5.9-18.6,11.1,14.2-12.1-15,9,10.1-8.1-16.3,7.9,12.5-9.5L188,468.3l4.7-5.3" transform="translate(-80.8 -259.7)" fill="#2e983b"/>
      <path d="M177.6,491.4s32.4-10.1,38.9-16.1l-30.7,27.5,7.5-9.8Z" transform="translate(-80.8 -259.7)" fill="#24732e"/>
      <path d="M550.6,505.1s-40.7,26.8-22.5,50,50.7,23,53.7,21.6c0,0-27.2,2.9-36.4-14.6,0,0,37.6,12.6,41.8,11.1s.1,1.9.1,1.9-32.8-6.7-35-22.1c0,0,13.1,10.4,25.1,12.2,0,0-14.7-5.3-15.1-12.8,0,0,27.7,13.9,40.6,11.8,0,0-20.8-4.6-23.2-14.4a8,8,0,0,1-.2-1c-1.3-10.5,1.7,6.8,15.4,7.2,0,0-20.9-14.6-11.7-22.9l.9-.7c11.3-8.2-11.6,13.8,25.4,17.8,0,0-27.2-7-11.1-18.6a225.9,225.9,0,0,1,31.3-18.8s-36.1,10.3-37.6,17.3l23.1-18.9-15.1,8.4,9.4-9.9-16.4,7.3,8.2-8.6L587.5,516l8.1-9.9-14.2,12.1s11-13.8,9.2-12.4l-17.3,12.3,8.1-10.5-15.2,15.9,12.6-17.6-15.2,16.5,9.6-16.2s-28.9,16.1-19.2,22.4c0,0-25.3-24.6,14.8-23.4,26.9.8-18.2,8.6-18.2,8.6l13-11.4-21.2,20Z" transform="translate(-80.8 -259.7)" fill="#2e983b"/>
      <path d="M530.5,502a83.4,83.4,0,0,0-6.4,12.8,71.5,71.5,0,0,0-4.1,13.7,50.7,50.7,0,0,0-.8,14.2,36.2,36.2,0,0,0,4,13.5,39.2,39.2,0,0,0,8.7,11,54.5,54.5,0,0,0,5.7,4.2l1.5,1,.7.5.8.4,3.1,1.7a34.5,34.5,0,0,0,3.2,1.5l3.3,1.4,6.8,2.3,6.9,1.9,7,1.6c-9.4-1.5-18.8-3.8-27.5-8.1l-3.2-1.6-.8-.4-.8-.5-1.5-1a55.4,55.4,0,0,1-5.8-4.3,40.1,40.1,0,0,1-9-11.3,37.2,37.2,0,0,1-4-13.9,48.8,48.8,0,0,1,.9-14.4A76,76,0,0,1,530.5,502Z" transform="translate(-80.8 -259.7)" fill="#2e983b"/>
      <path d="M505.5,501.7a79.1,79.1,0,0,0-1.4,15.3,83,83,0,0,0,1.3,15.3,71.8,71.8,0,0,0,4.3,14.7,62.7,62.7,0,0,0,7.6,13.2,60.7,60.7,0,0,0,10.5,11.1l1.5,1.2,1.5,1.1c1,.7,2,1.6,3.1,2.2s4.3,2.8,6.6,3.9A111.4,111.4,0,0,0,569.6,590l-7.6-1.6-7.4-2.1a94.9,94.9,0,0,1-14.3-5.9c-1.1-.6-2.3-1.1-3.4-1.8l-3.3-2c-1.1-.7-2.1-1.5-3.2-2.2l-1.6-1.1-1.5-1.2a61.5,61.5,0,0,1-10.7-11.2,65.5,65.5,0,0,1-11.9-28.4A80.4,80.4,0,0,1,505.5,501.7Z" transform="translate(-80.8 -259.7)" fill="#2e983b"/>
      <path d="M486.6,498.5a89.6,89.6,0,0,0,.3,16.5,97,97,0,0,0,3,16.2,79,79,0,0,0,14.7,29.1c.9,1,1.7,2.1,2.7,3.1l2.8,3a76.8,76.8,0,0,0,6.2,5.4c2.1,1.8,4.4,3.2,6.7,4.8l3.6,2.1,1.8,1,1.8.9a114.7,114.7,0,0,0,31.3,10l-8.1-1.4-4-1c-1.3-.3-2.7-.6-4-1s-5.3-1.6-7.9-2.6l-3.9-1.5-3.8-1.8-1.9-.9-1.8-1-3.6-2.1c-2.3-1.5-4.7-3-6.8-4.8a77.7,77.7,0,0,1-6.3-5.4l-2.9-3c-1-1-1.8-2.1-2.7-3.2a78.6,78.6,0,0,1-14.7-29.5A92.3,92.3,0,0,1,486.6,498.5Z" transform="translate(-80.8 -259.7)" fill="#2e983b"/>
      <path d="M482.1,495.7s-15.6,60.2,33.9,84.6c0,0-42.1-36.1-30.3-76.7,0,0,8.8,41.9,21.9,51.6,0,0-21.3-42.3-6.1-58.9,0,0-7.8,4.8-9.2,11.8l-4-14.7Z" transform="translate(-80.8 -259.7)" fill="#83d98c"/>
      <path d="M425.4,486.1s-31.6,43.1-8,92.2,25.7,52,3.9,52.8H399.4s27.7,4.5,28.2-8.6-30.9-46.1-25.2-75.1S407,512.2,425.4,486.1Z" transform="translate(-80.8 -259.7)" fill="#83d98c"/>
      <path d="M421,486.4a141.3,141.3,0,0,0-12.7,20.5,133.6,133.6,0,0,0-9.1,22.3,106.3,106.3,0,0,0-2.9,11.7,87.6,87.6,0,0,0-1.4,11.9c0,2-.2,4,0,6s0,2,.1,3l.3,3a29.3,29.3,0,0,0,.4,3l.5,3,.7,2.9a27.2,27.2,0,0,0,.8,2.9l.9,2.9c.3,1,.7,1.9,1.1,2.8s.7,1.9,1.1,2.8l1.3,2.7a104.1,104.1,0,0,0,6.2,10.3q6.6,10.1,13.4,20l3.4,5,1.7,2.5a2.5,2.5,0,0,1,.3.8.5.5,0,0,1-.3.5h-.8l-1.4-.6a14.1,14.1,0,0,0-5.7-1.5,9.4,9.4,0,0,0-2.9.4l-2.9.7c-3.9.9-7.9,1.5-11.9,2s-8,.9-12,1.1q6-.5,12-1.3c4-.6,7.9-1.3,11.8-2.2l2.9-.8a10,10,0,0,1,3.1-.5,14.7,14.7,0,0,1,5.9,1.5l1.4.6h.3c-.2,0-.2.2-.2.2l-.3-.5-1.7-2.5-3.5-4.9c-4.6-6.6-9.1-13.3-13.6-20a105,105,0,0,1-6.3-10.4l-1.4-2.7c-.4-.9-.8-1.9-1.2-2.8s-.8-1.9-1.1-2.8l-.9-2.9a27.9,27.9,0,0,1-.8-2.9l-.7-3-.5-3a30,30,0,0,1-.4-3l-.3-3c-.1-1-.1-2-.1-3s0-4,.1-6.1a88.5,88.5,0,0,1,1.5-12,97.2,97.2,0,0,1,3-11.7,133.3,133.3,0,0,1,9.4-22.3A141.5,141.5,0,0,1,421,486.4Z" transform="translate(-80.8 -259.7)" fill="#83d98c"/>
      <path d="M299.9,271.9S337,296.4,343.6,354s29.2,79.2,56.2,111.9.7,1.2.7,1.2-52.5-62.2-49-97.3S340.7,255.6,299.9,271.9Z" transform="translate(-80.8 -259.7)" fill="#83d98c"/>
      <path d="M291.4,274.9a42.2,42.2,0,0,1,12.1,7.4,64.8,64.8,0,0,1,9.8,10.3,92.7,92.7,0,0,1,13.3,25.1,122.3,122.3,0,0,1,4,13.7c1.1,4.6,1.9,9.3,2.9,14,1.9,9.3,4,18.6,6.5,27.7a237.2,237.2,0,0,0,9.1,27,149.2,149.2,0,0,0,13.1,25.2,129.7,129.7,0,0,0,8.5,11.4c3,3.7,6.3,7.1,9.6,10.5s6.5,6.9,9.7,10.5l4.7,5.4,2.2,2.8,1.1,1.4a8.5,8.5,0,0,1,.9,1.6l.3.7-.6-.5c-8.5-6.8-16.7-13.9-24.6-21.4a262.6,262.6,0,0,1-22.2-23.9,168.9,168.9,0,0,1-18.3-27,106.5,106.5,0,0,1-6.6-14.9,71.2,71.2,0,0,1-2.3-7.8,38.7,38.7,0,0,1-1.1-8.1h0c-2.9-16.7-6.2-33.3-11.5-49.4-1.4-4-2.8-8-4.4-11.9a91.7,91.7,0,0,0-5.6-11.4,44,44,0,0,0-7.8-10,20,20,0,0,0-5.3-3.5,9.4,9.4,0,0,0-6.2-.6,9.4,9.4,0,0,1,6.2.6,20,20,0,0,1,5.3,3.5,44,44,0,0,1,7.8,10,91.8,91.8,0,0,1,5.7,11.4c1.7,3.9,3.1,7.9,4.5,11.9,5.3,16.1,8.7,32.7,11.6,49.4h0a38.5,38.5,0,0,0,1.1,8,71,71,0,0,0,2.3,7.8,106.2,106.2,0,0,0,6.6,14.9,168.6,168.6,0,0,0,18.3,26.9,262.2,262.2,0,0,0,22.2,23.8c7.9,7.5,16.1,14.6,24.6,21.3l-.3.2a9.6,9.6,0,0,0-.9-1.4l-1.1-1.4-2.2-2.8-4.7-5.4c-3.1-3.6-6.4-7-9.6-10.5s-6.6-6.9-9.6-10.6a130,130,0,0,1-8.5-11.5,149.5,149.5,0,0,1-13.1-25.3,237.4,237.4,0,0,1-9-27c-2.5-9.2-4.6-18.4-6.5-27.8-.9-4.7-1.7-9.3-2.9-14a122.1,122.1,0,0,0-4-13.7,92.6,92.6,0,0,0-13.2-25.1,64.8,64.8,0,0,0-9.8-10.3A42.1,42.1,0,0,0,291.4,274.9Z" transform="translate(-80.8 -259.7)" fill="#24732e"/>
      <path d="M307.3,290.1s16.8,39.5,23.8,92.7c0,0-2.8,5.2,23.5,37.8" transform="translate(-80.8 -259.7)" fill="none" stroke="#83d98c" stroke-miterlimit="10"/>
      <path d="M436.7,266.5a31.9,31.9,0,0,1,7.8,11.9,46.1,46.1,0,0,1,2.9,14.1v3.6c0,1.2-.2,2.4-.2,3.6v1.8c0,.6-.2,1.2-.3,1.8l-.6,3.5a13.8,13.8,0,0,1-.4,1.7l-.5,1.7-.9,3.5-2.5,6.7c.6-2.3,1.4-4.6,2-6.8l.8-3.5.4-1.7a13.6,13.6,0,0,0,.3-1.7l.5-3.5c.1-.6.2-1.2.2-1.8v-1.8c.1-1.2.2-2.4.2-3.5v-3.5a47.8,47.8,0,0,0-2.6-13.8,31.4,31.4,0,0,0-1.3-3.3l-.8-1.6-.9-1.6A29.6,29.6,0,0,0,436.7,266.5Z" transform="translate(-80.8 -259.7)" fill="#24732e"/>
      <path d="M447.6,270.2a6.8,6.8,0,0,1,3.8,2.3,19.6,19.6,0,0,1,1.3,1.8l1,2a26.2,26.2,0,0,1,1.2,4.3c.1.7.3,1.5.4,2.2l.2,2.2.2,2.2v2.2c0,1.5.1,3-.1,4.5l-.3,4.5c-.1,1.5-.3,3-.5,4.4s-.4,3-.6,4.4l-.8,4.4c-.3,1.5-.5,2.9-.8,4.4l-1,4.3c-1.3,5.8-3.1,11.5-4.8,17.2.7-2.9,1.4-5.8,2.1-8.7s1.3-5.8,2-8.7l.9-4.3c.3-1.5.5-2.9.8-4.4l.8-4.4c.2-1.5.4-2.9.6-4.4a85.2,85.2,0,0,0,.9-17.6l-.2-2.2c-.1-.7-.2-1.4-.4-2.2a26.5,26.5,0,0,0-1.1-4.3l-.9-2a19.3,19.3,0,0,0-1.2-1.9A7,7,0,0,0,447.6,270.2Z" transform="translate(-80.8 -259.7)" fill="#24732e"/>
      <path d="M455.1,271a7.9,7.9,0,0,1,2.3,1.5l1,1,.9,1.1a6.7,6.7,0,0,1,.8,1.2l.7,1.2a27.5,27.5,0,0,1,1.1,2.6,16.2,16.2,0,0,1,.8,2.7l.4,1.4a8,8,0,0,1,.3,1.4l.4,2.8.2,1.4v1.4l.2,2.8a20.9,20.9,0,0,1,0,2.8l-.2,5.6-.6,5.6-.3,2.8-.5,2.7-1,5.5c-.3,1.8-.9,3.6-1.3,5.4l-1.3,5.4c-.4,1.8-1,3.6-1.6,5.3-1.1,3.5-2.1,7.1-3.4,10.6l-3.8,10.5c2.2-7.1,4.6-14.1,6.4-21.3.5-1.8,1-3.6,1.5-5.4l1.3-5.4c.4-1.8.9-3.6,1.2-5.4l1-5.5.5-2.7.3-2.8.7-5.5.3-5.5c0-.5.1-.9,0-1.4v-5.5l-.2-1.4-.4-2.7a7.8,7.8,0,0,0-.3-1.4l-.3-1.3a16.6,16.6,0,0,0-.8-2.6,27.2,27.2,0,0,0-1-2.6l-.7-1.2a6.5,6.5,0,0,0-.7-1.2l-.8-1.1-1-1A7.8,7.8,0,0,0,455.1,271Z" transform="translate(-80.8 -259.7)" fill="#24732e"/>
      <path d="M491,287.5s25.4,7.8-9.6,67.3-26.8,60.3-4.8,113.8" transform="translate(-80.8 -259.7)" fill="none" stroke="#83d98c" stroke-miterlimit="10"/>
      <path d="M509.1,297s24.6,15.3-27.3,72.8c0,0-42.9,32,4.2,108.2" transform="translate(-80.8 -259.7)" fill="none" stroke="#83d98c" stroke-miterlimit="10"/>
      <path d="M458.8,307.6c-2.4,7.2-4.7,14.4-6.9,21.7s-4.3,14.5-6.3,21.9-3.8,14.7-5.2,22.1c-.7,3.7-1.3,7.4-1.7,11.2a49.2,49.2,0,0,0-.1,11.1,8,8,0,0,0,.2,1.3c.1.4.2.9.3,1.3l.5,1.2.6,1.3a28.7,28.7,0,0,1,1.8,5.6,101.4,101.4,0,0,1,1.4,11.4,84.3,84.3,0,0,0,4.8,22l1,2.7,1.1,2.6c.8,1.7,1.5,3.5,2.4,5.1l2.6,5,2.9,4.9,1.4,2.5,1.5,2.4,3.1,4.8,6.6,9.3c-2.3-3-4.7-6-7-9l-3.3-4.7-1.6-2.3-1.5-2.4-3-4.9-2.7-5c-1-1.7-1.7-3.4-2.5-5.1l-1.2-2.6-1-2.7a80.3,80.3,0,0,1-5.2-22.3,100.3,100.3,0,0,0-1.5-11.2,26.8,26.8,0,0,0-1.7-5.2l-.5-1.3-.6-1.5c-.2-.5-.2-1-.4-1.5a8.6,8.6,0,0,1-.3-1.5,50.9,50.9,0,0,1,.2-11.6c.4-3.8,1.1-7.6,1.8-11.3s1.6-7.5,2.5-11.1,1.9-7.4,3-11q3.2-11,6.8-21.8C453.5,321.8,456,314.6,458.8,307.6Z" transform="translate(-80.8 -259.7)" fill="#24732e"/>
      <path d="M533,487.2a130.6,130.6,0,0,1-14.9-36,83.7,83.7,0,0,1-2.4-19.4,56.1,56.1,0,0,1,3.2-19.3,45.4,45.4,0,0,1,10.5-16.5,55.3,55.3,0,0,1,7.5-6.3,67.6,67.6,0,0,1,8.5-4.9,94.4,94.4,0,0,1,18.5-6.3,145.3,145.3,0,0,1,19.3-3,145.1,145.1,0,0,0-19.1,3.5,94.3,94.3,0,0,0-18.2,6.5,74.5,74.5,0,0,0-8.3,4.9,54.5,54.5,0,0,0-7.4,6.2,44.5,44.5,0,0,0-10.2,16.2,55.1,55.1,0,0,0-3.2,18.9,87.2,87.2,0,0,0,2.3,19.2,125.8,125.8,0,0,0,5.8,18.5A135.1,135.1,0,0,0,533,487.2Z" transform="translate(-80.8 -259.7)" fill="#39515e"/>
      <path d="M537.2,487a133.5,133.5,0,0,1-15.4-34.7,80.9,80.9,0,0,1-3-18.9,50.1,50.1,0,0,1,2.8-18.9,39.3,39.3,0,0,1,10.8-15.7,53.1,53.1,0,0,1,16.5-9.7,92.9,92.9,0,0,1,18.5-4.7,153.4,153.4,0,0,1,19-1.5,153.2,153.2,0,0,0-18.9,2,92.8,92.8,0,0,0-18.3,4.9,54,54,0,0,0-16.1,9.6,38.4,38.4,0,0,0-10.5,15.4,49.1,49.1,0,0,0-2.9,18.5,84.3,84.3,0,0,0,2.8,18.7,126.1,126.1,0,0,0,6.2,17.9A139.4,139.4,0,0,0,537.2,487Z" transform="translate(-80.8 -259.7)" fill="#39515e"/>
      <path d="M541.9,488.1a153.4,153.4,0,0,1-14.8-35.2A88.3,88.3,0,0,1,524,434a48.1,48.1,0,0,1,2.5-19,32.8,32.8,0,0,1,4.7-8.5,32.1,32.1,0,0,1,7-6.7,46.2,46.2,0,0,1,17.7-7.2c12.6-2.5,25.5-1.7,38.1,0a162.7,162.7,0,0,0-19-1.1,90.2,90.2,0,0,0-18.9,1.8,46.6,46.6,0,0,0-17.3,7.2,31.2,31.2,0,0,0-6.7,6.5,31.9,31.9,0,0,0-4.5,8.2,47.1,47.1,0,0,0-2.6,18.6,92.5,92.5,0,0,0,3,18.7,146,146,0,0,0,6,18.1A162.5,162.5,0,0,0,541.9,488.1Z" transform="translate(-80.8 -259.7)" fill="#39515e"/>
      <path d="M546.3,491.1a135,135,0,0,1-12.5-33.3,78.6,78.6,0,0,1-2-17.7,44.7,44.7,0,0,1,3.4-17.5,31.7,31.7,0,0,1,11.5-13.6,45.6,45.6,0,0,1,16.6-6.6c11.7-2.3,23.8-1.6,35.5,0a157,157,0,0,0-17.7-1,85.3,85.3,0,0,0-17.6,1.8,46.2,46.2,0,0,0-16.2,6.6,30.8,30.8,0,0,0-11.1,13.3,43.8,43.8,0,0,0-3.4,17.1,82.3,82.3,0,0,0,1.9,17.6,128.5,128.5,0,0,0,4.9,17.1A148.9,148.9,0,0,0,546.3,491.1Z" transform="translate(-80.8 -259.7)" fill="#39515e"/>
      <path d="M612.1,511.3s-54.3,39.5,16.2,39.5l55.5-40.2Z" transform="translate(-80.8 -259.7)" fill="#2e983b"/>
      <path d="M420.6,498.9l-.8,1.8c-4.4,9.7-23.9,57.3,1.8,93.6,28.7,40.6,13.6,29.1,13.6,29.1l5.7,2.1S396.7,567,420.6,498.9Z" transform="translate(-80.8 -259.7)" fill="#24732e"/>
      <path d="M334.4,476.7S315.5,524.1,306,572c0,0-3.1,20.1-21.1,22.5,0,0,33.9,4.1,40.4-43S334.4,476.7,334.4,476.7Z" transform="translate(-80.8 -259.7)" fill="#83d98c"/>
      <path d="M352.6,478.7s-18.5,24.2-21.4,96.7c0,0,.4,26.8-23.8,28.3,0,0,27.9,7.6,32-16.9s-3.8-72.1,25.7-108.2c0,0-15-.9-28.1,69.1S352.6,478.7,352.6,478.7Z" transform="translate(-80.8 -259.7)" fill="#83d98c"/>
      <path d="M290.2,599.2a15.7,15.7,0,0,0,9.1,2.5,14,14,0,0,0,4.6-1,17.7,17.7,0,0,0,2.2-1l2-1.3a29.2,29.2,0,0,0,6.5-6.9,57.6,57.6,0,0,0,4.6-8.3,114.1,114.1,0,0,0,6.2-18.1c1.6-6.2,2.8-12.5,3.8-18.8s1.8-12.7,2.8-19,1.8-12.7,2.9-19,2.1-12.7,3.4-18.9c.7-3.1,1.4-6.3,2.4-9.3a22.4,22.4,0,0,1,.9-2.3,5.6,5.6,0,0,1,1.3-2,1.4,1.4,0,0,1,1.2-.3l1.1.4,1.1.4a2,2,0,0,0,1.2-.2,2,2,0,0,1-1.2.3l-1.2-.3-1.1-.4a1.3,1.3,0,0,0-1.1.3,5.5,5.5,0,0,0-1.2,2,22.2,22.2,0,0,0-.8,2.3c-.9,3.1-1.5,6.2-2.1,9.4-1.2,6.3-2.2,12.6-3.1,19l-2.7,19c-.9,6.4-1.7,12.7-2.7,19.1-2.2,12.6-4.8,25.4-10.3,37.1a58.3,58.3,0,0,1-4.8,8.4,29.5,29.5,0,0,1-6.7,6.9l-2.1,1.3a18.1,18.1,0,0,1-2.2.9,14.3,14.3,0,0,1-4.8.9A15.8,15.8,0,0,1,290.2,599.2Z" transform="translate(-80.8 -259.7)" fill="#83d98c"/>
      <path d="M202.1,534.8s18.4,26,68.2-60.8C270.3,474,244.2,558.9,202.1,534.8Z" transform="translate(-80.8 -259.7)" fill="#83d98c"/>
      <path d="M281.8,471.4s-23.5,81.4-67.5,72.9C214.3,544.3,246.4,578.4,281.8,471.4Z" transform="translate(-80.8 -259.7)" fill="#83d98c"/>
      <path d="M225.1,552.6s25.3,24.2,45-28,24.7-53.4,24.7-53.4" transform="translate(-80.8 -259.7)" fill="none" stroke="#83d98c" stroke-miterlimit="10"/>
    </g>
    <path d="M660.6,513.7s75.1,28.8,97,27.1c0,0,11.1.6,6.7-13.5s-43.8-5-106.4-20.8S660.6,513.7,660.6,513.7Z" transform="translate(-80.8 -259.7)" fill="#2e983b"/>
  </g>
</svg>
