<svg id="r2" xmlns="http://www.w3.org/2000/svg" viewBox="0 0 650 352.8">
  <title>r2</title>
  <g>
    <g>
      <path d="M748.1,394.3s-37.6,10.6-43.1,39.8,2.5,78-23.6,99.6-58.4,44.4-58.4,44.4-31.3,28.1-42.4,33.9S475.2,648,456,644.4c-71.9-13.3-68.2,16.9-277.4-155.5,0,0,77.4-135.7,184.4-180.6s226.7,13.8,274.8,38S748.1,394.3,748.1,394.3Z" transform="translate(-98.2 -291.9)" fill="#69d074"/>
      <path d="M697.1,478.4s-.7,12.1-11.3,14.1c0,0,6.6,4.5,10.6,0,0,0-9.5,8.4-14,8.1,0,0,11,1.1,12.9-.8,0,0-9,15.1-24.6,11.9s5,5.1,17.7-1.3c0,0-17.8,22-54.3-1.3s-92.6-73.4-116.7-72.3c0,0,43.8,6.9,101.8,56.9,0,0-55.9-54.6-91-58.3,0,0,35.3.5,93.4,47.4s1.1,1.5,1.1,1.5-79.9-55.4-80.9-54.4,62.4,37.8,61.6,35.6-56-35.7-56-35.7,65,38.1,63.6,34.3-61.4-35.1-61.4-35.1,86.9,48.5,86.4,45.5-76-46.1-76-46.1l58.3,28-52.2-30.2,46.9,18.9-42.8-21.6,37.7,16-32.7-17.8,34,11-23.8-12.2s32.2,12.9,31.6,11.3-21.9-12.2-21.9-12.2l33.3,12.5L600.6,417s86.7,39.2,95.2,26.1c0,0-6.2,7.2-12.5,8.9l16.8-7.3L685.9,456l15.2-6.7-18.4,9.7,15.6-1.8-14,6.3,13.4-1-13.2,3.5,12.7,2.3-16.2,2,16.1,1.1L682,473.1l15.5,1.3-16.3,5.2S688.9,490.7,697.1,478.4Z" transform="translate(-98.2 -291.9)" fill="#2e983b"/>
      <path d="M679.5,452.1l-54.3-16.9,27,12.3-43-13.4L638,450l-24.9-4.9,23.8,12.2-24.4-6.9,23.2,12.4s-26.3-6.9-24.6-7.5,44.4,26.1,61.5,31.9l-31.2-18.9s37.1,14.3,34.8,13.2l-33.4-16.3,38.1,12-27.9-11.3,27.9,4.4-10.7-3.7,10-1.7-13-6.6,13.9,1.9-19.1-9.5Z" transform="translate(-98.2 -291.9)" fill="#24732e"/>
      <path d="M674.6,538.1s-18.9,12.1-54.3-19.4S519,436.8,504.9,439.3c0,0,36.8,16.9,48.6,29s-42.6-28-60.9-29.3c0,0,50.2,24,72.3,44.6,0,0-55.3-37.2-77.2-43.2,0,0,68.9,25.5,130.1,107.9,0,0,13,24.2,37.7,7.2,0,0-12,5.9-18.1,2.1a56.1,56.1,0,0,0,24.2-6.1l.5-.3c12.1-6.5-12.1,6.5-20.8,1.5,0,0,20.3-.1,30.9-10.1,0,0-19,11.8-30.9,6.4C641.2,549.1,660.8,551.2,674.6,538.1Z" transform="translate(-98.2 -291.9)" fill="#2e983b"/>
      <path d="M649.9,541.9a488.9,488.9,0,0,1-81.8-63.2s48,48.3,48.5,49.7-57.2-54.7-56.8-53.6,35.4,37.8,35.4,37.8l-22-19.4s38.5,44.5,47.4,52l-15.2-19s19.1,20.1,30.5,23.2l-11.7-8.3,14.8,4.7-9.3-6.7s12.3,6.3,16.7,7.2.7.1.7.1a70.5,70.5,0,0,1-18.5-12.2S640.3,540.3,649.9,541.9Z" transform="translate(-98.2 -291.9)" fill="#24732e"/>
      <path d="M692.6,509.6s-11.6,31.9-49.5,10.2-105.6-81.1-135.7-82.6c0,0,58.8,8.1,129.5,67.9C636.9,505,669.6,536.1,692.6,509.6Z" transform="translate(-98.2 -291.9)" fill="#83d98c"/>
      <path d="M692.8,506.2a20.1,20.1,0,0,1-4.7,3.2l-2.6,1.2-2.7.9a34.2,34.2,0,0,1-11.4.8c-7.6-.8-14.9-3.6-21.6-7.4a100.5,100.5,0,0,1-9.7-6.2l-9.2-6.8-18.3-13.7c-12.2-9.1-24.4-18.2-37-26.7-6.3-4.3-12.7-8.4-19.3-12.1-3.3-1.9-6.7-3.7-10.1-5.2a56.5,56.5,0,0,0-10.7-3.8,56.6,56.6,0,0,1,10.8,3.6c3.5,1.5,6.9,3.2,10.3,5,6.7,3.7,13.1,7.7,19.5,11.9,12.7,8.4,24.9,17.5,37.2,26.6l18.2,13.7,9.1,6.8a111.7,111.7,0,0,0,9.5,6.2c6.5,3.8,13.7,6.7,21.2,7.5a33.9,33.9,0,0,0,11.3-.6l2.7-.8,2.6-1.1A20.1,20.1,0,0,0,692.8,506.2Z" transform="translate(-98.2 -291.9)" fill="#83d98c"/>
      <path d="M677.1,530.6a16.9,16.9,0,0,1-5.5,3,24.1,24.1,0,0,1-6.2,1.2,34.1,34.1,0,0,1-12.5-1.8c-8-2.7-15.2-7.4-21.8-12.8l-2.5-2-2.4-2.1-4.7-4.2-9.2-8.6L594,485.8c-12.2-11.5-24.8-22.8-38.6-32.4a132.9,132.9,0,0,0-21.8-12.5,88.7,88.7,0,0,0-11.9-4.2,67,67,0,0,0-12.4-2.1,67.2,67.2,0,0,1,12.5,1.8,89.1,89.1,0,0,1,12,4,133,133,0,0,1,22.1,12.3,233.5,233.5,0,0,1,20.1,15.4c6.4,5.4,12.7,11.1,18.8,16.9L613,502.6l9.2,8.7,4.7,4.3,2.4,2.1,2.4,2c6.4,5.4,13.5,10.1,21.4,12.9a33.7,33.7,0,0,0,12.3,2.1,23.9,23.9,0,0,0,6.2-1.1A16.9,16.9,0,0,0,677.1,530.6Z" transform="translate(-98.2 -291.9)" fill="#83d98c"/>
      <path d="M707.4,421.4s-3.9,26.8-22.4,24-71.3-24.9-83.7-30.8c0,0,54.9,17.7,77.5,24C678.8,438.6,696.9,447.1,707.4,421.4Z" transform="translate(-98.2 -291.9)" fill="#83d98c"/>
      <path d="M740.1,397.2s-23.9,6.7-49.4,29.2c0,0-7,9.4-27.6-2.7s-34.7-14.5-44.6-15.1c0,0,19.5-6.7,57.9,13.8,0,0,6.3,3.7,16.3-2.7S720.7,401.6,740.1,397.2Z" transform="translate(-98.2 -291.9)" fill="#83d98c"/>
      <path d="M708.9,416.8l-10.1,7.8a73.6,73.6,0,0,0-9.5,8.5,11.5,11.5,0,0,1-6.1,2.1,18.6,18.6,0,0,1-6.4-.6,24.1,24.1,0,0,1-5.9-2.5c-1.8-1.2-3.6-2.3-5.4-3.4a244.5,244.5,0,0,0-22.8-11.6c-3.9-1.8-7.8-3.4-11.8-4.9l-3-1.1-3-1-1.5-.5-1.6-.4a25,25,0,0,0-3.1-.6,25,25,0,0,1,3.2.5l1.6.4,1.5.4,3.1,1,3,1c4,1.5,8,3.1,11.9,4.8s7.8,3.5,11.6,5.4,7.6,3.9,11.3,6c1.8,1.1,3.6,2.3,5.4,3.4a23.6,23.6,0,0,0,5.8,2.5,18.2,18.2,0,0,0,6.3.6,11.2,11.2,0,0,0,5.9-2,72.7,72.7,0,0,1,9.6-8.5Z" transform="translate(-98.2 -291.9)" fill="#83d98c"/>
      <path d="M743.7,393.4l-25.6,9.9-12.8,5c-4.2,1.7-8.5,3.4-12.6,5.3l-1.5.7-1.7.8a12.2,12.2,0,0,1-3.6.8,22.9,22.9,0,0,1-7.1-.8,128.4,128.4,0,0,1-13-4.5c-8.5-3.3-17.1-6.2-26.2-7.5a79.9,79.9,0,0,1,13.6,2.1c4.5,1.1,8.8,2.5,13.2,4s8.6,3.1,13,4.2a21.7,21.7,0,0,0,6.5.7,10.2,10.2,0,0,0,3.1-.7l3-1.5c4.2-2,8.5-3.6,12.7-5.3l12.9-4.7Q730.6,397.3,743.7,393.4Z" transform="translate(-98.2 -291.9)" fill="#83d98c"/>
      <path d="M704,423.3c-2.8,2.8-5.6,5.6-8.5,8.3a58.9,58.9,0,0,1-4.6,3.7l-2.5,1.6a5.6,5.6,0,0,1-1.5.5h-1.5a39.9,39.9,0,0,1-5.9-1l-5.8-1.5c-3.8-1.1-7.6-2.3-11.3-3.6-7.5-2.7-14.8-5.6-22.1-8.8l-10.8-4.9-10.7-5.2,10.8,5,10.9,4.8c7.3,3.1,14.7,6,22.1,8.6,3.7,1.3,7.5,2.6,11.3,3.7l5.7,1.5a39.6,39.6,0,0,0,5.8,1c2,.4,3.7-.9,5.3-2s3.1-2.4,4.6-3.7C698.3,428.8,701.2,426.1,704,423.3Z" transform="translate(-98.2 -291.9)" fill="#83d98c"/>
      <path d="M573.1,612.9s-22.2,7.5-55.6-59.5-78.8-104.8-88.3-105.1c0,0,45.4,33.6,59,63.9,0,0-71.3-88.7-69-65.5.2,1.8,31.6,20.2,56.5,55.4s-1.1.9-1.1.9-42.4-50.2-59.5-54.8c0,0,50.2,43.1,55,57.9,0,0-49.6-53.2-60.4-55.9,0,0,49.8,44.7,50.4,59.5,0,0-40-51.5-59.9-57.1,0,0,35.3,26.4,40,48.7,0,0-27.3-39.6-50-47.9,0,0,28.9,21.6,40.6,45.2s20.9,48,21.6,81.5,13.4,57.2,29.4,58.6c0,0-16.6-9.6-20.3-28,0,0,14.4,27.3,28.4,27,0,0-11.3-4-25.9-41,0,0,15.8,39,36.1,37.8,0,0-24.2.7-38.8-65.1,0,0,11.8,60.6,46.8,62.7,0,0-18,3.6-37.1-45.9,0,0,20.8,47.6,46.2,45,0,0-31.3-6.2-47.3-69.1,0,0,22.9,67.9,58.8,65.9,0,0-23.9,1.5-41.9-48.9,0,0,20.8,47.5,50.3,45.9,0,0-12.4,3.5-31.4-27.3,0,0,17.5,28,35.5,25.8,0,0-23.5,1.4-49-63.3,0,0,25.6,57.1,56.6,62.5,0,0-28.6-7.6-56-76.3,0,0,31.6,71.4,62.8,74.3,0,0-26.3-8-50.8-59.4,0,0,37.4,59.9,58.1,57.2,0,0-24.3-6.3-46.1-47.4C516.7,571,556.4,625.5,573.1,612.9Z" transform="translate(-98.2 -291.9)" fill="#2e983b"/>
      <g>
        <path d="M741.4,391.1s-78.7-1.9-119.6,9.9-179,33-206,38.9-217,24-233.1,42c0,0,183.1-24.1,214.9-29.9s129.2-17.1,199.6-35.7S741.4,391.1,741.4,391.1Z" transform="translate(-98.2 -291.9)" fill="#83d98c"/>
        <path d="M741.4,391.1c-23.7-.3-47.3.3-70.9,2.4a337,337,0,0,0-35.1,4.7l-4.3.9-4.3,1.1-8.6,2.3-4.3,1.2-4.3,1-8.6,2c-23.1,5.1-46.4,9.4-69.7,13.6s-46.6,8.2-69.9,12.3c-11.7,2-23.3,4.1-34.9,6.2l-8.7,1.7-8.8,1.6-17.6,2.5L321,453.7c-23.4,3.2-46.9,6.5-70.2,10.4-11.6,2-23.3,4.1-34.8,6.7-5.8,1.3-11.5,2.7-17.1,4.4-2.8.9-5.6,1.8-8.3,2.9s-5.4,2.4-7.2,4.3l-.9-1.7q70.2-9.2,140.3-18.8l35-4.9c11.7-1.7,23.4-3.3,35-5.2s23.3-3.8,35-5.5l35-5.1c23.3-3.5,46.6-7.2,69.8-11.5l8.7-1.6,8.7-1.7,17.3-3.6,17.2-3.9,17.2-4.3,8.6-2.1,8.6-2,4.3-1,4.3-.9,8.7-1.8c11.6-2.3,23.2-4.5,34.8-6.4C694.5,396.5,717.9,393.3,741.4,391.1Zm0,0c-23.5,2.4-46.8,5.8-70.1,9.8-11.6,2-23.2,4.3-34.8,6.6l-8.6,1.9-4.3.9-4.3,1-8.6,2-8.6,2.2c-22.8,6.1-45.9,11.1-69.1,15.4s-46.5,8.2-69.8,11.8l-35,5.3-17.5,2.6-17.4,2.9c-11.7,1.9-23.3,3.6-35,5.3l-35.1,5q-70.1,9.7-140.3,19l-2.9.4,2-2c2.4-2.4,5.2-3.6,7.9-4.8s5.6-2.1,8.5-3c5.7-1.7,11.5-3.2,17.2-4.5,11.6-2.6,23.2-4.7,34.9-6.7,23.3-3.9,46.8-7.2,70.2-10.4l70.4-9.1,17.5-2.5,8.7-1.6,4.4-.9,4.4-.8c11.6-2.1,23.3-4.1,35-6.1,23.3-4,46.7-7.9,70-12s46.6-8.3,69.7-13.3l8.6-2,4.3-1,4.3-1.1,8.6-2.2,4.3-1,4.4-.9a337.5,337.5,0,0,1,35.2-4.5C694,391.1,717.7,390.7,741.4,391.1Z" transform="translate(-98.2 -291.9)" fill="#24732e"/>
      </g>
      <path d="M517.6,567s-19.4-42.4-24.5-50c0,0,8.8,19.4,10.1,26.9s-17-21.2-24.6-32.1c0,0,16.6,24,18.8,30.9a3.4,3.4,0,0,1,.2,1.3c-.5,3.9-21.7-31.7-23.6-34.3,0,0,15.8,29.6,16.3,33.7,0,0-22.1-33-28.7-40.9,0,0,14.7,20.1,17.3,33.8s14.3,45.2,18.9,51.5c0,0-13.7-44.9-14.5-47s1.7.8,1.7.8l14.2,27.8c1.6,3.2.4-1.5.4-1.5l-6.8-21.5s13.8,25.6,13.3,23.9-10.6-25.8-10.2-24.5,20.5,29.8,19.9,28.1-12.4-22.8-12.4-22.8Z" transform="translate(-98.2 -291.9)" fill="#24732e"/>
      <path d="M462.2,519.6a128.1,128.1,0,0,1,3.4,41.1l-8.1-29.1s3.9,7.1,3.6,37.7c0,0-8-34.3-22-60.3,0,0,15,22.4,16,32.8L441.5,504s13.3,20.1,14.4,31c0,0-8.5-28.9-15.1-43.5,0,0,16.5,30.3,20.8,42.4,0,0-3.3-17.1-12.2-31.4C449.5,502.5,455.7,505.5,462.2,519.6Z" transform="translate(-98.2 -291.9)" fill="#24732e"/>
      <path d="M628.9,573.2" transform="translate(-98.2 -291.9)" fill="#54ed74"/>
      <path d="M630,572.4s-10,11.6-32.2-25.6-96.5-98.9-130.4-103.2c0,0,93.8,52,109.4,94.3s24.5,39.6,31.6,42.3S624.8,573.7,630,572.4Z" transform="translate(-98.2 -291.9)" fill="#2e983b"/>
      <path d="M610.6,584s-8.7,12.5-51.7-59.1-82.1-69.3-91.5-75.8c0,0,59.1,23.5,84.7,71.2S594.2,589.4,610.6,584Z" transform="translate(-98.2 -291.9)" fill="#2e983b"/>
      <path d="M442.1,638.2s-21.4-7.4-16.9-61.6-1.1-75.3-48.7-116.5c0,0,44,41.6,40.3,69.2S393.5,629.7,423,636.1,442.1,638.2,442.1,638.2Z" transform="translate(-98.2 -291.9)" fill="#2e983b"/>
      <path d="M429.2,632.4s-18.5-8.4-9.9-88.1c0,0-7.8,49.3-2.5,71.9a64.5,64.5,0,0,1-3.1-38.8s-9.3,42.3,3.9,53.1Z" transform="translate(-98.2 -291.9)" fill="#24732e"/>
      <path d="M355.1,463.4l1,.9c5.7,5,33.2,30.3,36.6,50.5,3.9,22.6,1.1,43.8-20.7,76s-5.7,27.4-4.8,28.5l.9,1.1s-39.8-14-56.1-32.1c0,0-7,1.5,8.9-7.9s52.5-38.5,32.5-76-26.5-39.9-26.5-39.9,28,20.5,35.9,41.2c0,0-17.1-34.8-29.5-43,0,0,23.9,16.8,32.4,40.6,0,0-3.6-21.8-27.6-40.4,0,0,7.9,1,27.6,28.6a77.2,77.2,0,0,0-22.9-29.9s35.4,24,39.5,48.8C382.3,510.6,396.4,507.9,355.1,463.4Z" transform="translate(-98.2 -291.9)" fill="#2e983b"/>
      <path d="M389,513.4s7.6,39.6-20.9,70.4c0,0-15.2,15.3-14.2,24.8,0,0-3.1-12.5,14-31.8,0,0-23.8,17.4-21.1,27.7l2.7,6.1s-9.6-4.5-7.8-9.9,19.6-20.2,23.3-28.1c0,0,22.2-41.8,6-71.2,0,0,11.3,11.9,9.1,38.6,0,0,1.9-22.3-.5-29,0,0,10.2,19.4-1.4,43.3,0,0,10.6-15.1,7.2-40.2,0,0,5.7,29-8.7,49.2C376.8,563.3,389.6,550.7,389,513.4Z" transform="translate(-98.2 -291.9)" fill="#24732e"/>
      <path d="M306.2,467.2s42.5,40.9,23.1,61.9a20.6,20.6,0,0,0,.6-17.5s-1.1,20.5-21.8,32.8c0,0,18.3-10.9,19.3-29.1,0,0-1.5,10.6-7.4,15.2,0,0,6.5-8.9,5-19.3,0,0-13.9,34.7-36.2,38.9,0,0,17.2-4.6,28.2-28.9,0,0-10.8,17-20.8,21.5,0,0,10.2-4.9,18.3-23.2,0,0-20.9,27.5-34.9,25.9,0,0,27.1-4.7,30.2-31.2,0,0-4.8,14.6-11.2,17.8,0,0,8.8-6,6.2-20.4,0,0-9.6,25.7-20.6,27.4,0,0,25.3-13.4,9.6-49.5s-.8-.4-.8-.4,12.4,40-15.7,49.8c0,0,23.6-8.4,15.2-40.8,0,0,2.9,29-17.5,37,0,0,17-9.5,13-27.5,0,0-1.9-20.9-25.6-35.6,0,0,14.3,7.4,22.9,18.4,0,0-11.3-16.6-17.8-19,0,0,10.5,5.7,15.6,10.4,0,0-.2-8.4-6.4-11.8,0,0,6.1,4.1,13.2,17.5,0,0-5.7-13.3-9.4-18.3,0,0,6,1,15.9,15.6L285,469.1l4.9,3.2-3.1-3.3,7.8,3.5-4.5-3.7,10.1,5.5-8.9-7.5,13.8,15.7-6.9-14.8s13.4,18.1,13.1,17.3-11.1-18-11.1-18,12.2,13.8,11.8,12.7-9.6-13.8-9.6-13.8l8.7,8.5Z" transform="translate(-98.2 -291.9)" fill="#2e983b"/>
      <path d="M256.8,473.5s53.9,40.3-4.4,73.6l-74.8-60.3,6.8-5.6s21.3,17.5,20.5,15.2-16.4-16.1-16.4-16.1,21.3,17.4,19.5,14.3S192.3,479,192.3,479l24.2,15.1-13.2-14.1,12.6,5.5-5.2-5.7,9.8,4.6-4.6-5.9,8.5,2.6-3.7-6.8,8.5,6.3-2.1-4.2,10.6,5-2.2-6.1,10.9,4.2-3.3-3.8,6.2,1.5-3.8-3.6s11.9,7,11.3,5.4-5.9-6-5.9-6Z" transform="translate(-98.2 -291.9)" fill="#2e983b"/>
      <path d="M473,428.2s14.4-33.3-5.6-76.9-8.8-43.8-3.8-47.5,26.3-8.8,26.3-8.8-20.5-8.3-36.9,8.8c0,0,.1-5,6.9-8.7,0,0-14.5,1.4-17.8,13.3,0,0-1-11.5,6.2-14.1,0,0-15.2,4.8-15.2,13.6a12.8,12.8,0,0,1,7.4-12.7s-26.8,2.1-15.4,28.7c0,0-11.7-15.2-3.9-23.1,0,0-11.1,4-1.2,29.9,0,0-20.8-23.2-.2-33.8,0,0-20.4,4.2-8.7,28.2s39.3,73,28,102.8c0,0,7.4-19.6,4.5-39.8,0,0,8,32.9-.7,45.4,0,0,9-13.3,8.1-21.1l-3.2,22.5,5.3-21.9V434l3.9-27.7.4,25.6,4.7-23.6-2.5,22.8,5.3-21.9-2.5,22.8,6.7-25-1.9,24.5s4.9-16.1,1.9-33.3C469.2,398.2,473.4,409.9,473,428.2Z" transform="translate(-98.2 -291.9)" fill="#2e983b"/>
      <path d="M469.9,386.2s.1-20.7-19.2-58.9-.4-1.2-.4-1.2-5.2-11.8-2.9-15.9c0,0-4.4,10-3.1,17.1a12.6,12.6,0,0,0,.5,1.7c2.5,7.1-8.7-19-7.1-23.8,0,0-1.2,16.4,4.7,28.9,0,0-13-12.7-12.9-25.5,0,0,.2,13.6,7.4,24.6a41.8,41.8,0,0,1-12.1-20.6s2.8,11.7,14.9,36.5,10.9,37,10.7,49.7c0,0,2.3-34.2-8.2-53,0,0,13.2,13.1,16.1,37,0,0-.4-21-10.3-38.1,0,0,20.5,28.4,16.7,58.4,0,0,4.3-14.2-4.7-42Z" transform="translate(-98.2 -291.9)" fill="#24732e"/>
      <path d="M412.3,439.2s16.6-56.2-24-92-30.2-25.4-28.5-29.8-.4-1.2-.4-1.2l3.8-5.1S290.6,346,271,376.5c0,0,49-18,79.3,16.8s21,50.8,21,50.8,11.5-15.1-13.6-53.8l-1.1-1.6s21.1,28.7,23.1,52.8c0,0,.9-34.7-27.9-66.5l-1-1.1s34.3,32.8,33.5,67.4c0,0,3.3-22.3-9.4-46,0,0,17.6,30.8,16.8,45.7,0,0-3.4-29.3-10-42.5,0,0,15.3,34.9,14.8,44,0,0-1.8-17.4-5.2-30.1l-.4-1.3c-3.6-12.8,13.2,22.5,9.9,31.7,0,0-2.6-55-1.1-40,.2,1.8,6.1,36.8,6.9,38.9,0,0,1.9-23.7-3-41.2C403.6,400.5,413.7,414.3,412.3,439.2Z" transform="translate(-98.2 -291.9)" fill="#2e983b"/>
      <path d="M404.6,402a56.4,56.4,0,0,0-1.5-12.5,70.4,70.4,0,0,0-3.9-12,75.7,75.7,0,0,0-13.5-21.1,80.7,80.7,0,0,0-9-8.7c-1.6-1.4-3.3-2.6-4.9-3.9l-2.6-1.8-2.6-1.8c-3.5-2.4-7.2-4.3-10.9-6.4a38.2,38.2,0,0,1-5.2-3.7,16.1,16.1,0,0,1-2.2-2.3,5.6,5.6,0,0,1-1.2-2.9,5.5,5.5,0,0,0,1.4,2.7,16,16,0,0,0,2.3,2.1,37.4,37.4,0,0,0,5.4,3.3,124.2,124.2,0,0,1,11.3,5.9,87.9,87.9,0,0,1,10.5,7.3,79.7,79.7,0,0,1,9.3,8.8,75.9,75.9,0,0,1,7.7,10.3,68.3,68.3,0,0,1,5.7,11.5,60.5,60.5,0,0,1,4.1,18.7A38.3,38.3,0,0,1,404.6,402Z" transform="translate(-98.2 -291.9)" fill="#24732e"/>
      <path d="M399.5,399.6a45.8,45.8,0,0,0-2.5-12.6,59.3,59.3,0,0,0-5.3-11.6,71,71,0,0,0-16.8-19.1,103.1,103.1,0,0,0-21.9-13.3,65.9,65.9,0,0,1-11-6.7,22.3,22.3,0,0,1-4.5-4.6,7.6,7.6,0,0,1-1.3-3,4.4,4.4,0,0,1,.7-3.1,4.3,4.3,0,0,0-.5,3.1,7.4,7.4,0,0,0,1.3,2.9,22,22,0,0,0,4.6,4.4,65.7,65.7,0,0,0,11.1,6.4l5.8,2.8c1.9,1,3.8,2,5.7,3.1a87.5,87.5,0,0,1,10.7,7.3,70.1,70.1,0,0,1,16.9,19.5C396.6,382.6,399.5,391,399.5,399.6Z" transform="translate(-98.2 -291.9)" fill="#24732e"/>
      <path d="M398.9,424.3s.2-57.4-45.7-73.9c0,0-28.5-10-29.5-16.7a21,21,0,0,0,7.4,12.9s-19.1-3.5-19.6-4.8,40,10.6,52.2,23.6S388.4,392.3,398.9,424.3Z" transform="translate(-98.2 -291.9)" fill="#24732e"/>
      <path d="M387.9,406.6s-13.2-47.4-78-59C309.9,347.6,359.7,359.4,387.9,406.6Z" transform="translate(-98.2 -291.9)" fill="#24732e"/>
      <path d="M369.9,390.5s-18.6-38.9-80.2-31C289.8,359.5,334,351.7,369.9,390.5Z" transform="translate(-98.2 -291.9)" fill="#24732e"/>
      <path d="M355.5,384.4l-1.4-1c-7.2-5.3-41.5-28.7-72.4-13.4C281.7,369.9,313.1,359.1,355.5,384.4Z" transform="translate(-98.2 -291.9)" fill="#24732e"/>
      <path d="M571,318.6h-1c-4.5-.1-22.6,1.7-25.2,38.9-3,42.4-5.8,61-5.8,61s-2-25-4.9-27.7L527,421.4s-.7-31.7-1.2-36.5c0,0-6.2,31.7-9.1,35.8,0,0-7.9-97.4-.7-101.9s1.4-13.7,28.1-10.7" transform="translate(-98.2 -291.9)" fill="#2e983b"/>
      <path d="M555,319.3s-19.1,6.2-19.2,51.4l.2-34.5-4,46.5-2.8-35.9-3.6,32L524,336l-8.3,57.5s-6.1-66.1,6.4-73.1,20.8-6.8,32.2-2.8" transform="translate(-98.2 -291.9)" fill="#24732e"/>
      <path d="M723.3,386.9s-28-10-49.3-11.8-27.3-20.3-39.5-24.7c0,0-22.9,11.3-28.2,31.4,0,0,2.6-24.1,25-33.4,0,0-11.9-5.2-38.9,38.3,0,0,14-34.4,29.1-43s-.4-1.1-.4-1.1-26.3,15.7-33.5,28.9c0,0,18-30.2,24-31.1,0,0-17.5,0-35.4,55.3l-5,15.6c-9.8,31.2.9.9.9.9l9-17-5.4,16.3,9.6-20.4-5.7,20.8,8.7-12.5-4.6,9.8,9-13.3-6.1,12.8,13-26.6-9.5,26s23.8-31.7,28.3-36.4l-21.8,35.4,9.4-7.1-.6,5.2,4.2-5.9s.7,7.3,2,5.6,9.9-9.2,9.9-9.2l-3.2,6.8,14-15-9.8,14.8,11.3-12.2-7.1,10,12.8-11.5-8.9,11.9,11-9.6-2.9,6" transform="translate(-98.2 -291.9)" fill="#2e983b"/>
      <path d="M644.8,367.4s-26.9,17.8-31.2,24.9l20.7-33.1-4.2,10.9Z" transform="translate(-98.2 -291.9)" fill="#24732e"/>
      <path d="M301.5,453.2s30-35.2,7.3-51.5-52.2-7.6-54.6-5.5c0,0,24-9.8,37,3.7,0,0-37.5-1.6-41,.9s-.6-1.7-.6-1.7,31.7-2.6,37.7,10.9c0,0-14.7-6-26-4.5,0,0,14.8,1,17.1,7.6,0,0-28.9-5.3-40.1-.1,0,0,20.1-1.3,24.9,7l.4.8c3.9,9.2-3.3-5.7-15.9-2.5,0,0,22.9,7.8,16.7,17.8l-.6.9c-8.2,10.4,6.9-15.6-27.8-9.5,0,0,26.7-.8,15,14a213.8,213.8,0,0,1-23.5,25.3s30.2-18.9,29.7-25.6l-16.1,23.3,11.5-11.6-5.9,11.5,13-10.9-5.2,10L265.1,453l-4.8,11.1,9.8-14.8s-6.4,15.4-5.1,13.7,12.5-15.8,12.5-15.8L272.9,459l9.7-18.5-6.9,19.4,9.5-19-4.5,17.3s22.1-22.3,11.6-25.4c0,0,29.5,15.7-7.3,25.2-24.7,6.3,14.3-12.6,14.3-12.6L290.4,459l14-23.8Z" transform="translate(-98.2 -291.9)" fill="#2e983b"/>
      <path d="M320.7,450.7a79.2,79.2,0,0,0,2.4-13.3,67.8,67.8,0,0,0,.1-13.5,48.1,48.1,0,0,0-3-13.1,34.3,34.3,0,0,0-7.2-11.2,37.1,37.1,0,0,0-10.9-7.7,51.7,51.7,0,0,0-6.3-2.3l-1.6-.5-.8-.2-.8-.2-3.3-.7a32.7,32.7,0,0,0-3.3-.5l-3.4-.4-6.8-.3H269l-6.8.4c9-1.1,18.2-1.5,27.2.1l3.4.6.8.2.8.2,1.6.5a52.5,52.5,0,0,1,6.4,2.3,38,38,0,0,1,11.2,7.9,35.3,35.3,0,0,1,7.3,11.6,46.3,46.3,0,0,1,3,13.3A71.9,71.9,0,0,1,320.7,450.7Z" transform="translate(-98.2 -291.9)" fill="#2e983b"/>
      <path d="M343.5,444.4a75.1,75.1,0,0,0-2.8-14.3,78.7,78.7,0,0,0-5.3-13.6,68.2,68.2,0,0,0-7.8-12.2,59.4,59.4,0,0,0-10.4-10.1,57.6,57.6,0,0,0-12.5-7.3l-1.7-.7-1.7-.6-3.4-1.2c-2.3-.6-4.6-1.4-7-1.8a105.9,105.9,0,0,0-29-1.7l7.3-.6h7.3a89.9,89.9,0,0,1,14.6,1.6,66.5,66.5,0,0,1,7.1,1.7l3.5,1.2,1.7.6,1.7.7a58.4,58.4,0,0,1,12.7,7.4,62.1,62.1,0,0,1,18.3,22.7A76.1,76.1,0,0,1,343.5,444.4Z" transform="translate(-98.2 -291.9)" fill="#2e983b"/>
      <path d="M361.5,442.4a85.1,85.1,0,0,0-4.6-14.9,91.9,91.9,0,0,0-7-13.9,74.9,74.9,0,0,0-21.1-22.6l-3.2-2.1-3.4-2a72.8,72.8,0,0,0-7.1-3.3c-2.4-1.1-4.9-1.8-7.3-2.6L304,380l-1.9-.5-1.9-.3a109,109,0,0,0-31.1-.9l7.8-.9,3.9-.2h3.9c2.6.1,5.2,0,7.8.3l3.9.4,3.9.6,1.9.3,1.9.4,3.8.9c2.5.8,5,1.5,7.5,2.6a73.7,73.7,0,0,1,7.2,3.3l3.4,2,3.3,2.2a74.5,74.5,0,0,1,21.2,23A87.4,87.4,0,0,1,361.5,442.4Z" transform="translate(-98.2 -291.9)" fill="#2e983b"/>
      <path d="M366.4,443.7s-1.7-58.9-53.2-68.1c0,0,47.9,21.7,47.8,61.9,0,0-19.1-35.8-33.6-41.3,0,0,30.6,32.9,21.1,52,0,0,5.8-6.5,5.3-13.2l7.5,12.3Z" transform="translate(-98.2 -291.9)" fill="#83d98c"/>
      <path d="M420.6,437.5s17.4-47.6-17-86-37.1-40.6-17.4-47l19.8-5.8s-26.4,3.2-23.4,15.2,40.3,33.8,42.8,61.8S430.4,409,420.6,437.5Z" transform="translate(-98.2 -291.9)" fill="#83d98c"/>
      <path d="M424.5,436.1a133.9,133.9,0,0,0,6.1-22,126.6,126.6,0,0,0,2.5-22.7,101,101,0,0,0-.5-11.4,83,83,0,0,0-1.8-11.2c-.5-1.8-.9-3.7-1.5-5.5s-.6-1.8-.9-2.7l-1.1-2.6a27.7,27.7,0,0,0-1.2-2.6l-1.2-2.6-1.4-2.5A25.8,25.8,0,0,0,422,348l-1.6-2.4c-.5-.8-1.1-1.5-1.7-2.3l-1.8-2.2L415,339a98.7,98.7,0,0,0-8.4-7.7q-8.7-7.5-17.5-14.7l-4.4-3.6-2.2-1.9a2.4,2.4,0,0,1-.5-.7.5.5,0,0,1,.2-.6h.7l1.4.2a13.4,13.4,0,0,0,5.6-.1,8.9,8.9,0,0,0,2.5-1.1l2.5-1.4c3.4-1.8,6.8-3.4,10.3-5s7.1-2.9,10.7-4.2q-5.4,2-10.6,4.4c-3.5,1.6-6.9,3.3-10.2,5.2l-2.4,1.5a9.5,9.5,0,0,1-2.7,1.2,14,14,0,0,1-5.8.2l-1.4-.2h-.3a.2.2,0,0,0,.1-.2l.4.4,2.2,1.8,4.5,3.6c6,4.8,11.8,9.7,17.6,14.6a99.6,99.6,0,0,1,8.5,7.8l2,2.1,1.8,2.2c.6.8,1.2,1.5,1.7,2.3l1.6,2.4a26.5,26.5,0,0,1,1.5,2.5l1.4,2.5L427,355a28.4,28.4,0,0,1,1.2,2.6l1.1,2.7c.3.9.6,1.8.9,2.7s1.1,3.7,1.5,5.5a83.9,83.9,0,0,1,1.8,11.4,91.9,91.9,0,0,1,.4,11.5,126.4,126.4,0,0,1-2.7,22.8A134.1,134.1,0,0,1,424.5,436.1Z" transform="translate(-98.2 -291.9)" fill="#83d98c"/>
      <path d="M591.3,599.5s-40.2-12.6-61.5-63.2-47.5-64.5-80.6-87.1-1-.9-1-.9,64.2,42.8,70.3,75.7S558.4,625,591.3,599.5Z" transform="translate(-98.2 -291.9)" fill="#83d98c"/>
      <path d="M598.3,594.5a40,40,0,0,1-13-3.5,61.5,61.5,0,0,1-11.6-6.8,87.9,87.9,0,0,1-18.7-19.3,115.4,115.4,0,0,1-7.3-11.4c-2.2-3.9-4.2-8-6.3-12-4.2-8-8.5-15.9-13.2-23.5-9.4-15.3-20.2-30-33.9-41.7a122.9,122.9,0,0,0-10.7-8.2c-3.7-2.5-7.6-4.8-11.5-7l-11.6-7-5.7-3.7-2.8-2-1.3-1a8.1,8.1,0,0,1-1.3-1.2l-.5-.6.8.3c9.5,4,18.9,8.3,28.1,13a248.9,248.9,0,0,1,26.5,15.9,160.2,160.2,0,0,1,23.8,19.7,101,101,0,0,1,10,11.8,67.5,67.5,0,0,1,4.1,6.5,36.7,36.7,0,0,1,3.1,7.1h0c7,14.4,14.5,28.7,23.5,42,2.3,3.3,4.6,6.6,7.2,9.7a86.9,86.9,0,0,0,8.1,8.9,41.7,41.7,0,0,0,9.7,7,18.9,18.9,0,0,0,5.7,1.8,8.9,8.9,0,0,0,5.8-1,8.9,8.9,0,0,1-5.8,1.1,19,19,0,0,1-5.7-1.8,41.7,41.7,0,0,1-9.8-7,87,87,0,0,1-8.2-8.9c-2.6-3.1-4.9-6.4-7.2-9.6-9.1-13.3-16.6-27.5-23.6-42h0a36.5,36.5,0,0,0-3.1-7,67.2,67.2,0,0,0-4.1-6.5,100.7,100.7,0,0,0-9.9-11.8A159.8,159.8,0,0,0,504,475.1a248.5,248.5,0,0,0-26.5-15.8c-9.1-4.7-18.5-9-28-13l.3-.3,1.2,1.1,1.3,1,2.8,1.9,5.7,3.7,11.5,7c3.9,2.3,7.8,4.5,11.5,7.1a123.2,123.2,0,0,1,10.7,8.2c13.7,11.8,24.6,26.5,33.9,41.8,4.7,7.7,9.1,15.6,13.2,23.6s8.2,16.1,13.5,23.3a87.8,87.8,0,0,0,18.6,19.4,61.4,61.4,0,0,0,11.6,6.8A39.9,39.9,0,0,0,598.3,594.5Z" transform="translate(-98.2 -291.9)" fill="#2e983b"/>
      <path d="M579.8,584.8s-25.7-31.5-46.1-78.1c0,0,1.2-5.4-31.4-28.2" transform="translate(-98.2 -291.9)" fill="none" stroke="#83d98c" stroke-miterlimit="10"/>
      <path d="M468.1,640.4a30.2,30.2,0,0,1-10.2-8.8,43.7,43.7,0,0,1-6.4-12l-1-3.3c-.3-1.1-.5-2.2-.7-3.3l-.3-1.7c-.1-.6-.1-1.1-.2-1.7s-.3-2.3-.4-3.4a13.1,13.1,0,0,1-.1-1.7v-5.1c.2-2.3.3-4.5.5-6.8,0,2.3,0,4.5,0,6.8s.2,4.5.5,6.7.5,4.5,1.1,6.6.5,2.2.8,3.3l1,3.2a45.4,45.4,0,0,0,6,11.9,29.7,29.7,0,0,0,2.1,2.6l1.1,1.3,1.2,1.2A28.2,28.2,0,0,0,468.1,640.4Z" transform="translate(-98.2 -291.9)" fill="#24732e"/>
      <path d="M457.3,639.9a6.4,6.4,0,0,1-4-1.1,18.6,18.6,0,0,1-1.7-1.3l-1.5-1.6a24.9,24.9,0,0,1-2.3-3.6l-1-1.9-.8-2-.8-2-.6-2c-.4-1.4-.9-2.7-1.1-4.1l-.9-4.1c-.3-1.4-.5-2.8-.7-4.2s-.4-2.8-.6-4.2l-.4-4.2-.4-4.2c-.1-1.4-.1-2.8-.2-4.2-.3-5.6-.2-11.3-.1-16.9.2,2.8.3,5.6.4,8.4s.3,5.6.5,8.4.2,2.8.3,4.2l.4,4.2.4,4.2c.2,1.4.4,2.8.6,4.2a80.9,80.9,0,0,0,3.8,16.3l.7,2,.9,1.9a25.1,25.1,0,0,0,2.1,3.6l1.3,1.6a18.4,18.4,0,0,0,1.6,1.4A6.6,6.6,0,0,0,457.3,639.9Z" transform="translate(-98.2 -291.9)" fill="#24732e"/>
      <path d="M450.2,641.2a7.5,7.5,0,0,1-2.5-.7l-1.2-.6-1.1-.8-1-.9-1-.9a26.2,26.2,0,0,1-1.7-2,15.4,15.4,0,0,1-1.5-2.2l-.7-1.1-.6-1.2-1.1-2.4-.6-1.2-.4-1.3-.9-2.5a19.8,19.8,0,0,1-.8-2.5l-1.3-5.2-.9-5.2-.4-2.6-.3-2.6-.5-5.3c-.2-1.8-.2-3.5-.3-5.3l-.2-5.3c-.1-1.8,0-3.5,0-5.3.1-3.5,0-7,.3-10.6s.4-7,.7-10.5c-.1,7-.4,14.1-.2,21.1,0,1.8,0,3.5.1,5.3l.3,5.3c.1,1.8.1,3.5.3,5.3l.6,5.2.3,2.6.4,2.6.8,5.2,1.2,5.1c.1.4.2.9.3,1.3l.4,1.2.8,2.5.4,1.2.5,1.2,1,2.4.6,1.2.7,1.1a15.8,15.8,0,0,0,1.4,2.2,25.8,25.8,0,0,0,1.6,2.1l.9.9,1,.9,1,.8,1.1.7A7.4,7.4,0,0,0,450.2,641.2Z" transform="translate(-98.2 -291.9)" fill="#24732e"/>
      <path d="M413.1,635.7s-25.2-.4-9-63.8,8.5-61.9-25.6-104.9" transform="translate(-98.2 -291.9)" fill="none" stroke="#83d98c" stroke-miterlimit="10"/>
      <path d="M394.2,631.8s-26.5-7.5,5.7-73.5c0,0,30.7-40.4-32.3-97.4" transform="translate(-98.2 -291.9)" fill="none" stroke="#83d98c" stroke-miterlimit="10"/>
      <path d="M437.2,608.9c.2-7.2.5-14.4.5-21.6s.1-14.4-.1-21.6-.4-14.4-1.1-21.5c-.3-3.6-.8-7.1-1.4-10.6a46.6,46.6,0,0,0-2.8-10.2l-.6-1.1-.6-1.1-.7-1-.9-1.1a27.2,27.2,0,0,1-3.1-4.6,96.2,96.2,0,0,1-4.3-10A80.1,80.1,0,0,0,412,485.8l-1.6-2.2-1.7-2.1c-1.2-1.4-2.2-2.8-3.5-4.1l-3.7-3.9-3.9-3.7-1.9-1.9-2-1.8-4.1-3.5-8.4-6.8,8.7,6.3,4.2,3.4,2.1,1.7,2,1.8,4,3.6,3.8,3.9c1.3,1.3,2.5,2.7,3.7,4l1.8,2,1.7,2.2a76.1,76.1,0,0,1,10.6,19,95,95,0,0,0,4.3,9.8,25.3,25.3,0,0,0,2.9,4.3l.8,1,.9,1.2.7,1.2a8.2,8.2,0,0,1,.6,1.3,48.3,48.3,0,0,1,2.9,10.6c.6,3.6,1,7.2,1.3,10.8s.5,7.2.6,10.8.2,7.2.2,10.8c0,7.2-.2,14.4-.5,21.6S437.9,601.7,437.2,608.9Z" transform="translate(-98.2 -291.9)" fill="#24732e"/>
      <path d="M322.3,464.9a123.3,123.3,0,0,1,23,28.8,79.3,79.3,0,0,1,7.3,17,53.2,53.2,0,0,1,2.2,18.4,43,43,0,0,1-5.2,17.8,52.5,52.5,0,0,1-5.2,7.7,63.9,63.9,0,0,1-6.5,6.7,89.5,89.5,0,0,1-15.2,10.6,132.9,132.9,0,0,1-16.8,7.8,142.7,142.7,0,0,0,16.5-8.2,89.3,89.3,0,0,0,14.9-10.8,70.9,70.9,0,0,0,6.3-6.7,51.6,51.6,0,0,0,5.1-7.6,42.1,42.1,0,0,0,5-17.4,52.2,52.2,0,0,0-2.1-18.1,82.7,82.7,0,0,0-7.1-16.9,119.2,119.2,0,0,0-10.1-15.4A132.6,132.6,0,0,0,322.3,464.9Z" transform="translate(-98.2 -291.9)" fill="#24732e"/>
      <path d="M318.5,466.2a126,126,0,0,1,23.2,27.6,76.6,76.6,0,0,1,7.7,16.4,47.5,47.5,0,0,1,2.4,17.9,37.3,37.3,0,0,1-5.7,17.2,50.3,50.3,0,0,1-12.4,13.1,88.1,88.1,0,0,1-15.6,9.1,139.8,139.8,0,0,1-16.9,6.4,151.4,151.4,0,0,0,16.7-6.8,87.9,87.9,0,0,0,15.3-9.3,51.2,51.2,0,0,0,12.1-13,36.4,36.4,0,0,0,5.5-16.8,46.6,46.6,0,0,0-2.3-17.6,80,80,0,0,0-7.5-16.3,119.4,119.4,0,0,0-10.3-14.7A137.1,137.1,0,0,0,318.5,466.2Z" transform="translate(-98.2 -291.9)" fill="#24732e"/>
      <path d="M313.9,466.4a144.6,144.6,0,0,1,22.7,28.1,83.6,83.6,0,0,1,7.8,16.4,45.6,45.6,0,0,1,2.7,18,31.1,31.1,0,0,1-2,8.9,30.5,30.5,0,0,1-4.6,7.9A43.8,43.8,0,0,1,326.3,557c-10.8,5.6-22.8,8.3-34.7,10a161.1,161.1,0,0,0,17.6-4,85.5,85.5,0,0,0,16.7-6.6,44.2,44.2,0,0,0,13.9-11.1,29.5,29.5,0,0,0,6.3-16.4,44.7,44.7,0,0,0-2.5-17.6,87.8,87.8,0,0,0-7.6-16.3,138.2,138.2,0,0,0-10.2-14.9A160.8,160.8,0,0,0,313.9,466.4Z" transform="translate(-98.2 -291.9)" fill="#24732e"/>
      <path d="M309.1,464.9a127.7,127.7,0,0,1,20.1,27,74.4,74.4,0,0,1,6.5,15.6,42.4,42.4,0,0,1,1.5,16.9,30.1,30.1,0,0,1-6.9,15.5,43.2,43.2,0,0,1-13.4,10.4c-10.1,5.2-21.2,7.8-32.3,9.4a149.2,149.2,0,0,0,16.4-3.8,80.8,80.8,0,0,0,15.6-6.2,43.8,43.8,0,0,0,13-10.3,29.2,29.2,0,0,0,6.6-15,41.5,41.5,0,0,0-1.4-16.5,78.1,78.1,0,0,0-6.3-15.5,121.8,121.8,0,0,0-8.9-14.3A141.5,141.5,0,0,0,309.1,464.9Z" transform="translate(-98.2 -291.9)" fill="#24732e"/>
      <path d="M243.9,463.7s39-50.3-25.1-31.7l-39.9,51.2Z" transform="translate(-98.2 -291.9)" fill="#2e983b"/>
      <path d="M421.6,424.6s.1-.6.3-1.8c1.5-10,6.7-58.4-26.2-84.7-36.8-29.4-20.1-22.9-20.1-22.9l-5.8-.4S425.4,356.3,421.6,424.6Z" transform="translate(-98.2 -291.9)" fill="#2e983b"/>
      <path d="M505.9,422.1s4.7-48.1.8-94.2c0,0-2.5-19.2,13.2-26,0,0-32,5.2-25.4,49.8S505.9,422.1,505.9,422.1Z" transform="translate(-98.2 -291.9)" fill="#83d98c"/>
      <path d="M488.8,425s10.4-26.9-6-93.7c0,0-7.4-24.3,14.2-32,0,0-27.4.4-24.7,23.9s22.5,64.6,5.1,105.3c0,0,13.9-3.1,7.4-70.3S488.8,425,488.8,425Z" transform="translate(-98.2 -291.9)" fill="#83d98c"/>
      <path d="M513.9,298.9a15.1,15.1,0,0,0-8.9.1,13.3,13.3,0,0,0-4,2.1,16.7,16.7,0,0,0-1.7,1.5l-1.5,1.7a27.7,27.7,0,0,0-4.1,8,54.6,54.6,0,0,0-2,8.8c-1.7,12-.8,24.2.7,36.2s3.5,24.1,4.9,36.1c.7,6,1.4,12.1,1.9,18.2.2,3,.4,6.1.3,9.1a21.3,21.3,0,0,1-.2,2.3,5.3,5.3,0,0,1-.7,2.2,1.4,1.4,0,0,1-1,.6h-2.3a1.9,1.9,0,0,0-1,.5,1.9,1.9,0,0,1,1-.6h2.3a1.2,1.2,0,0,0,.9-.6,5.2,5.2,0,0,0,.6-2.1,21.1,21.1,0,0,0,.1-2.3c0-3-.3-6.1-.5-9.1-.6-6-1.3-12.1-2.1-18.1l-2.5-18.1c-.9-6-1.8-12-2.6-18.1-1.3-12.1-2.3-24.4-.4-36.5a55.3,55.3,0,0,1,2.2-8.9,28,28,0,0,1,4.3-8.1l1.6-1.7a17.1,17.1,0,0,1,1.8-1.5,13.6,13.6,0,0,1,4.1-2A14.9,14.9,0,0,1,513.9,298.9Z" transform="translate(-98.2 -291.9)" fill="#83d98c"/>
      <path d="M611.1,334.3s-23.6-18.8-46.1,73.3C565,407.7,566.4,323.5,611.1,334.3Z" transform="translate(-98.2 -291.9)" fill="#83d98c"/>
      <path d="M555.1,413.1s-.1-80.3,42.3-84.2C597.4,328.9,559.3,306.3,555.1,413.1Z" transform="translate(-98.2 -291.9)" fill="#83d98c"/>
      <path d="M585.4,324.2s-29.4-15.3-33.6,37.4-8.5,55.2-8.5,55.2" transform="translate(-98.2 -291.9)" fill="none" stroke="#83d98c" stroke-miterlimit="10"/>
    </g>
    <path d="M199.1,474.3s-76-6.5-95.5.9c0,0-10.3,2.4-2.6,14.1s41.2-7,102.4-9.1S199.1,474.3,199.1,474.3Z" transform="translate(-98.2 -291.9)" fill="#2e983b"/>
  </g>
</svg>
