<svg id="r3" xmlns="http://www.w3.org/2000/svg" viewBox="0 0 718.2 484">
  <title>r3</title>
  <g>
    <path d="M269.4,622.9l-8.3,10.2-11.4-35.2-9.7,6.6-15.2-24.1-8,7.3-10.5-39.7-9,5-7.6-32.6-7.6,1.7L173,481.9l-13.7-6.8s-14.3-62.9-14.1-79.4-8.4-78.9-16.2-95S21.1,216.5,21.1,216.5l23.1-10.7,76.9,72s131,5,140.4,1.2-3.5,8.3-3.5,8.3l74.2-13.4-9,11.8,52-.3-2.8,13.5,44.9-4.3-5.2,7.6,27.9,1.1-4.7,8.8,25.3,4.9v6.9L493.8,338l-1.4,10.2,31.9,7.8-7.8,4.5,23.7,17.9-5.9,9.2,27.4,13.7-12,7.6,22.5,4.7-8.7,9,27.7,17.7-8.7,2.1,19.2,17-4.7,8.8,16.8,24.8-12.3-3.3,16.8,17.9-8.7,9,22,30.9-10.4,1.4L636,575.8h-6.9l19.4,34.7-11.1-3.8,37.4,31.6-1.6,6.1,66,31.1-78.3-7-9.9,9.5-37.8-5.4-1.4,17-42.6-17.2-3.5,8.3-32.4-2.1-1.9,9-33.8-26.2,1.9,25.3-33.3-11.3-2.8,6.6-29.1-14.4-5.9,16.1-24.8-17.5-5.2,14.4-26.5-18.2-8.3,10.2L338,650.2l-14.2,12.6-20.4-23.4L286,643.7Z" transform="translate(-21.1 -205.8)" fill="#24732e"/>
    <path d="M465,672.6l-47.3-33.8-47.2-34h-.1l-26-44.1-25.9-44.1h0L292.2,457l-13.1-29.7-13-29.8,13.4,29.6,13.3,29.6,26.5,59.3h0l26,44.1,25.9,44.2H371l47.1,34.1C433.8,649.7,449.4,661.2,465,672.6Z" transform="translate(-21.1 -205.8)" fill="#2e983b"/>
    <path d="M480.8,673.5c-4.5-2.7-8.7-5.8-13-8.8l-12.9-9-25.6-18.2-51.1-36.7H378c-9.3-17.2-18.7-34.3-28-51.5l-27.8-51.6h0L303.5,452,285,406.4l19,45.3,18.9,45.4h0l28,51.5c9.4,17.2,18.6,34.4,27.9,51.6h-.1L429.6,637l25.5,18.4,12.8,9.2C472.1,667.6,476.4,670.7,480.8,673.5Z" transform="translate(-21.1 -205.8)" fill="#83d98c"/>
    <path d="M421.2,622.3a10.6,10.6,0,0,1-3.7-.8A25.8,25.8,0,0,1,414,620a47.1,47.1,0,0,1-6.3-4.2,97.7,97.7,0,0,1-11.1-10.3,217.5,217.5,0,0,1-18.9-23.7c-11.5-16.6-21.6-34.2-31.1-52s-18.2-36.1-26.5-54.5c-2.1-4.6-4.1-9.2-6.1-13.9s-4-9.3-6-13.9c-4-9.3-7.7-18.7-11.6-28,4,9.3,7.9,18.6,12,27.8,2,4.6,4,9.3,6.1,13.9s4.1,9.2,6.3,13.8c8.4,18.3,17.2,36.6,26.7,54.4a541.2,541.2,0,0,0,30.9,52.1,218.3,218.3,0,0,0,18.6,23.9,97.3,97.3,0,0,0,10.9,10.4,46.9,46.9,0,0,0,6.2,4.3,25.7,25.7,0,0,0,3.4,1.6A10.6,10.6,0,0,0,421.2,622.3Z" transform="translate(-21.1 -205.8)" fill="#2e983b"/>
    <path d="M454.9,639.7a65.2,65.2,0,0,1-7.3-3.6l-3.5-2-3.4-2.2a160.3,160.3,0,0,1-13.1-9.6,221.9,221.9,0,0,1-23.6-22.3,305.5,305.5,0,0,1-20.7-25.1c-6.4-8.7-12.4-17.8-18.1-27a507,507,0,0,1-29.7-57.8l-6.3-15c-2-5-4-10.1-5.9-15.1l-5.5-15.3-5.1-15.4,5.3,15.3,5.7,15.2c2,5,4,10.1,6,15.1l6.4,14.9A507.4,507.4,0,0,0,366,547.3c5.7,9.2,11.6,18.3,18,27a304.8,304.8,0,0,0,20.5,25.1,223.2,223.2,0,0,0,23.4,22.4,159.9,159.9,0,0,0,12.9,9.8l3.4,2.2,3.5,2.1A65.1,65.1,0,0,0,454.9,639.7Z" transform="translate(-21.1 -205.8)" fill="#83d98c"/>
    <path d="M387.9,567.8a11.4,11.4,0,0,1-3.1-2.7l-1.3-1.6-1.2-1.7c-.8-1.1-1.6-2.3-2.3-3.4l-1.1-1.7-1-1.8-2.1-3.6-1.9-3.7c-1.3-2.4-2.5-4.9-3.7-7.4-4.8-10-9.2-20.1-13.3-30.4l-3.1-7.7-2.9-7.8-2.9-7.8-2.8-7.8c-1.8-5.2-3.7-10.4-5.4-15.7l-5.2-15.7c3.8,10.4,7.5,20.8,11.4,31.1l2.9,7.8,3,7.7,3,7.7,3.1,7.7q6.1,15.4,13,30.4c1.2,2.5,2.3,5,3.6,7.5l1.9,3.7,2,3.6,1,1.8,1.1,1.8c.7,1.2,1.4,2.4,2.2,3.5l1.2,1.7,1.3,1.6A11.3,11.3,0,0,0,387.9,567.8Z" transform="translate(-21.1 -205.8)" fill="#83d98c"/>
    <path d="M342,550.7s-57.6-105-70.7-149.1S316,506.6,342,550.7Z" transform="translate(-21.1 -205.8)" fill="#2e983b" stroke="#2e983b" stroke-miterlimit="10"/>
    <path d="M316.6,423.6c5.3-1.9,10.7-3.5,16.1-4.9s10.9-2.7,16.4-3.8,11-2,16.6-2.8l8.4-1,8.4-.7a215.6,215.6,0,0,1,33.7.1,182.7,182.7,0,0,1,33.3,5.7A142.5,142.5,0,0,1,480.7,429l3.7,2.1,3.6,2.2,7.2,4.3,14.4,8.7q14.4,8.7,28.9,17.1l14.6,8.3,7.4,4c2.5,1.3,4.9,2.6,7.5,3.8-5.2-2.1-10.2-4.7-15.1-7.3l-14.8-8c-9.8-5.4-19.5-11-29.2-16.6L494.3,439l-7.2-4.3-3.6-2.2-3.6-2A141,141,0,0,0,448.9,418c-21.5-6-44.1-7.5-66.4-6.2l-8.4.6-8.3.9c-5.6.6-11.1,1.5-16.6,2.5A262.4,262.4,0,0,0,316.6,423.6Z" transform="translate(-21.1 -205.8)" fill="#2e983b"/>
    <path d="M459.8,430.3s-53.2-22.3-145-7.6" transform="translate(-21.1 -205.8)" fill="none" stroke="#2e983b" stroke-miterlimit="10"/>
    <path d="M574.7,484.5s-108-125.4-274.2-73" transform="translate(-21.1 -205.8)" fill="none" stroke="#2e983b" stroke-miterlimit="10"/>
    <path d="M548.4,449.8c-2-2.3-83.7-98.1-275.1-52.1" transform="translate(-21.1 -205.8)" fill="none" stroke="#2e983b" stroke-miterlimit="10"/>
    <path d="M518.2,415.6s-125.6-72-273.8-41.2" transform="translate(-21.1 -205.8)" fill="none" stroke="#2e983b" stroke-miterlimit="10"/>
    <path d="M267.3,387.8s79.4-12.4,100.7-10.6c0,0-67.6-6.8-119.9-1.2l55.5,2.4Z" transform="translate(-21.1 -205.8)" fill="#2e983b"/>
    <path d="M306.3,418.4l2.6-.7c16.5-4.4,107.1-26.9,150.7-4.3C459.7,413.4,356.4,387,306.3,418.4Z" transform="translate(-21.1 -205.8)" fill="#83d98c"/>
    <path d="M509,428.6l-.6-.7-.6-.6-1.3-1.1-2.8-2.1-2.9-1.9-3-1.8c-4-2.4-8.1-4.5-12.3-6.5a186.1,186.1,0,0,0-25.9-10,220.5,220.5,0,0,0-27-6.4l-6.9-1.1-6.9-.9-6.9-.6-6.9-.4a235,235,0,0,0-27.8.3l-3.5.2-3.5.3-6.9.7-6.9,1-3.4.5-3.4.6-6.9,1.2-6.8,1.4-3.4.7-1.7.4-1.7.4-6.7,1.7-3.4.9-3.3,1-6.7,2-13.2,4.4,13.1-4.7,6.6-2.1,3.3-1,3.4-.9c4.5-1.2,9-2.5,13.5-3.4l6.8-1.5,6.9-1.3,3.4-.6,3.5-.5,6.9-1,6.9-.7,3.5-.3,3.5-.2a235.2,235.2,0,0,1,27.9-.3l7,.4,7,.6,6.9.9,6.9,1.1a208,208,0,0,1,27.1,6.5,185.5,185.5,0,0,1,25.9,10.3c4.2,2,8.3,4.3,12.2,6.7l2.9,1.9,2.9,2,2.8,2.1,1.3,1.1.6.6Z" transform="translate(-21.1 -205.8)" fill="#83d98c"/>
    <g>
      <path d="M591.1,471.7c-10.9-11.4-23.2-21.4-35.9-30.8a382.1,382.1,0,0,0-39.9-25.5A396.1,396.1,0,0,0,472.7,395a386.9,386.9,0,0,0-44.8-15.3,402.6,402.6,0,0,0-46.2-10.2l-5.8-1-5.9-.8-11.7-1.5-11.8-1-5.9-.5-5.9-.3-11.8-.5H299.1l-11.8.5-5.9.2-5.9.5-11.8.9-5.9.6-5.9.7-11.8,1.4,11.7-1.5,5.9-.8,5.9-.7,11.8-1,5.9-.5,5.9-.3,11.8-.5h23.7l11.8.5,5.9.3,5.9.5,11.8,1,11.8,1.4,5.9.8,5.9,1a402.1,402.1,0,0,1,46.3,10A387.8,387.8,0,0,1,473,394.3a396.9,396.9,0,0,1,42.7,20.6,380,380,0,0,1,39.8,25.7C568.1,450,580.3,460.2,591.1,471.7Z" transform="translate(-21.1 -205.8)" fill="#83d98c"/>
      <path d="M244.5,377.4c6.3-1.5,12.6-2.7,19-3.8s12.8-1.9,19.2-2.5a386.1,386.1,0,0,1,38.7-2.2h9.7l9.7.3c6.4.4,12.9.6,19.3,1.4l4.8.5,4.8.5,9.6,1.3c3.2.4,6.4,1,9.5,1.6l9.5,1.8c-12.7-2.1-25.5-4-38.4-4.9l-4.8-.4-4.8-.3-9.7-.5-9.7-.2h-9.7c-12.9,0-25.8.7-38.6,1.9-6.4.6-12.8,1.4-19.2,2.3S250.9,376,244.5,377.4Z" transform="translate(-21.1 -205.8)" fill="#83d98c"/>
      <path d="M254.1,380.8c6.9-1.3,13.8-2.3,20.8-3.2s13.9-1.6,20.9-2.1q21-1.7,42-1.4a343.2,343.2,0,0,1,41.9,3.2c6.9,1,13.8,2.3,20.7,3.8s13.6,3.6,20.2,5.8q-10-3.1-20.3-5.3c-6.9-1.4-13.7-2.6-20.7-3.6a359.2,359.2,0,0,0-41.9-3q-10.5-.2-21,.1c-7,.2-14,.6-21,1s-14,1.1-20.9,1.9S261,379.6,254.1,380.8Z" transform="translate(-21.1 -205.8)" fill="#83d98c"/>
      <path d="M270.6,391.1l28.6-3.8q14.3-1.7,28.7-3.2c9.6-.9,19.2-1.7,28.8-2.2,4.8-.2,9.6-.4,14.5-.4a77.1,77.1,0,0,1,14.5,1l4.6.9h-4.7c-9,.2-18,.5-27,1.1s-18,1.2-26.9,2.1-17.9,1.9-26.8,3.4a180,180,0,0,0-26.3,6,180.2,180.2,0,0,1,26.2-6.5c8.9-1.6,17.8-2.7,26.8-3.7s17.9-1.7,26.9-2.2,18-1,27-1.2v1a79.4,79.4,0,0,0-14.3-1c-4.8,0-9.6.2-14.4.4-9.6.5-19.2,1.3-28.8,2.1s-19.2,1.8-28.7,2.9Z" transform="translate(-21.1 -205.8)" fill="#83d98c"/>
    </g>
    <path d="M440.8,504.7s120.7-12.1,179.9,56.7" transform="translate(-21.1 -205.8)" fill="none" stroke="#83d98c" stroke-miterlimit="10"/>
    <path d="M590.2,528.3S472.4,453.6,360.9,451" transform="translate(-21.1 -205.8)" fill="none" stroke="#83d98c" stroke-miterlimit="10"/>
    <path d="M424,493.6s70.6-.2,89.8,8.5c0,0-39.6-15-76-13.4,0,0,46.4-2.2,65.5,2.5,0,0-88.2-31.8-133.4-34.9l70.7,18.9s-60.4-8.7-57.6-8.4,79.7,17.4,79.7,17.4-65.4-3.9-62.3-3.1,29.3,4.7,29.3,4.7l-14.9,3.9,19.9,1.6-10,4" transform="translate(-21.1 -205.8)" fill="#2e983b"/>
    <path d="M343.3,443s92.4-15.9,173.4,20.2" transform="translate(-21.1 -205.8)" fill="none" stroke="#83d98c" stroke-miterlimit="10"/>
    <path d="M402,447.5s136.3,2.9,215.2,93.3" transform="translate(-21.1 -205.8)" fill="none" stroke="#83d98c" stroke-miterlimit="10"/>
    <path d="M611.4,545.2a301.8,301.8,0,0,0-27-22.3q-14-10.5-28.9-19.7a407.3,407.3,0,0,0-62.3-31.7q-16.2-6.5-33-11.7l-8.4-2.4-4.2-1.2-4.3-1-8.5-2-8.6-1.8c-2.8-.6-5.7-1-8.6-1.5l-4.3-.7-4.3-.6c-5.8-.7-11.6-1.5-17.4-1.9a337.9,337.9,0,0,0-35-1.4,323.4,323.4,0,0,1,69.8,5.6l8.6,1.7,8.5,2,4.3,1,4.2,1.1,8.5,2.3q16.8,5.1,33.1,11.5a408.1,408.1,0,0,1,62.3,32.1C575.6,515.1,594.5,529,611.4,545.2Z" transform="translate(-21.1 -205.8)" fill="#2e983b"/>
    <path d="M576.6,533.8S513.4,504.3,440.6,511" transform="translate(-21.1 -205.8)" fill="none" stroke="#2e983b" stroke-miterlimit="10"/>
    <path d="M618.9,582.7a59.7,59.7,0,0,0-11.6-5.3c-4-1.4-8.1-2.6-12.2-3.6a191.2,191.2,0,0,0-25.1-4.3c-4.2-.6-8.5-.8-12.7-1.2l-12.8-.7-12.8-.2H518.8l12.8-1,12.9-.3h6.4l6.4.2c4.3.3,8.6.5,12.8,1.1l6.4.8,6.4,1.1c4.2.9,8.4,1.7,12.6,2.9a106.1,106.1,0,0,1,12.2,4.2l2.9,1.3,2.9,1.5,2.8,1.6Z" transform="translate(-21.1 -205.8)" fill="#2e983b"/>
    <path d="M609,571.6a98.4,98.4,0,0,0-14.3-10.1,146.4,146.4,0,0,0-15.5-8A176.6,176.6,0,0,0,546,542.6a208.6,208.6,0,0,0-34.6-4.7,273.6,273.6,0,0,0-35,.5,204.5,204.5,0,0,1,35.1-2c5.9.1,11.7.6,17.6,1.3s11.6,1.7,17.4,3,11.4,2.9,17,4.8a150.4,150.4,0,0,1,16.4,6.6,129.4,129.4,0,0,1,15.4,8.6q3.7,2.4,7.2,5.1A64.8,64.8,0,0,1,609,571.6Z" transform="translate(-21.1 -205.8)" fill="#2e983b"/>
    <path d="M497,557.6a77.1,77.1,0,0,1,17.5-5,135.1,135.1,0,0,1,18.2-1.8h9.1c3,0,6.1.3,9.1.6l4.5.5,4.5.6,9,1.6-9-1.1-4.5-.4-4.5-.4c-3-.1-6-.4-9.1-.4h-9.1a148.9,148.9,0,0,0-18.1,1.6c-3,.5-6,1-8.9,1.7A67,67,0,0,0,497,557.6Z" transform="translate(-21.1 -205.8)" fill="#2e983b"/>
    <path d="M669.1,645.2q-6.7-4.9-13.5-9.5t-13.8-9.1c-9.3-5.9-18.8-11.6-28.5-16.7a260.9,260.9,0,0,0-30-13.9,145.7,145.7,0,0,0-15.7-5.2,104,104,0,0,0-16.2-3.1c11,.8,21.8,3.7,32.2,7.6,5.2,1.9,10.3,4.1,15.3,6.4s10,4.8,14.9,7.4q14.6,7.9,28.5,17C651.3,632,660.4,638.3,669.1,645.2Z" transform="translate(-21.1 -205.8)" fill="#83d98c"/>
    <path d="M625.2,605.2A275.4,275.4,0,0,0,598,588.1,289.7,289.7,0,0,0,569.2,574q-7.4-3.1-15-5.8c-5-1.8-10.2-3.3-15.3-4.7s-10.4-2.5-15.7-3.4-10.6-1.5-15.9-1.8v-1a137.4,137.4,0,0,1,16.2-.7c5.4.1,10.8.4,16.2.9a196.1,196.1,0,0,1,31.9,5.8c5.2,1.4,10.4,3.1,15.4,4.9s10.1,3.9,15,6.2A178.4,178.4,0,0,1,629.8,591a178.2,178.2,0,0,0-28-16.1c-4.9-2.2-9.9-4.3-14.9-6.1s-10.2-3.4-15.4-4.8a195.4,195.4,0,0,0-31.8-5.6c-5.4-.5-10.7-.8-16.1-.8a139.8,139.8,0,0,0-16.1.7v-1c5.4.4,10.7,1,16,1.9s10.5,2.1,15.7,3.5,10.3,3,15.4,4.8,10.1,3.7,15,5.8a286.4,286.4,0,0,1,28.8,14.3A275.6,275.6,0,0,1,625.2,605.2Z" transform="translate(-21.1 -205.8)" fill="#83d98c"/>
    <path d="M495.3,548.3l29.2-.8,29.2-.5v1c-10.6-2.4-21.2-4.4-32-5.9-5.4-.7-10.8-1.3-16.2-1.6a117.9,117.9,0,0,0-16.3,0,108,108,0,0,1,16.3-.5c5.4.2,10.9.7,16.3,1.3s10.8,1.5,16.1,2.4,10.7,2,16,3.3l3.9.9h-4l-29.2.3Z" transform="translate(-21.1 -205.8)" fill="#83d98c"/>
    <path d="M520.2,669a533.9,533.9,0,0,1-48.1-38.2,468.3,468.3,0,0,1-43.2-43.7c-6.7-7.8-13-15.9-18.9-24.2q-4.4-6.3-8.5-12.9T394,536.6A148.3,148.3,0,0,1,382.8,508a97.7,97.7,0,0,1-3.3-30.4,97.4,97.4,0,0,0,3.8,30.3,148.2,148.2,0,0,0,11.4,28.4c9.5,18.1,21.6,34.7,34.9,50.2a482,482,0,0,0,43,43.7q11.4,10.3,23.3,20C503.8,656.7,511.9,663,520.2,669Z" transform="translate(-21.1 -205.8)" fill="#83d98c"/>
    <path d="M416.8,555.1a113.3,113.3,0,0,1-10.1-14.6,105.4,105.4,0,0,1-7.7-16,77.3,77.3,0,0,1-4.4-17.2,62.7,62.7,0,0,1-.5-8.9,56.8,56.8,0,0,1,1-8.9l.3-1.6.6,1.5c3.2,7.7,6.5,15.4,9.9,23s6.8,15.3,10.4,22.8,7.2,15.1,11.1,22.5,7.8,14.8,12.3,21.9c-4.6-7-8.8-14.3-12.8-21.6s-7.7-14.9-11.4-22.4-7.1-15.2-10.5-22.8-6.7-15.3-9.9-23.1h.9a55.9,55.9,0,0,0-1,8.7,61.8,61.8,0,0,0,.4,8.8,77.4,77.4,0,0,0,1.6,8.7c.7,2.9,1.6,5.7,2.6,8.4a118.4,118.4,0,0,0,17.1,30.9Z" transform="translate(-21.1 -205.8)" fill="#83d98c"/>
    <path d="M452.1,573.9a55.6,55.6,0,0,1-4.3-11.5,87.7,87.7,0,0,1-2.3-12.1c-.1-1-.2-2-.3-3.1v-6.1c0-1,0-2,.1-3.1s.2-4.1.4-6.1.5-4.1.8-6.1c-.2,4.1-.5,8.1-.4,12.2a108.7,108.7,0,0,0,.7,12.2,101.2,101.2,0,0,0,2,12q.3,1.5.7,3c.2,1,.6,2,.8,2.9A59.2,59.2,0,0,0,452.1,573.9Z" transform="translate(-21.1 -205.8)" fill="#83d98c"/>
    <path d="M557.2,671.6c-5.8-3.5-11.3-7.2-16.8-11.2s-10.8-8-16-12.3a225.9,225.9,0,0,1-28.8-28.3c-8.6-10.3-16.2-21.7-20.9-34.5a67.1,67.1,0,0,1-4.2-19.8,56.6,56.6,0,0,1,2.7-20.1l.8-2.4v2.5a98.3,98.3,0,0,0,2,14.6,125.7,125.7,0,0,0,16.3,41,118.4,118.4,0,0,0,8.6,12l2.4,2.8,2.5,2.7c1.6,1.8,3.4,3.5,5.2,5.3a122.9,122.9,0,0,0,23.8,17.5,123.1,123.1,0,0,1-24.1-17.2,115.6,115.6,0,0,1-10.2-10.8,118.9,118.9,0,0,1-8.7-12,126.4,126.4,0,0,1-16.6-41.1,99,99,0,0,1-2.1-14.7h.9a55.7,55.7,0,0,0-2.6,19.7,66.5,66.5,0,0,0,4,19.6c4.5,12.6,12,24,20.6,34.3a225.3,225.3,0,0,0,28.6,28.3A294.1,294.1,0,0,0,557.2,671.6Z" transform="translate(-21.1 -205.8)" fill="#83d98c"/>
    <path d="M608.1,672.8a85.8,85.8,0,0,1-10.8-2.8c-3.5-1.1-7-2.4-10.4-3.9a155.4,155.4,0,0,1-19.8-10.1,180.1,180.1,0,0,1-34.8-27.7,219.2,219.2,0,0,1-14.6-16.8A211.4,211.4,0,0,1,505,593.1c-1-1.6-2-3.1-2.9-4.7l-2.8-4.8-1.4-2.4-1.3-2.5-2.6-4.9c-1.7-3.3-3.2-6.7-4.7-10.1l-4.3-10.2,4.6,10.1c1.7,3.3,3.2,6.7,5,9.9l2.6,4.9,1.3,2.4,1.4,2.4,2.8,4.8c.9,1.6,2,3.1,3,4.7,3.9,6.3,8.3,12.3,12.8,18.1a219.3,219.3,0,0,0,14.6,16.7,183.2,183.2,0,0,0,34.4,27.8,156.2,156.2,0,0,0,19.6,10.3c3.4,1.5,6.8,2.9,10.3,4.1A85.7,85.7,0,0,0,608.1,672.8Z" transform="translate(-21.1 -205.8)" fill="#83d98c"/>
    <path d="M407.4,649.5a95.3,95.3,0,0,1-23.4-3.9,127.9,127.9,0,0,1-22.2-8.6,148.8,148.8,0,0,1-38.4-28c-1.4-1.4-2.8-2.8-4.2-4.3l-4-4.4-3.8-4.6c-1.3-1.5-2.5-3.1-3.7-4.7s-2.4-3.1-3.6-4.8l-3.4-4.9c-1.2-1.6-2.2-3.3-3.2-5s-2.2-3.3-3.1-5.1c-2-3.4-4-6.9-5.8-10.4l-2.8-5.3-2.6-5.3-5.3-10.7L272.7,529c-13.7-28.6-26.7-57.6-39.3-86.7q-9.5-21.8-18.5-43.8c-6-14.7-12-29.4-17.7-44.2,5.9,14.7,12,29.4,18.2,44s12.4,29.2,18.7,43.8q19,43.6,39.5,86.5l5.1,10.7,5.2,10.7,2.6,5.3,2.7,5.3c1.8,3.5,3.8,6.9,5.8,10.4,1,1.7,2.1,3.4,3.1,5.1s2.1,3.4,3.2,5l3.4,4.9c1.1,1.6,2.4,3.2,3.5,4.8s2.4,3.2,3.7,4.7l3.8,4.6,4,4.4c1.3,1.5,2.8,2.8,4.1,4.3a148.7,148.7,0,0,0,38.1,28,127.5,127.5,0,0,0,22,8.8A95.2,95.2,0,0,0,407.4,649.5Z" transform="translate(-21.1 -205.8)" fill="#83d98c"/>
    <path d="M394.4,640.3l-23.8-21-23.7-21-47.4-42.1h-.1c-6.4-15.4-12.9-30.9-19.1-46.4s-12.5-31-18.7-46.5-12.3-31.1-18.2-46.7q-2.3-5.8-4.4-11.7t-4.3-11.8l-2.1-5.9-2-5.9c-1.4-3.9-2.6-8-3.8-12,1.3,4,2.5,8,3.9,11.9l2.1,5.9,2.2,5.9q2.2,5.9,4.4,11.7l4.5,11.7c6,15.6,12.2,31.1,18.4,46.6s12.5,31,18.9,46.5l19,46.4v-.2l47.2,42.3L370.9,619Z" transform="translate(-21.1 -205.8)" fill="#83d98c"/>
    <path d="M314.7,557.1c-8.2-12.9-15.6-26.2-22.7-39.7-3.5-6.8-6.8-13.6-10-20.6s-6.3-13.9-9.2-21-5.6-14.2-8-21.4-4.8-14.5-6.6-21.9a224.1,224.1,0,0,1-4.7-22.4,167.5,167.5,0,0,1-1.9-22.8A167.3,167.3,0,0,0,254,410a225.5,225.5,0,0,0,4.9,22.3c2,7.4,4.2,14.6,6.7,21.8s5.2,14.3,8.1,21.4c5.7,14.1,12.1,27.9,19,41.6q5.1,10.2,10.6,20.2C307,543.9,310.7,550.6,314.7,557.1Z" transform="translate(-21.1 -205.8)" fill="#83d98c"/>
    <path d="M240.4,554c-2.5-4.1-4.6-8.4-6.6-12.7-1-2.2-2.1-4.3-3-6.5l-2.9-6.6c-3.7-8.8-7.2-17.7-10.4-26.7-6.5-18-12.1-36.2-17.2-54.7-2.6-9.2-4.9-18.5-7.3-27.7s-4.4-18.6-6.6-27.9l-5.9-28-5.4-28.1,1.8-.4c3.6,12.8,7.4,25.6,11.3,38.4s7.9,25.5,12,38.2c8.2,25.4,16.9,50.7,26.3,75.7s19.3,49.8,30.8,73.9c5.8,12,11.8,23.9,18.7,35.3a196.2,196.2,0,0,0,11.2,16.6,91.7,91.7,0,0,0,13.6,14.7A91.9,91.9,0,0,1,287,613a196.6,196.6,0,0,1-11.4-16.5,382.2,382.2,0,0,1-19.2-35.2c-11.7-24.1-21.9-48.8-31.4-73.8s-18.2-50.3-26.5-75.7-16.1-51-23.3-76.7l1.8-.4,5.3,28.1,5.8,28,3.2,13.9,1.6,7,.8,3.5.9,3.5c2.3,9.3,4.5,18.5,7.1,27.7l1.9,6.9c.6,2.3,1.2,4.6,1.9,6.9l4,13.7c2.8,9.1,5.7,18.2,8.8,27.2s6.5,18,10,26.8l2.8,6.6c.9,2.2,2,4.4,2.9,6.5C235.9,545.5,238,549.9,240.4,554Z" transform="translate(-21.1 -205.8)" fill="#83d98c"/>
    <path d="M215.4,351a416.6,416.6,0,0,1,52.3-11.8c8.8-1.5,17.7-2.6,26.6-3.4s17.8-1.5,26.8-1.7,17.9-.1,26.8.4l6.7.5,3.3.3,3.3.4,6.7.8,6.6,1a208,208,0,0,1,26.1,6.2,167.5,167.5,0,0,1,24.8,10.3,167.2,167.2,0,0,0-24.9-9.8,208.7,208.7,0,0,0-26.1-6c-8.8-1.4-17.7-2.3-26.6-2.9s-17.8-.6-26.8-.4a424,424,0,0,0-53.3,4.9q-13.2,2-26.4,4.8C232.7,346.6,224,348.6,215.4,351Z" transform="translate(-21.1 -205.8)" fill="#83d98c"/>
    <path d="M204.2,341.1c7-1.8,14.1-3.2,21.2-4.5s14.2-2.4,21.4-3.4q21.4-2.9,43.1-4t43.3-.3c7.2.2,14.4.7,21.6,1.2l10.8,1,5.4.6,5.4.7a408.5,408.5,0,0,1,42.6,7.6l5.3,1.2,5.2,1.4,5.2,1.4,5.2,1.5,10.3,3.2,2.6.8,2.6.9,5.1,1.8c6.9,2.3,13.5,5.2,20.2,7.8l9.9,4.5,4.9,2.2,4.8,2.5,9.6,5,9.4,5.4,4.7,2.7,4.6,2.9,9.1,5.9-.6.7a89.7,89.7,0,0,0-8.5-7.7c-3-2.4-6.1-4.7-9.2-7A213.6,213.6,0,0,0,499.5,365c-6.7-3.8-13.7-7-20.8-10.2L468,350.3l-5.4-2.1-5.4-2a372.6,372.6,0,0,0-44.6-12.6c-15.1-3.3-30.4-5.7-45.7-7.6a630.6,630.6,0,0,0-92.6-3.2,849.7,849.7,0,0,0-92.3,8.7,848.3,848.3,0,0,1,92.3-9.2,631.2,631.2,0,0,1,92.7,3c15.4,1.8,30.7,4.3,45.8,7.5a373.4,373.4,0,0,1,44.7,12.5l5.5,2,5.4,2,10.7,4.4c7.1,3.2,14.1,6.4,20.9,10.2a214.5,214.5,0,0,1,19.8,12.2c3.2,2.2,6.3,4.5,9.3,7a90.4,90.4,0,0,1,8.6,7.8l2.8,3-3.4-2.2-9.1-5.9-4.5-2.9-4.7-2.7-9.3-5.4-9.6-5-4.8-2.5-4.9-2.2-9.8-4.5c-6.7-2.7-13.3-5.5-20.1-7.8l-5.1-1.8-2.5-.9-2.6-.8-10.3-3.2-5.2-1.5-5.2-1.4L424,342l-5.3-1.2a407.8,407.8,0,0,0-42.5-7.7l-5.4-.7-5.4-.6-10.8-1c-7.2-.5-14.4-1-21.6-1.2q-21.6-.8-43.2.2t-43.1,3.7q-10.7,1.4-21.4,3.2C218.3,338,211.2,339.4,204.2,341.1Z" transform="translate(-21.1 -205.8)" fill="#83d98c"/>
    <path d="M691,664.8s-125.6-49.7-156.6-75.6-2.8-7.1-1.4-3.5,14,58.8,68,77c0,0-40.9,4.1-75.5-75.3l-60.6-48.4s-29.2,50.2,59.8,121.4c0,0-88.7-60.4-68.5-126.1l-90.6-65.1s9.8,96.2,115.2,184.2c0,0-119.5-89.2-125.6-189.6l-92.5-69.8L323,541l44.1,68.7,92.1,61.8-98-59.4s-38.1-50.5-45-71.1-64.5-153.8-64.5-153.8l-62-38.2S253.5,518.2,262.7,531s14.5,66.9,82.7,113.6c0,0-51.1-11-84.1-96.6s-79.5-201.3-82.4-208.4-17.8-13.5-17.8-13.5,57.1,210.3,69.4,227.3,34.8,42.3,34.8,42.3-45-36.8-64-97.8-41.2-167.3-51.8-183.6-28.2-32.6-28.2-32.6,73.8,12.9,176.4,8.7,103.6,11.9,103.6,11.9-90.5,3.4-258.9-12.6l27.5,27.4s125.7-8,211.6,4.2,114.2,35,114.2,35S412,318.7,304.4,320.7s-125.3,9.2-125.3,9.2l43.1,25.2s150.3-15.1,260.3,23,82.4,54.7,82.4,54.7,22.4-22.7-162.3-69.3c0,0-104-13.1-171.4.3l96.3,65.6s179.4-28.2,271,80.4c0,0-87.1-87.1-263-74.1L457,516s114.4-2.1,154.4,46.3c0,0-14-38.3-146.1-35.9l80.9,58s62.6-4.6,73.3,4.9c0,0-39.7-10.1-68.1,1.3Z" transform="translate(-21.1 -205.8)" fill="#2e983b"/>
    <path d="M164.9,460.8c-.9-14.2-2.1-28.3-3.6-42.5s-3.2-28.2-5.3-42.3-4.6-28.1-7.9-41.9c-1.6-6.9-3.5-13.8-5.8-20.5a90.9,90.9,0,0,0-8.8-19.3l.8-.4c6.2,18,11.9,36.2,17.4,54.5s10.7,36.6,15.8,54.9c2.5,9.2,5,18.4,7.4,27.6l3.6,13.8,3.5,13.8,1.8,6.9,1.7,6.9,3.4,13.9,6.6,27.8-6.9-27.7c-2.4-9.2-4.7-18.5-7.1-27.7l-3.6-13.8-3.7-13.8c-2.4-9.2-5-18.4-7.5-27.6q-7.7-27.5-16-54.9-4.2-13.7-8.5-27.3c-2.9-9.1-5.8-18.1-8.9-27.1l-1.3-3.7,2.1,3.3a91.6,91.6,0,0,1,8.8,19.5c2.3,6.8,4.1,13.6,5.8,20.6,3.3,13.9,5.7,27.9,7.7,41.9s3.7,28.2,5.1,42.3S164.1,446.7,164.9,460.8Z" transform="translate(-21.1 -205.8)" fill="#83d98c"/>
    <path d="M148.7,297.6l1.8.4c12.7,2.7,93.5,18.8,248.4,20.5C398.9,318.5,197.8,289.2,148.7,297.6Z" transform="translate(-21.1 -205.8)" fill="none" stroke="#83d98c" stroke-miterlimit="10"/>
    <path d="M351.8,620.2a12.7,12.7,0,0,1-4.4-1.2,31.1,31.1,0,0,1-4-2.2l-1.9-1.3-1.8-1.4-1.8-1.4-1.7-1.5A117.6,117.6,0,0,1,323.5,598a263.3,263.3,0,0,1-20.9-30.2c-12.6-21-23.5-42.9-33.6-65.2s-19.2-45-27.9-67.9c-2.2-5.7-4.3-11.5-6.4-17.2s-4.2-11.5-6.2-17.2c-4.1-11.5-8-23.1-11.9-34.7,4.1,11.5,8.1,23.1,12.4,34.5,2.1,5.7,4.2,11.5,6.3,17.2s4.3,11.5,6.5,17.1c8.8,22.8,18.1,45.4,28.2,67.7s20.8,44.3,33.3,65.3a264.9,264.9,0,0,0,20.7,30.2,117.3,117.3,0,0,0,12.4,13.4l1.7,1.5,1.8,1.4,1.8,1.4,1.9,1.3a31,31,0,0,0,4,2.2A12.6,12.6,0,0,0,351.8,620.2Z" transform="translate(-21.1 -205.8)" fill="#2e983b"/>
  </g>
</svg>
